{
.appVersion = "3202";
.formatVersion = 3;
axes = (
{
name = Weight;
tag = wght;
}
);
classes = (
{
automatic = 1;
code = "A Aacute Abreve Acaron Acircumflex Adieresis Agrave Amacron Aogonek Aring Aringacute Atilde AE B C Cacute Ccaron Ccedilla Cdotaccent D Dcaron Dcroat Eth E Eacute Ecaron Ecircumflex Edieresis Edotaccent Egrave Emacron Eogonek F Fhook G Gbreve Gcommaaccent Gdotaccent H Hbar I Iacute Icaron Icircumflex Idieresis Idotaccent Igrave Imacron Iogonek J K Kcommaaccent L Lacute Lcaron Lcommaaccent Ldot Lslash M N Nacute Ncaron Ncommaaccent Ntilde Eng O Oacute Ocaron Ocircumflex Odieresis Ograve Ohungarumlaut Omacron Oslash Otilde OE P Thorn Q R Racute Rcaron Rcommaaccent S Sacute Scaron Scedilla Scommaaccent Germandbls T Tbar Tcaron Tcedilla Tcommaaccent U Uacute Ubreve Ucaron Ucircumflex Udieresis Udieresisacute Udieresiscaron Udieresisgrave Udieresismacron Ugrave Uhungarumlaut Umacron Uogonek Uring Utilde V W Wacute Wcircumflex Wdieresis Wgrave X Y Yacute Ycircumflex Ydieresis Ygrave Ytilde Z Zacute Zcaron Zdotaccent";
name = Uppercase;
}
);
customParameters = (
{
name = fsType;
value = (
);
},
{
name = "Use Typo Metrics";
value = 1;
},
{
name = "Write lastChange";
value = 0;
},
{
name = "Use Line Breaks";
value = 1;
},
{
name = panose;
value = (
0,
0,
0,
0,
0,
0,
0,
0,
0,
0
);
}
);
date = "2018-11-14 11:04:06 +0000";
familyName = Baskervville;
featurePrefixes = (
{
automatic = 1;
code = "languagesystem DFLT dflt;

languagesystem latn dflt;
languagesystem latn AZE;
languagesystem latn CRT;
languagesystem latn KAZ;
languagesystem latn TAT;
languagesystem latn TRK;
languagesystem latn ROM;
languagesystem latn MOL;
languagesystem latn CAT;
";
name = Languagesystems;
}
);
features = (
{
automatic = 1;
code = "feature locl;
feature subs;
feature sinf;
feature sups;
feature numr;
feature dnom;
feature frac;
feature lnum;
feature onum;
feature c2sc;
feature smcp;
feature case;
feature ordn;
";
tag = aalt;
},
{
code = "lookup ccmp_Other_1 {

glyphs = (
{
color = 6;
glyphname = A;
kernLeft = A;
kernRight = A;
layers = (
{
anchors = (
{
name = bottom;
pos = (344,0);
},
{
name = ogonek;
pos = (649,0);
},
{
name = top;
pos = (374,710);
}
);
layerId = "9372F035-DA38-4B54-966C-CEBA9B53DD02";
shapes = (
{
closed = 1;
nodes = (
(106,0,l),
(233,-3,l),
(233,22,l),
(213,24,ls),
(162,28,o),
(142,41,o),
(142,66,cs),
(142,81,o),
(149,100,o),
(159,124,cs),
(369,633,l),
(345,633,l),
(547,124,ls),
(556,102,o),
(561,84,o),
(561,70,cs),
(561,43,o),
(543,29,o),
(496,24,cs),
(476,22,l),
(476,-3,l),
(636,0,l),
(760,-3,l),
(760,22,l),
(740,24,ls),
(686,29,o),
(660,58,o),
(634,123,cs),
(398,710,l),
(364,710,l),
(122,123,ls),
(92,50,o),
(63,32,o),
(-6,23,cs),
(-15,22,l),
(-15,-3,l)
);
},
{
closed = 1;
nodes = (
(501,254,l),
(489,286,l),
(221,286,l),
(208,254,l)
);
}
);
width = 745;
}
);
unicode = 65;
},
{
color = 6;
glyphname = Aogonek;
kernLeft = A;
kernRight = A;
layers = (
{
layerId = "9372F035-DA38-4B54-966C-CEBA9B53DD02";
shapes = (
{
closed = 1;
nodes = (
(577,-294,o),
(618,-234,o),
(627,-183,c),
(610,-170,l),
(588,-211,o),
(551,-238,o),
(513,-238,cs),
(464,-238,o),
(439,-196,o),
(439,-150,cs),
(439,-58,o),
(517,0,o),
(613,0,cs),
(627,0,l),
(745,-3,l),
(745,22,l),
(725,24,ls),
(671,29,o),
(645,58,o),
(619,123,cs),
(380,717,l),
(352,717,l),
(107,123,ls),
(77,50,o),
(48,32,o),
(-21,23,cs),
(-30,22,l),
(-30,-3,l),
(91,0,l),
(218,-3,l),
(218,22,l),
(198,24,ls),
(150,28,o),
(133,42,o),
(133,68,cs),
(133,82,o),
(139,101,o),
(148,124,cs),
(201,255,l),
(478,255,l),
(520,147,ls),
(529,125,o),
(532,106,o),
(532,89,cs),
(532,56,o),
(526,36,o),
(479,-16,cs),
(444,-54,o),
(384,-123,o),
(384,-191,cs),
(384,-255,o),
(438,-294,o),
(495,-294,cs)
);
},
{
closed = 1;
nodes = (
(343,604,l),
(466,286,l),
(214,286,l)
);
}
);
width = 715;
}
);
unicode = 260;
},
{
color = 6;
glyphname = AE;
kernLeft = AE;
kernRight = E;
layers = (
{
anchors = (
{
name = bottom;
pos = (566,0);
},
{
name = ogonek;
pos = (947,10);
},
{
name = top;
pos = (708,710);
},
{
name = topleft;
pos = (360,710);
}
);
layerId = "9372F035-DA38-4B54-966C-CEBA9B53DD02";
shapes = (
{
closed = 1;
nodes = (
(20,-1,o),
(69,0,o),
(117,0,cs),
(165,0,o),
(213,-1,o),
(244,-3,c),
(244,19,l),
(213,22,ls),
(184,25,o),
(159,37,o),
(159,67,cs),
(159,81,o),
(165,101,o),
(180,125,cs),
(504,664,l),
(504,199,ls),
(504,48,o),
(490,29,o),
(440,24,cs),
(368,17,l),
(368,-3,l),
(523,0,l),
(967,0,l),
(970,90,l),
(977,210,l),
(952,210,l),
(939,52,o),
(907,25,o),
(781,25,cs),
(688,25,ls),
(612,25,o),
(591,54,o),
(591,107,cs),
(591,683,l),
(721,683,ls),
(869,683,o),
(901,669,o),
(920,546,c),
(944,546,l),
(936,638,l),
(934,710,l),
(505,710,l),
(396,713,l),
(396,690,l),
(432,688,ls),
(455,687,o),
(464,679,o),
(464,667,cs),
(464,652,o),
(451,630,o),
(435,603,cs),
(146,123,ls),
(92,33,o),
(58,27,o),
(11,22,cs),
(-15,19,l),
(-15,-3,l)
);
},
{
closed = 1;
nodes = (
(511,310,l),
(511,336,l),
(299,336,l),
(283,310,l)
);
},
{
closed = 1;
nodes = (
(797,226,l),
(794,374,l),
(797,508,l),
(772,508,l),
(767,408,o),
(740,387,o),
(701,387,cs),
(585,387,l),
(585,362,l),
(701,362,ls),
(747,362,o),
(772,324,o),
(772,226,c)
);
}
);
width = 1017;
}
);
metricLeft = A;
metricRight = E;
unicode = 198;
},
{
color = 6;
glyphname = B;
kernLeft = H;
kernRight = B;
layers = (
{
anchors = (
{
name = bottom;
pos = (332,0);
},
{
name = top;
pos = (332,710);
}
);
layerId = "9372F035-DA38-4B54-966C-CEBA9B53DD02";
shapes = (
{
closed = 1;
nodes = (
(188,0,l),
(366,0,ls),
(491,0,o),
(626,46,o),
(626,202,cs),
(626,328,o),
(537,371,o),
(441,380,c),
(510,404,o),
(584,454,o),
(584,547,cs),
(584,707,o),
(401,710,o),
(310,710,cs),
(188,710,l),
(40,713,l),
(40,688,l),
(60,686,ls),
(129,678,o),
(146,676,o),
(146,577,cs),
(146,133,ls),
(146,34,o),
(129,32,o),
(60,24,cs),
(40,22,l),
(40,-3,l)
);
},
{
closed = 1;
nodes = (
(254,28,o),
(227,49,o),
(227,129,cs),
(227,682,l),
(340,682,ls),
(435,682,o),
(491,660,o),
(491,547,cs),
(491,440,o),
(442,387,o),
(360,387,cs),
(221,387,l),
(221,359,l),
(320,359,ls),
(464,359,o),
(532,337,o),
(532,201,cs),
(532,60,o),
(466,28,o),
(366,28,cs),
(310,28,ls)
);
}
);
width = 686;
}
);
metricLeft = I;
unicode = 66;
},
{
color = 6;
glyphname = C;
kernLeft = O;
kernRight = C;
layers = (
{
anchors = (
{
name = bottom;
pos = (381,0);
},
{
name = top;
pos = (394,710);
}
);
layerId = "9372F035-DA38-4B54-966C-CEBA9B53DD02";
shapes = (
{
closed = 1;
nodes = (
(466,-11,o),
(522,16,o),
(557,33,cs),
(573,41,o),
(585,47,o),
(595,47,cs),
(612,47,o),
(618,28,o),
(623,11,cs),
(626,0,l),
(650,0,l),
(647,117,l),
(649,239,l),
(625,239,l),
(612,119,o),
(528,19,o),
(399,19,cs),
(225,19,o),
(164,145,o),
(164,355,cs),
(164,541,o),
(224,694,o),
(399,694,cs),
(524,694,o),
(602,614,o),
(622,476,c),
(647,476,l),
(645,593,l),
(647,710,l),
(622,710,l),
(619,682,o),
(609,672,o),
(595,672,cs),
(589,672,o),
(573,679,o),
(556,687,cs),
(529,700,o),
(477,724,o),
(396,724,cs),
(213,724,o),
(62,567,o),
(62,355,cs),
(62,141,o),
(186,-11,o),
(390,-11,cs)
);
}
);
width = 720;
}
);
metricLeft = O;
unicode = 67;
},
{
color = 6;
glyphname = D;
kernLeft = H;
kernRight = O;
layers = (
{
anchors = (
{
name = bottom;
pos = (381,0);
},
{
name = center;
pos = (231,367);
},
{
name = top;
pos = (361,710);
}
);
layerId = "9372F035-DA38-4B54-966C-CEBA9B53DD02";
shapes = (
{
closed = 1;
nodes = (
(188,0,l),
(380,0,ls),
(574,0,o),
(750,120,o),
(750,358,cs),
(750,607,o),
(599,710,o),
(330,710,cs),
(189,710,l),
(41,713,l),
(41,688,l),
(61,686,ls),
(130,678,o),
(147,676,o),
(147,577,cs),
(147,133,ls),
(147,34,o),
(129,32,o),
(60,24,cs),
(40,22,l),
(40,-3,l)
);
},
{
closed = 1;
nodes = (
(238,30,o),
(233,88,o),
(233,146,cs),
(233,680,l),
(359,680,ls),
(576,680,o),
(654,559,o),
(654,356,cs),
(654,133,o),
(547,30,o),
(384,30,cs),
(299,30,ls)
);
}
);
width = 792;
}
);
metricLeft = I;
metricRight = "=O-20";
unicode = 68;
},
{
color = 6;
glyphname = E;
kernLeft = H;
kernRight = H;
layers = (
{
anchors = (
{
name = bottom;
pos = (353,0);
},
{
name = ogonek;
pos = (559,0);
},
{
name = top;
pos = (363,710);
},
{
name = topleft;
pos = (2,710);
}
);
layerId = "9372F035-DA38-4B54-966C-CEBA9B53DD02";
shapes = (
{
closed = 1;
nodes = (
(188,0,l),
(599,0,l),
(602,90,l),
(609,210,l),
(584,210,l),
(571,55,o),
(539,28,o),
(423,28,cs),
(330,28,ls),
(254,28,o),
(231,43,o),
(231,107,cs),
(231,681,l),
(363,681,ls),
(511,681,o),
(543,667,o),
(562,546,c),
(586,546,l),
(578,638,l),
(576,710,l),
(188,710,l),
(40,713,l),
(40,688,l),
(60,686,ls),
(129,678,o),
(146,676,o),
(146,577,cs),
(146,133,ls),
(146,34,o),
(129,32,o),
(60,24,cs),
(40,22,l),
(40,-3,l)
);
},
{
closed = 1;
nodes = (
(439,226,l),
(436,374,l),
(439,508,l),
(414,508,l),
(409,409,o),
(382,388,o),
(343,388,cs),
(225,388,l),
(225,360,l),
(343,360,ls),
(389,360,o),
(414,323,o),
(414,226,c)
);
}
);
width = 649;
}
);
metricLeft = I;
unicode = 69;
},
{
color = 3;
glyphname = Eogonek;
kernLeft = H;
kernRight = H;
layers = (
{
layerId = "9372F035-DA38-4B54-966C-CEBA9B53DD02";
shapes = (
{
closed = 1;
nodes = (
(580,-294,o),
(617,-234,o),
(624,-183,c),
(607,-170,l),
(588,-212,o),
(552,-239,o),
(515,-239,cs),
(474,-239,o),
(439,-210,o),
(439,-154,cs),
(439,-69,o),
(527,0,o),
(599,0,c),
(593,29,l),
(460,-14,o),
(386,-112,o),
(386,-191,cs),
(386,-250,o),
(433,-294,o),
(494,-294,cs)
);
},
{
ref = E;
}
);
width = 649;
}
);
unicode = 280;
},
{
color = 6;
glyphname = F;
kernLeft = H;
kernRight = F;
layers = (
{
anchors = (
{
name = bottom;
pos = (197,0);
},
{
name = top;
pos = (337,710);
}
);
layerId = "9372F035-DA38-4B54-966C-CEBA9B53DD02";
shapes = (
{
closed = 1;
nodes = (
(188,0,l),
(189,0,l),
(351,-3,l),
(351,22,l),
(317,24,ls),
(252,28,o),
(231,34,o),
(231,133,cs),
(231,681,l),
(395,681,ls),
(461,681,o),
(567,681,o),
(578,548,c),
(602,548,l),
(593,637,l),
(590,710,l),
(188,710,l),
(40,713,l),
(40,688,l),
(60,686,ls),
(129,678,o),
(146,676,o),
(146,577,cs),
(146,133,ls),
(146,34,o),
(129,32,o),
(60,24,cs),
(40,22,l),
(40,-3,l)
);
},
{
closed = 1;
nodes = (
(439,226,l),
(436,374,l),
(439,508,l),
(414,508,l),
(409,409,o),
(382,388,o),
(343,388,cs),
(225,388,l),
(225,360,l),
(343,360,ls),
(389,360,o),
(414,323,o),
(414,226,c)
);
}
);
width = 607;
}
);
metricLeft = I;
unicode = 70;
},
{
color = 6;
glyphname = Fhook;
kernLeft = H;
kernRight = F;
layers = (
{
anchors = (
{
name = top;
pos = (337,710);
}
);
layerId = "9372F035-DA38-4B54-966C-CEBA9B53DD02";
shapes = (
{
closed = 1;
nodes = (
(141,-290,o),
(231,-273,o),
(231,-138,cs),
(231,353,l),
(354,353,ls),
(400,353,o),
(425,314,o),
(425,216,c),
(450,216,l),
(447,364,l),
(450,498,l),
(425,498,l),
(420,399,o),
(393,378,o),
(354,378,cs),
(231,378,l),
(231,683,l),
(395,683,ls),
(461,683,o),
(567,683,o),
(578,548,c),
(602,548,l),
(593,637,l),
(590,710,l),
(188,710,l),
(40,713,l),
(40,688,l),
(60,686,ls),
(129,678,o),
(146,676,o),
(146,577,cs),
(146,-156,ls),
(146,-180,o),
(146,-266,o),
(72,-266,cs),
(45,-266,o),
(37,-251,o),
(37,-238,cs),
(37,-231,o),
(39,-225,o),
(42,-217,c),
(45,-210,o),
(48,-202,o),
(48,-190,cs),
(48,-166,o),
(28,-149,o),
(3,-149,cs),
(-32,-149,o),
(-49,-175,o),
(-49,-202,cs),
(-49,-255,o),
(7,-290,o),
(66,-290,cs)
);
}
);
width = 607;
}
);
unicode = 401;
},
{
color = 6;
glyphname = G;
kernLeft = O;
kernRight = G;
layers = (
{
anchors = (
{
name = bottom;
pos = (399,0);
},
{
name = top;
pos = (399,710);
}
);
layerId = "9372F035-DA38-4B54-966C-CEBA9B53DD02";
shapes = (
{
closed = 1;
nodes = (
(493,-11,o),
(541,23,o),
(576,48,cs),
(596,63,o),
(612,75,o),
(633,75,cs),
(645,75,o),
(662,67,o),
(680,39,c),
(703,54,l),
(689,79,ls),
(679,97,o),
(667,125,o),
(667,156,cs),
(667,174,ls),
(667,237,o),
(692,258,o),
(728,261,cs),
(773,265,l),
(773,289,l),
(619,285,l),
(453,289,l),
(453,265,l),
(496,261,ls),
(569,254,o),
(592,233,o),
(592,174,cs),
(592,146,ls),
(592,81,o),
(511,19,o),
(400,19,cs),
(250,19,o),
(164,126,o),
(164,355,cs),
(164,572,o),
(241,694,o),
(397,694,cs),
(504,694,o),
(617,614,o),
(621,478,c),
(646,478,l),
(644,595,l),
(646,710,l),
(621,710,l),
(621,694,o),
(614,673,o),
(596,673,cs),
(579,673,o),
(570,677,o),
(536,692,cs),
(506,705,o),
(459,724,o),
(400,724,cs),
(218,724,o),
(62,572,o),
(62,355,cs),
(62,131,o),
(210,-11,o),
(394,-11,cs)
);
}
);
width = 785;
}
);
metricLeft = O;
unicode = 71;
},
{
color = 3;
glyphname = H;
kernLeft = H;
kernRight = H;
layers = (
{
anchors = (
{
name = bottom;
pos = (420,0);
},
{
name = center;
pos = (420,521);
},
{
name = top;
pos = (425,710);
},
{
name = topleft;
pos = (-10,710);
}
);
layerId = "9372F035-DA38-4B54-966C-CEBA9B53DD02";
shapes = (
{
closed = 1;
nodes = (
(640,352,l),
(640,384,l),
(198,384,l),
(198,352,l)
);
},
{
locked = 1;
pos = (466,0);
ref = I;
},
{
locked = 1;
ref = I;
}
);
width = 843;
}
);
metricLeft = I;
metricRight = I;
unicode = 72;
},
{
color = 6;
glyphname = I;
kernLeft = H;
kernRight = H;
layers = (
{
anchors = (
{
name = bottom;
pos = (180,0);
},
{
name = ogonek;
pos = (214,0);
},
{
name = top;
pos = (187,710);
},
{
name = topleft;
pos = (-5,710);
}
);
layerId = "9372F035-DA38-4B54-966C-CEBA9B53DD02";
shapes = (
{
closed = 1;
nodes = (
(188,0,l),
(189,0,l),
(337,-3,l),
(337,22,l),
(317,24,ls),
(248,32,o),
(231,34,o),
(231,133,cs),
(231,577,ls),
(231,676,o),
(248,678,o),
(317,686,cs),
(337,688,l),
(337,713,l),
(189,710,l),
(188,710,l),
(40,713,l),
(40,688,l),
(60,686,ls),
(129,678,o),
(146,676,o),
(146,577,cs),
(146,133,ls),
(146,34,o),
(129,32,o),
(60,24,cs),
(40,22,l),
(40,-3,l)
);
}
);
width = 377;
}
);
unicode = 73;
},
{
color = 6;
glyphname = J;
kernLeft = J;
kernRight = J;
layers = (
{
anchors = (
{
name = bottom;
pos = (193,0);
},
{
name = top;
pos = (253,710);
}
);
layerId = "9372F035-DA38-4B54-966C-CEBA9B53DD02";
shapes = (
{
closed = 1;
nodes = (
(205,-11,o),
(295,6,o),
(295,141,cs),
(295,577,ls),
(295,676,o),
(312,678,o),
(381,686,cs),
(401,688,l),
(401,713,l),
(253,710,l),
(252,710,l),
(104,713,l),
(104,688,l),
(124,686,ls),
(193,678,o),
(210,676,o),
(210,577,cs),
(210,123,ls),
(210,99,o),
(210,13,o),
(136,13,cs),
(109,13,o),
(101,28,o),
(101,41,cs),
(101,48,o),
(103,54,o),
(106,62,c),
(109,69,o),
(112,77,o),
(112,89,cs),
(112,113,o),
(92,130,o),
(67,130,cs),
(32,130,o),
(15,104,o),
(15,77,cs),
(15,24,o),
(71,-11,o),
(130,-11,cs)
);
}
);
width = 431;
}
);
unicode = 74;
},
{
color = 6;
glyphname = K;
kernLeft = H;
kernRight = K;
layers = (
{
anchors = (
{
name = bottom;
pos = (393,0);
},
{
name = top;
pos = (371,710);
}
);
layerId = "9372F035-DA38-4B54-966C-CEBA9B53DD02";
shapes = (
{
closed = 1;
nodes = (
(522,606,ls),
(560,651,o),
(594,679,o),
(634,684,cs),
(668,688,l),
(668,713,l),
(547,710,l),
(419,713,l),
(419,687,l),
(451,684,ls),
(480,681,o),
(497,671,o),
(497,652,cs),
(497,635,o),
(485,611,o),
(457,578,cs),
(219,300,l),
(219,249,l)
);
},
{
closed = 1;
nodes = (
(188,0,l),
(189,0,l),
(324,-3,l),
(324,22,l),
(306,24,ls),
(242,32,o),
(227,34,o),
(227,133,cs),
(227,577,ls),
(227,667,o),
(240,678,o),
(301,685,cs),
(321,687,l),
(321,713,l),
(188,710,l),
(40,713,l),
(40,688,l),
(60,686,ls),
(129,678,o),
(146,676,o),
(146,577,cs),
(146,133,ls),
(146,34,o),
(129,32,o),
(60,24,cs),
(40,22,l),
(40,-3,l)
);
},
{
closed = 1;
nodes = (
(609,0,l),
(761,-3,l),
(761,22,l),
(740,24,ls),
(668,31,o),
(626,82,o),
(558,171,cs),
(356,435,l),
(297,365,l),
(497,107,ls),
(514,85,o),
(524,66,o),
(524,52,cs),
(524,36,o),
(510,25,o),
(476,23,cs),
(461,22,l),
(461,-3,l)
);
}
);
width = 741;
}
);
metricLeft = I;
unicode = 75;
},
{
color = 6;
glyphname = L;
kernLeft = H;
kernRight = L;
layers = (
{
anchors = (
{
name = bottom;
pos = (359,0);
},
{
name = center;
pos = (212,375);
},
{
name = top;
pos = (188,710);
},
{
name = topright;
pos = (409,710);
}
);
layerId = "9372F035-DA38-4B54-966C-CEBA9B53DD02";
shapes = (
{
closed = 1;
nodes = (
(188,0,l),
(606,-3,l),
(616,210,l),
(594,210,l),
(584,92,o),
(539,29,o),
(423,29,cs),
(348,29,ls),
(235,29,o),
(231,73,o),
(231,172,cs),
(231,589,ls),
(231,679,o),
(245,681,o),
(303,688,cs),
(319,690,l),
(319,713,l),
(190,710,l),
(40,713,l),
(40,688,l),
(60,686,ls),
(129,679,o),
(146,676,o),
(146,577,cs),
(146,133,ls),
(146,34,o),
(129,31,o),
(60,24,cs),
(40,22,l),
(40,-3,l)
);
}
);
width = 651;
}
);
metricLeft = I;
unicode = 76;
},
{
color = 6;
glyphname = M;
kernLeft = M;
kernRight = H;
layers = (
{
anchors = (
{
name = bottom;
pos = (443,0);
},
{
name = top;
pos = (497,710);
}
);
guides = (
{
pos = (547,642);
}
);
layerId = "9372F035-DA38-4B54-966C-CEBA9B53DD02";
shapes = (
{
closed = 1;
nodes = (
(155,0,l),
(282,-3,l),
(282,22,l),
(262,24,ls),
(196,31,o),
(176,41,o),
(176,105,cs),
(176,681,l),
(159,679,l),
(434,0,l),
(453,0,l),
(765,682,l),
(749,684,l),
(749,133,ls),
(749,34,o),
(732,31,o),
(663,24,cs),
(643,22,l),
(643,-3,l),
(792,0,l),
(940,-3,l),
(940,22,l),
(920,24,ls),
(851,31,o),
(834,34,o),
(834,133,cs),
(834,577,ls),
(834,676,o),
(851,678,o),
(920,686,cs),
(940,688,l),
(940,713,l),
(800,710,l),
(740,710,l),
(462,101,l),
(490,101,l),
(239,710,l),
(183,710,l),
(35,713,l),
(35,688,l),
(55,686,ls),
(124,678,o),
(141,676,o),
(141,577,cs),
(141,133,ls),
(141,34,o),
(124,32,o),
(55,24,cs),
(35,22,l),
(35,-3,l)
);
}
);
width = 980;
}
);
metricRight = I;
unicode = 77;
},
{
color = 6;
glyphname = N;
kernLeft = M;
kernRight = N;
layers = (
{
anchors = (
{
name = bottom;
pos = (436,0);
},
{
name = top;
pos = (402,710);
}
);
layerId = "9372F035-DA38-4B54-966C-CEBA9B53DD02";
shapes = (
{
closed = 1;
nodes = (
(163,0,l),
(291,-4,l),
(291,21,l),
(271,23,ls),
(202,30,o),
(185,33,o),
(185,133,cs),
(185,648,l),
(168,626,l),
(255,527,o),
(556,139,o),
(625,0,c),
(655,0,l),
(655,577,ls),
(655,676,o),
(672,678,o),
(741,686,cs),
(761,688,l),
(761,713,l),
(639,710,l),
(509,713,l),
(509,688,l),
(529,686,ls),
(598,679,o),
(615,676,o),
(615,577,cs),
(615,156,l),
(629,181,l),
(589,232,o),
(308,601,o),
(229,710,c),
(35,713,l),
(35,687,l),
(65,687,ls),
(111,687,o),
(133,664,o),
(145,649,c),
(145,133,ls),
(145,33,o),
(128,30,o),
(59,23,cs),
(39,21,l),
(39,-4,l)
);
}
);
width = 781;
}
);
metricLeft = M;
unicode = 78;
},
{
color = 6;
glyphname = Eng;
kernLeft = H;
kernRight = N;
layers = (
{
anchors = (
{
name = bottom;
pos = (437,0);
},
{
name = top;
pos = (403,710);
}
);
layerId = "9372F035-DA38-4B54-966C-CEBA9B53DD02";
shapes = (
{
closed = 1;
nodes = (
(588,-264,o),
(656,-229,o),
(656,-60,cs),
(656,577,ls),
(656,676,o),
(673,678,o),
(742,686,cs),
(762,688,l),
(762,713,l),
(641,711,l),
(520,713,l),
(520,688,l),
(540,686,ls),
(609,678,o),
(626,676,o),
(626,577,cs),
(626,187,l),
(573,255,o),
(307,604,o),
(230,710,c),
(35,713,l),
(36,684,l),
(58,684,ls),
(110,684,o),
(131,664,o),
(146,649,c),
(146,133,ls),
(146,34,o),
(129,32,o),
(60,24,cs),
(40,22,l),
(40,-3,l),
(161,-1,l),
(282,-3,l),
(282,22,l),
(262,24,ls),
(193,32,o),
(176,34,o),
(176,133,cs),
(176,617,l),
(272,506,o),
(559,135,o),
(626,0,c),
(626,-58,ls),
(626,-150,o),
(605,-223,o),
(554,-223,cs),
(534,-223,o),
(534,-210,o),
(534,-187,cs),
(534,-160,o),
(516,-137,o),
(486,-137,cs),
(456,-137,o),
(438,-161,o),
(438,-187,cs),
(438,-237,o),
(474,-264,o),
(524,-264,cs)
);
}
);
width = 782;
}
);
metricLeft = N;
metricRight = N;
unicode = 330;
},
{
color = 6;
glyphname = O;
kernLeft = O;
kernRight = O;
layers = (
{
anchors = (
{
name = bottom;
pos = (410,0);
},
{
name = center;
pos = (410,355);
},
{
name = ogonek;
pos = (484,0);
},
{
name = top;
pos = (409,710);
},
{
name = topleft;
pos = (22,710);
}
);
layerId = "9372F035-DA38-4B54-966C-CEBA9B53DD02";
shapes = (
{
closed = 1;
nodes = (
(609,-11,o),
(756,141,o),
(756,357,cs),
(756,572,o),
(609,724,o),
(409,724,cs),
(209,724,o),
(62,572,o),
(62,357,cs),
(62,141,o),
(209,-11,o),
(409,-11,cs)
);
},
{
closed = 1;
nodes = (
(236,19,o),
(164,147,o),
(164,357,cs),
(164,566,o),
(236,694,o),
(409,694,cs),
(582,694,o),
(654,566,o),
(654,357,cs),
(654,147,o),
(582,19,o),
(409,19,cs)
);
}
);
width = 818;
}
);
unicode = 79;
},
{
color = 6;
glyphname = OE;
kernLeft = O;
kernRight = E;
layers = (
{
layerId = "9372F035-DA38-4B54-966C-CEBA9B53DD02";
shapes = (
{
closed = 1;
nodes = (
(431,-11,o),
(458,-8,o),
(484,-2,c),
(569,0,l),
(960,0,l),
(963,90,l),
(970,210,l),
(945,210,l),
(932,52,o),
(900,25,o),
(774,25,cs),
(682,25,ls),
(629,25,o),
(614,54,o),
(614,107,cs),
(614,683,l),
(714,683,ls),
(862,683,o),
(894,669,o),
(913,546,c),
(937,546,l),
(929,638,l),
(927,710,l),
(511,710,l),
(480,719,o),
(447,725,o),
(414,725,cs),
(227,725,o),
(62,572,o),
(62,355,cs),
(62,141,o),
(209,-11,o),
(404,-11,cs)
);
},
{
closed = 1;
nodes = (
(243,19,o),
(164,145,o),
(164,355,cs),
(164,558,o),
(242,695,o),
(414,695,cs),
(489,695,o),
(528,672,o),
(528,577,cs),
(528,133,ls),
(528,37,o),
(497,19,o),
(404,19,cs)
);
},
{
closed = 1;
nodes = (
(790,226,l),
(787,374,l),
(790,508,l),
(765,508,l),
(760,408,o),
(733,387,o),
(694,387,cs),
(608,387,l),
(608,362,l),
(694,362,ls),
(740,362,o),
(765,324,o),
(765,226,c)
);
}
);
width = 1010;
}
);
metricLeft = O;
metricRight = E;
unicode = 338;
},
{
color = 6;
glyphname = P;
kernLeft = H;
kernRight = P;
layers = (
{
anchors = (
{
name = bottom;
pos = (187,0);
},
{
name = top;
pos = (297,710);
}
);
layerId = "9372F035-DA38-4B54-966C-CEBA9B53DD02";
shapes = (
{
closed = 1;
nodes = (
(185,0,l),
(354,-3,l),
(354,22,l),
(332,24,ls),
(251,32,o),
(231,34,o),
(231,133,cs),
(231,682,l),
(363,682,ls),
(425,682,o),
(515,666,o),
(515,514,cs),
(515,408,o),
(486,345,o),
(348,345,cs),
(225,345,l),
(225,315,l),
(348,315,ls),
(519,315,o),
(610,395,o),
(610,514,cs),
(610,680,o),
(485,710,o),
(324,710,cs),
(188,710,l),
(40,713,l),
(40,688,l),
(60,686,ls),
(129,678,o),
(146,676,o),
(146,577,cs),
(146,133,ls),
(146,34,o),
(129,32,o),
(60,24,cs),
(40,22,l),
(40,-3,l)
);
}
);
width = 635;
}
);
metricLeft = I;
unicode = 80;
},
{
color = 6;
glyphname = Thorn;
kernLeft = H;
kernRight = Thorn;
layers = (
{
anchors = (
{
name = bottom;
pos = (285,0);
},
{
name = top;
pos = (285,710);
}
);
layerId = "9372F035-DA38-4B54-966C-CEBA9B53DD02";
shapes = (
{
closed = 1;
nodes = (
(191,0,l),
(333,-3,l),
(333,22,l),
(313,24,ls),
(244,32,o),
(226,34,o),
(226,133,cs),
(226,577,ls),
(226,676,o),
(243,678,o),
(312,686,cs),
(332,688,l),
(332,713,l),
(187,710,l),
(40,713,l),
(40,688,l),
(60,686,ls),
(129,678,o),
(146,676,o),
(146,577,cs),
(146,133,ls),
(146,34,o),
(130,32,o),
(61,24,cs),
(41,22,l),
(41,-3,l)
);
},
{
closed = 1;
nodes = (
(298,179,ls),
(469,179,o),
(565,256,o),
(565,370,cs),
(565,539,o),
(420,556,o),
(313,556,cs),
(220,556,l),
(220,531,l),
(313,531,ls),
(426,531,o),
(465,490,o),
(465,370,cs),
(465,267,o),
(436,205,o),
(298,205,cs),
(221,205,l),
(221,179,l)
);
}
);
width = 555;
}
);
metricLeft = I;
metricRight = R;
unicode = 222;
},
{
color = 3;
glyphname = Q;
kernLeft = O;
kernRight = O;
layers = (
{
anchors = (
{
name = top;
pos = (410,710);
}
);
layerId = "9372F035-DA38-4B54-966C-CEBA9B53DD02";
shapes = (
{
closed = 1;
nodes = (
(743,-294,o),
(784,-233,o),
(794,-124,c),
(774,-124,l),
(763,-200,o),
(719,-221,o),
(674,-221,cs),
(623,-221,o),
(573,-187,o),
(524,-147,cs),
(470,-103,o),
(416,-65,o),
(331,-65,cs),
(318,-65,o),
(306,-65,o),
(284,-74,c),
(294,-79,l),
(482,8,l),
(423,6,l),
(242,-77,l),
(153,-77,o),
(89,-103,o),
(89,-152,cs),
(89,-174,o),
(101,-185,o),
(118,-185,cs),
(140,-185,o),
(161,-170,o),
(180,-151,cs),
(199,-132,o),
(221,-116,o),
(247,-100,c),
(324,-104,o),
(382,-138,o),
(459,-202,cs),
(505,-240,o),
(558,-294,o),
(653,-294,cs)
);
},
{
ref = O;
}
);
width = 804;
}
);
metricLeft = O;
unicode = 81;
},
{
color = 6;
glyphname = R;
kernLeft = H;
kernRight = R;
layers = (
{
anchors = (
{
name = bottom;
pos = (401,0);
},
{
name = top;
pos = (313,710);
}
);
layerId = "9372F035-DA38-4B54-966C-CEBA9B53DD02";
shapes = (
{
closed = 1;
nodes = (
(644,-11,o),
(684,1,o),
(705,12,c),
(698,37,l),
(687,31,o),
(673,25,o),
(658,25,cs),
(624,25,o),
(589,56,o),
(572,169,cs),
(553,293,o),
(482,354,o),
(374,354,c),
(373,351,l),
(482,362,o),
(583,408,o),
(583,535,cs),
(583,670,o),
(463,710,o),
(328,710,cs),
(188,710,l),
(40,713,l),
(40,688,l),
(60,686,ls),
(129,678,o),
(146,676,o),
(146,577,cs),
(146,133,ls),
(146,34,o),
(129,32,o),
(60,24,cs),
(40,22,l),
(40,-3,l),
(188,0,l),
(189,0,l),
(337,-3,l),
(337,22,l),
(317,24,ls),
(248,32,o),
(231,34,o),
(231,133,cs),
(231,684,l),
(330,684,ls),
(447,684,o),
(488,627,o),
(488,529,cs),
(488,425,o),
(443,373,o),
(315,373,cs),
(225,373,l),
(225,346,l),
(274,346,ls),
(448,346,o),
(477,226,o),
(491,119,cs),
(501,45,o),
(533,-11,o),
(607,-11,cs)
);
}
);
width = 695;
}
);
metricLeft = I;
unicode = 82;
},
{
color = 6;
glyphname = S;
kernLeft = S;
kernRight = S;
layers = (
{
anchors = (
{
name = bottom;
pos = (313,0);
},
{
name = top;
pos = (285,710);
}
);
guides = (
{
angle = 90;
pos = (287,121);
}
);
layerId = "9372F035-DA38-4B54-966C-CEBA9B53DD02";
shapes = (
{
closed = 1;
nodes = (
(419,-11,o),
(506,68,o),
(506,187,cs),
(506,300,o),
(439,350,o),
(329,404,cs),
(288,424,ls),
(209,462,o),
(155,499,o),
(155,575,cs),
(155,646,o),
(208,696,o),
(287,696,cs),
(366,696,o),
(441,630,o),
(454,519,c),
(479,519,l),
(477,616,l),
(480,712,l),
(455,712,l),
(453,690,o),
(448,681,o),
(436,681,cs),
(425,681,o),
(413,685,o),
(395,694,cs),
(374,705,o),
(336,724,o),
(282,724,cs),
(164,724,o),
(80,649,o),
(80,543,cs),
(80,452,o),
(128,400,o),
(228,352,cs),
(270,332,ls),
(373,283,o),
(434,235,o),
(434,146,cs),
(434,56,o),
(370,18,o),
(309,18,cs),
(197,18,o),
(119,111,o),
(98,200,cs),
(87,247,l),
(62,247,l),
(65,118,l),
(60,0,l),
(85,0,l),
(88,15,ls),
(92,33,o),
(97,52,o),
(116,52,cs),
(130,52,o),
(148,44,o),
(178,28,cs),
(212,10,o),
(256,-11,o),
(309,-11,cs)
);
}
);
width = 561;
}
);
unicode = 83;
},
{
color = 6;
glyphname = Germandbls;
kernLeft = Germandbls;
kernRight = Germandbls;
layers = (
{
layerId = "9372F035-DA38-4B54-966C-CEBA9B53DD02";
shapes = (
{
closed = 1;
nodes = (
(618,677,l),
(564,701,o),
(486,721,o),
(409,721,cs),
(220,721,o),
(126,642,o),
(126,487,cs),
(126,133,ls),
(126,44,o),
(117,32,o),
(40,24,cs),
(20,22,l),
(20,-3,l),
(168,0,l),
(169,0,l),
(221,-1,l),
(211,133,l),
(211,487,ls),
(211,616,o),
(284,692,o),
(404,692,cs),
(465,692,o),
(516,672,o),
(545,634,c),
(570,661,l),
(470,624,o),
(398,560,o),
(398,477,cs),
(398,414,o),
(439,368,o),
(513,322,cs),
(558,294,ls),
(611,261,o),
(640,217,o),
(640,154,cs),
(640,75,o),
(596,18,o),
(516,18,cs),
(429,18,o),
(378,72,o),
(355,150,cs),
(341,197,l),
(320,197,l),
(321,26,l),
(383,3,o),
(447,-11,o),
(500,-11,cs),
(628,-11,o),
(711,70,o),
(711,185,cs),
(711,271,o),
(669,331,o),
(598,375,cs),
(540,411,ls),
(493,441,o),
(470,468,o),
(470,511,cs),
(470,572,o),
(520,618,o),
(618,653,c)
);
}
);
width = 736;
}
);
unicode = 7838;
},
{
color = 6;
glyphname = T;
kernLeft = T;
kernRight = T;
layers = (
{
anchors = (
{
name = bottom;
pos = (374,0);
},
{
name = center;
pos = (371,355);
},
{
name = top;
pos = (377,710);
}
);
layerId = "9372F035-DA38-4B54-966C-CEBA9B53DD02";
shapes = (
{
closed = 1;
nodes = (
(374,0,l),
(537,-3,l),
(537,22,l),
(515,24,ls),
(434,32,o),
(414,34,o),
(414,133,cs),
(414,701,l),
(329,701,l),
(329,133,ls),
(329,34,o),
(309,32,o),
(228,24,cs),
(206,22,l),
(206,-3,l)
);
},
{
closed = 1;
nodes = (
(741,510,l),
(716,633,l),
(705,713,l),
(419,710,l),
(324,710,l),
(39,713,l),
(28,633,l),
(3,510,l),
(24,505,l),
(76,635,o),
(96,683,o),
(188,683,cs),
(562,683,ls),
(648,683,o),
(673,620,o),
(719,504,c)
);
}
);
width = 744;
}
);
unicode = 84;
},
{
color = 6;
glyphname = U;
kernLeft = U;
kernRight = U;
layers = (
{
anchors = (
{
name = bottom;
pos = (403,0);
},
{
name = ogonek;
pos = (519,0);
},
{
name = top;
pos = (409,710);
},
{
name = topright;
pos = (746,710);
}
);
layerId = "9372F035-DA38-4B54-966C-CEBA9B53DD02";
shapes = (
{
closed = 1;
nodes = (
(558,-11,o),
(639,74,o),
(639,229,cs),
(639,577,ls),
(639,676,o),
(656,678,o),
(725,686,cs),
(745,688,l),
(745,713,l),
(646,711,l),
(498,713,l),
(498,688,l),
(518,686,ls),
(587,678,o),
(604,676,o),
(604,577,cs),
(604,229,ls),
(604,101,o),
(547,22,o),
(413,22,cs),
(297,22,o),
(216,88,o),
(216,223,cs),
(216,577,ls),
(216,676,o),
(233,678,o),
(302,686,cs),
(322,688,l),
(322,713,l),
(174,710,l),
(173,710,l),
(25,713,l),
(25,688,l),
(45,686,ls),
(114,678,o),
(131,676,o),
(131,577,cs),
(131,223,ls),
(131,57,o),
(227,-11,o),
(394,-11,cs)
);
}
);
width = 750;
}
);
unicode = 85;
},
{
color = 6;
glyphname = V;
kernLeft = V;
kernRight = V;
layers = (
{
anchors = (
{
name = bottom;
pos = (373,0);
},
{
name = top;
pos = (409,710);
}
);
layerId = "9372F035-DA38-4B54-966C-CEBA9B53DD02";
shapes = (
{
closed = 1;
nodes = (
(388,-10,l),
(628,587,ls),
(651,644,o),
(674,673,o),
(725,684,cs),
(748,689,l),
(748,713,l),
(648,710,l),
(508,713,l),
(508,688,l),
(543,684,ls),
(580,680,o),
(603,666,o),
(603,634,cs),
(603,622,o),
(600,607,o),
(592,588,cs),
(385,75,l),
(412,75,l),
(196,587,ls),
(189,604,o),
(185,619,o),
(185,632,cs),
(185,665,o),
(211,681,o),
(253,685,cs),
(283,688,l),
(283,713,l),
(134,710,l),
(-15,713,l),
(-15,688,l),
(5,684,ls),
(54,674,o),
(77,648,o),
(94,607,cs),
(356,-10,l)
);
}
);
width = 733;
}
);
unicode = 86;
},
{
color = 6;
glyphname = W;
kernLeft = V;
kernRight = V;
layers = (
{
anchors = (
{
name = bottom;
pos = (522,0);
},
{
name = top;
pos = (544,710);
}
);
guides = (
{
pos = (259,687);
}
);
layerId = "9372F035-DA38-4B54-966C-CEBA9B53DD02";
shapes = (
{
closed = 1;
nodes = (
(327,-9,l),
(532,547,l),
(520,546,l),
(728,-9,l),
(760,-9,l),
(952,621,ls),
(963,658,o),
(996,676,o),
(1040,683,cs),
(1064,687,l),
(1064,713,l),
(958,710,l),
(826,713,l),
(826,687,l),
(859,683,ls),
(897,678,o),
(918,668,o),
(918,639,cs),
(918,631,o),
(916,621,o),
(913,610,cs),
(756,95,l),
(779,95,l),
(599,582,ls),
(592,600,o),
(589,616,o),
(589,629,cs),
(589,662,o),
(611,681,o),
(654,684,cs),
(692,687,l),
(690,713,l),
(653,711,ls),
(612,709,o),
(560,702,o),
(545,646,c),
(555,656,l),
(548,684,o),
(520,702,o),
(464,708,cs),
(422,713,l),
(418,687,l),
(458,681,ls),
(497,675,o),
(521,660,o),
(521,629,cs),
(521,621,o),
(519,611,o),
(515,599,cs),
(328,91,l),
(352,91,l),
(188,598,ls),
(183,612,o),
(181,623,o),
(181,633,cs),
(181,674,o),
(219,681,o),
(255,685,cs),
(283,688,l),
(283,713,l),
(135,710,l),
(-15,713,l),
(-15,688,l),
(8,683,ls),
(51,674,o),
(81,651,o),
(99,594,cs),
(295,-9,l)
);
}
);
width = 1049;
}
);
metricLeft = V;
metricRight = V;
unicode = 87;
},
{
color = 6;
glyphname = X;
kernLeft = X;
kernRight = X;
layers = (
{
anchors = (
{
name = bottom;
pos = (327,0);
},
{
name = top;
pos = (390,710);
}
);
guides = (
{
angle = 90;
pos = (-13,553);
},
{
angle = 90;
pos = (702,554);
}
);
layerId = "9372F035-DA38-4B54-966C-CEBA9B53DD02";
shapes = (
{
closed = 1;
nodes = (
(568,0,l),
(717,-3,l),
(717,22,l),
(687,27,ls),
(645,34,o),
(608,56,o),
(566,119,cs),
(260,577,ls),
(240,607,o),
(230,630,o),
(230,647,cs),
(230,668,o),
(247,679,o),
(282,683,cs),
(324,688,l),
(324,713,l),
(169,710,l),
(4,713,l),
(4,688,l),
(24,684,ls),
(75,674,o),
(104,664,o),
(150,594,cs),
(459,129,ls),
(476,103,o),
(485,81,o),
(485,64,cs),
(485,43,o),
(470,29,o),
(438,26,cs),
(397,22,l),
(397,-3,l)
);
},
{
closed = 1;
nodes = (
(114,0,l),
(238,-3,l),
(238,22,l),
(200,26,ls),
(178,28,o),
(166,42,o),
(166,62,cs),
(166,75,o),
(170,92,o),
(182,109,cs),
(339,328,l),
(318,354,l),
(152,126,ls),
(90,40,o),
(50,31,o),
(11,25,cs),
(-10,22,l),
(-10,-3,l)
);
},
{
closed = 1;
nodes = (
(539,583,ls),
(592,657,o),
(639,682,o),
(677,686,cs),
(698,688,l),
(698,713,l),
(582,710,l),
(450,713,l),
(450,688,l),
(483,684,ls),
(514,680,o),
(527,666,o),
(527,646,cs),
(527,633,o),
(521,617,o),
(509,600,cs),
(367,402,l),
(388,375,l)
);
}
);
width = 707;
}
);
unicode = 88;
},
{
color = 6;
glyphname = Y;
kernLeft = Y;
kernRight = Y;
layers = (
{
anchors = (
{
name = bottom;
pos = (325,0);
},
{
name = top;
pos = (375,710);
},
{
name = topleft;
pos = (-55,710);
}
);
layerId = "9372F035-DA38-4B54-966C-CEBA9B53DD02";
shapes = (
{
closed = 1;
nodes = (
(336,0,l),
(337,0,l),
(485,-3,l),
(485,22,l),
(465,24,ls),
(396,32,o),
(379,34,o),
(379,133,cs),
(379,288,l),
(561,606,ls),
(589,655,o),
(612,675,o),
(655,683,cs),
(682,688,l),
(682,713,l),
(576,708,l),
(444,713,l),
(444,688,l),
(473,685,ls),
(506,682,o),
(530,672,o),
(530,644,cs),
(530,629,o),
(523,609,o),
(508,582,cs),
(345,297,l),
(381,297,l),
(217,582,ls),
(202,608,o),
(195,628,o),
(195,643,cs),
(195,670,o),
(217,682,o),
(250,685,cs),
(282,688,l),
(282,713,l),
(132,710,l),
(-20,713,l),
(-20,688,l),
(9,682,ls),
(63,671,o),
(88,647,o),
(119,593,cs),
(294,287,l),
(294,133,ls),
(294,34,o),
(277,32,o),
(208,24,cs),
(188,22,l),
(188,-3,l)
);
}
);
width = 662;
}
);
unicode = 89;
},
{
color = 6;
glyphname = Z;
kernLeft = H;
kernRight = H;
layers = (
{
anchors = (
{
name = bottom;
pos = (309,0);
},
{
name = top;
pos = (309,710);
}
);
layerId = "9372F035-DA38-4B54-966C-CEBA9B53DD02";
shapes = (
{
closed = 1;
nodes = (
(589,100,l),
(599,267,l),
(575,267,l),
(554,115,o),
(529,33,o),
(378,32,cs),
(103,30,l),
(116,4,l),
(585,679,l),
(585,713,l),
(361,710,l),
(66,712,l),
(64,659,l),
(53,526,l),
(77,526,l),
(93,640,o),
(107,676,o),
(289,678,cs),
(516,680,l),
(503,706,l),
(30,26,l),
(30,0,l),
(383,0,l),
(589,-3,l)
);
}
);
width = 639;
}
);
unicode = 90;
},
{
color = 6;
glyphname = a;
kernLeft = a;
kernRight = a;
layers = (
{
anchors = (
{
name = bottom;
pos = (169,0);
},
{
name = ogonek;
pos = (459,0);
},
{
name = top;
pos = (241,433);
}
);
layerId = "9372F035-DA38-4B54-966C-CEBA9B53DD02";
shapes = (
{
closed = 1;
nodes = (
(453,-11,o),
(479,13,o),
(490,52,c),
(472,59,l),
(466,41,o),
(451,24,o),
(431,24,cs),
(400,24,o),
(395,57,o),
(395,116,cs),
(395,296,ls),
(395,408,o),
(348,454,o),
(241,454,cs),
(166,454,o),
(69,427,o),
(69,356,cs),
(69,331,o),
(87,310,o),
(111,310,cs),
(136,310,o),
(157,325,o),
(157,350,cs),
(157,360,o),
(155,369,o),
(152,377,cs),
(150,383,o),
(148,390,o),
(148,396,cs),
(148,421,o),
(191,429,o),
(227,429,cs),
(303,429,o),
(325,393,o),
(325,320,cs),
(325,104,ls),
(325,36,o),
(339,-11,o),
(405,-11,cs)
);
},
{
closed = 1;
nodes = (
(234,-11,o),
(299,27,o),
(334,97,c),
(328,130,l),
(312,79,o),
(254,26,o),
(193,26,cs),
(150,26,o),
(128,50,o),
(128,87,cs),
(128,170,o),
(241,233,o),
(330,270,c),
(329,289,l),
(291,275,o),
(234,253,o),
(180,223,cs),
(111,185,o),
(50,141,o),
(50,82,cs),
(50,23,o),
(97,-11,o),
(161,-11,cs)
);
}
);
width = 490;
}
);
unicode = 97;
},
{
color = 6;
glyphname = ae;
kernLeft = a;
kernRight = o;
layers = (
{
layerId = "9372F035-DA38-4B54-966C-CEBA9B53DD02";
shapes = (
{
closed = 1;
nodes = (
(624,-11,o),
(683,31,o),
(711,117,c),
(687,124,l),
(661,55,o),
(609,21,o),
(550,21,cs),
(454,21,o),
(395,105,o),
(395,222,cs),
(395,245,ls),
(395,345,o),
(452,429,o),
(538,429,cs),
(585,429,o),
(636,393,o),
(636,335,cs),
(636,305,o),
(617,268,o),
(524,268,cs),
(392,268,l),
(390,245,l),
(697,245,l),
(699,251,o),
(702,262,o),
(702,275,cs),
(702,383,o),
(638,454,o),
(538,454,cs),
(457,454,o),
(402,413,o),
(370,364,c),
(387,363,l),
(372,412,o),
(335,454,o),
(243,454,cs),
(166,454,o),
(69,424,o),
(69,353,cs),
(69,328,o),
(87,310,o),
(110,310,cs),
(136,310,o),
(157,325,o),
(157,350,cs),
(157,360,o),
(155,369,o),
(152,377,c),
(150,383,o),
(148,390,o),
(148,396,cs),
(148,421,o),
(202,429,o),
(238,429,cs),
(317,429,o),
(325,373,o),
(325,306,cs),
(325,114,l),
(363,42,o),
(435,-11,o),
(536,-11,cs)
);
},
{
closed = 1;
nodes = (
(233,-11,o),
(303,31,o),
(343,103,c),
(328,130,l),
(313,78,o),
(249,24,o),
(199,24,cs),
(159,24,o),
(128,49,o),
(128,87,cs),
(128,170,o),
(241,233,o),
(330,270,c),
(329,289,l),
(243,257,o),
(50,180,o),
(50,83,cs),
(50,18,o),
(100,-11,o),
(169,-11,cs)
);
}
);
width = 756;
}
);
metricLeft = a;
metricRight = o;
unicode = 230;
},
{
color = 6;
glyphname = b;
kernLeft = b;
kernRight = o;
layers = (
{
anchors = (
{
name = bottom;
pos = (274,0);
},
{
name = top;
pos = (299,433);
}
);
layerId = "9372F035-DA38-4B54-966C-CEBA9B53DD02";
shapes = (
{
closed = 1;
nodes = (
(422,-11,o),
(510,91,o),
(510,220,cs),
(510,351,o),
(422,454,o),
(307,454,cs),
(239,454,o),
(185,418,o),
(148,367,c),
(162,350,l),
(193,390,o),
(236,424,o),
(297,424,cs),
(386,424,o),
(430,336,o),
(430,220,cs),
(430,106,o),
(386,19,o),
(294,19,cs),
(232,19,o),
(178,62,o),
(161,99,c),
(152,65,l),
(179,28,o),
(236,-11,o),
(303,-11,cs)
);
},
{
closed = 1;
nodes = (
(114,-11,l),
(175,57,l),
(168,80,l),
(168,644,l),
(98,644,l),
(98,-11,l)
);
},
{
closed = 1;
nodes = (
(168,624,l),
(168,725,l),
(113,715,o),
(65,713,o),
(10,713,c),
(10,690,l),
(17,690,ls),
(67,690,o),
(98,678,o),
(98,609,c)
);
}
);
width = 555;
}
);
metricRight = o;
unicode = 98;
},
{
color = 6;
glyphname = c;
kernLeft = o;
kernRight = o;
layers = (
{
anchors = (
{
name = bottom;
pos = (260,0);
},
{
name = top;
pos = (262,433);
}
);
layerId = "9372F035-DA38-4B54-966C-CEBA9B53DD02";
shapes = (
{
closed = 1;
nodes = (
(342,-11,o),
(415,23,o),
(440,115,c),
(416,123,l),
(393,47,o),
(337,19,o),
(281,19,cs),
(179,19,o),
(125,110,o),
(125,216,cs),
(125,344,o),
(186,429,o),
(279,429,cs),
(299,429,o),
(335,424,o),
(335,406,cs),
(335,398,o),
(333,391,o),
(331,384,cs),
(329,377,o),
(327,369,o),
(327,359,cs),
(327,339,o),
(344,314,o),
(379,314,cs),
(405,314,o),
(427,335,o),
(427,365,cs),
(427,423,o),
(344,454,o),
(280,454,cs),
(146,454,o),
(45,351,o),
(45,211,cs),
(45,83,o),
(131,-11,o),
(266,-11,cs)
);
}
);
width = 470;
}
);
metricLeft = o;
unicode = 99;
},
{
color = 6;
glyphname = d;
kernLeft = o;
kernRight = l;
layers = (
{
anchors = (
{
name = bottom;
pos = (283,0);
},
{
name = center;
pos = (385,567);
},
{
name = top;
pos = (283,433);
},
{
name = topright;
pos = (485,710);
}
);
layerId = "9372F035-DA38-4B54-966C-CEBA9B53DD02";
shapes = (
{
closed = 1;
nodes = (
(316,-11,o),
(370,25,o),
(407,76,c),
(393,93,l),
(362,53,o),
(319,19,o),
(258,19,cs),
(169,19,o),
(125,107,o),
(125,223,cs),
(125,337,o),
(169,424,o),
(261,424,cs),
(323,424,o),
(377,381,o),
(394,344,c),
(403,378,l),
(376,415,o),
(319,454,o),
(252,454,cs),
(133,454,o),
(45,352,o),
(45,223,cs),
(45,92,o),
(133,-11,o),
(248,-11,cs)
);
},
{
closed = 1;
nodes = (
(444,-1,o),
(469,0,o),
(499,0,cs),
(540,0,l),
(540,23,l),
(486,23,o),
(457,34,o),
(457,109,cs),
(457,634,l),
(387,634,l),
(387,83,l),
(395,70,l),
(409,-8,l)
);
},
{
closed = 1;
nodes = (
(457,624,l),
(457,725,l),
(402,715,o),
(354,713,o),
(299,713,c),
(299,690,l),
(306,690,ls),
(356,690,o),
(387,678,o),
(387,609,c)
);
}
);
width = 545;
}
);
metricLeft = o;
unicode = 100;
},
{
color = 6;
glyphname = eth;
kernLeft = o;
kernRight = O;
layers = (
{
anchors = (
{
name = bottom;
pos = (275,0);
},
{
name = center;
pos = (275,218);
},
{
name = ogonek;
pos = (494,10);
},
{
name = top;
pos = (275,429);
}
);
layerId = "9372F035-DA38-4B54-966C-CEBA9B53DD02";
shapes = (
{
closed = 1;
nodes = (
(404,-11,o),
(505,92,o),
(505,237,cs),
(505,420,o),
(365,641,o),
(131,724,c),
(121,702,l),
(258,640,o),
(354,529,o),
(402,402,c),
(411,410,l),
(372,438,o),
(326,454,o),
(275,454,cs),
(146,454,o),
(45,351,o),
(45,220,cs),
(45,92,o),
(146,-11,o),
(275,-11,cs)
);
},
{
closed = 1;
nodes = (
(167,14,o),
(125,104,o),
(125,220,cs),
(125,339,o),
(167,429,o),
(275,429,cs),
(383,429,o),
(425,339,o),
(425,220,cs),
(425,104,o),
(383,14,o),
(275,14,cs)
);
},
{
closed = 1;
nodes = (
(419,661,l),
(410,684,l),
(130,578,l),
(138,555,l)
);
}
);
width = 550;
}
);
metricLeft = o;
metricRight = o;
unicode = 240;
},
{
color = 6;
glyphname = e;
kernLeft = o;
kernRight = o;
layers = (
{
anchors = (
{
name = bottom;
pos = (269,0);
},
{
name = ogonek;
pos = (372,0);
},
{
name = top;
pos = (266,436);
}
);
layerId = "9372F035-DA38-4B54-966C-CEBA9B53DD02";
shapes = (
{
closed = 1;
nodes = (
(355,-11,o),
(414,31,o),
(442,115,c),
(418,124,l),
(391,54,o),
(340,19,o),
(278,19,cs),
(177,19,o),
(125,110,o),
(125,217,cs),
(125,342,o),
(171,429,o),
(267,429,cs),
(316,429,o),
(364,393,o),
(364,335,cs),
(364,305,o),
(345,268,o),
(255,268,cs),
(123,268,l),
(121,245,l),
(428,245,l),
(429,249,o),
(431,260,o),
(431,276,cs),
(431,382,o),
(369,454,o),
(267,454,cs),
(145,454,o),
(45,351,o),
(45,212,cs),
(45,81,o),
(132,-11,o),
(264,-11,cs)
);
}
);
width = 477;
}
);
metricLeft = o;
unicode = 101;
},
{
color = 6;
glyphname = f;
kernLeft = l;
kernRight = f;
layers = (
{
layerId = "9372F035-DA38-4B54-966C-CEBA9B53DD02";
shapes = (
{
closed = 1;
nodes = (
(148,0,l),
(271,-3,l),
(271,20,l),
(255,22,ls),
(197,29,o),
(183,31,o),
(183,121,cs),
(183,550,ls),
(183,632,o),
(197,699,o),
(273,699,cs),
(290,699,o),
(308,692,o),
(308,675,cs),
(308,671,o),
(307,667,o),
(305,662,cs),
(302,654,o),
(299,645,o),
(299,632,cs),
(299,611,o),
(318,590,o),
(343,590,cs),
(370,590,o),
(392,608,o),
(392,643,cs),
(392,696,o),
(341,724,o),
(273,724,cs),
(168,724,o),
(113,672,o),
(113,550,cs),
(113,121,ls),
(113,31,o),
(99,29,o),
(41,22,cs),
(25,20,l),
(25,-3,l)
);
},
{
closed = 1;
nodes = (
(119,411,l),
(119,436,l),
(27,436,l),
(27,411,l)
);
},
{
closed = 1;
nodes = (
(286,411,l),
(286,436,l),
(177,436,l),
(177,411,l)
);
}
);
width = 339;
}
);
unicode = 102;
},
{
color = 6;
glyphname = g;
kernLeft = g;
kernRight = g;
layers = (
{
anchors = (
{
name = top;
pos = (251,436);
}
);
guides = (
{
angle = 90;
pos = (252,323);
}
);
layerId = "9372F035-DA38-4B54-966C-CEBA9B53DD02";
shapes = (
{
closed = 1;
nodes = (
(375,-294,o),
(488,-230,o),
(488,-116,cs),
(488,7,o),
(387,24,o),
(262,30,cs),
(218,32,ls),
(162,35,o),
(112,41,o),
(112,83,cs),
(112,118,o),
(156,137,o),
(196,144,c),
(165,156,l),
(109,143,o),
(52,101,o),
(52,46,cs),
(52,-28,o),
(134,-39,o),
(195,-42,cs),
(297,-47,ls),
(396,-52,o),
(442,-77,o),
(442,-137,cs),
(442,-223,o),
(354,-269,o),
(252,-269,cs),
(160,-269,o),
(82,-245,o),
(82,-176,cs),
(82,-142,o),
(107,-133,o),
(107,-99,cs),
(107,-74,o),
(88,-61,o),
(66,-61,cs),
(32,-61,o),
(10,-93,o),
(10,-135,cs),
(10,-245,o),
(127,-294,o),
(252,-294,cs)
);
},
{
closed = 1;
nodes = (
(356,132,o),
(437,203,o),
(437,293,cs),
(437,383,o),
(355,454,o),
(252,454,cs),
(148,454,o),
(67,384,o),
(67,293,cs),
(67,201,o),
(150,132,o),
(252,132,cs)
);
},
{
closed = 1;
nodes = (
(174,157,o),
(144,216,o),
(144,293,cs),
(144,370,o),
(174,429,o),
(252,429,cs),
(330,429,o),
(360,370,o),
(360,293,cs),
(360,216,o),
(330,157,o),
(252,157,cs)
);
},
{
closed = 1;
nodes = (
(524,378,o),
(546,394,o),
(546,422,cs),
(546,456,o),
(511,479,o),
(470,479,cs),
(428,479,o),
(384,462,o),
(356,420,c),
(375,407,l),
(387,427,o),
(407,448,o),
(430,448,cs),
(447,448,o),
(455,436,o),
(458,420,cs),
(463,394,o),
(480,378,o),
(503,378,cs)
);
}
);
width = 554;
}
);
unicode = 103;
},
{
color = 6;
glyphname = h;
kernLeft = l;
kernRight = n;
layers = (
{
anchors = (
{
name = bottom;
pos = (289,0);
},
{
name = center;
pos = (142,567);
},
{
name = top;
pos = (341,710);
}
);
layerId = "9372F035-DA38-4B54-966C-CEBA9B53DD02";
shapes = (
{
closed = 1;
nodes = (
(138,0,l),
(261,-3,l),
(261,20,l),
(245,22,ls),
(187,29,o),
(173,31,o),
(173,121,cs),
(173,640,l),
(103,640,l),
(103,121,ls),
(103,31,o),
(89,29,o),
(31,22,cs),
(15,20,l),
(15,-3,l)
);
},
{
closed = 1;
nodes = (
(448,0,l),
(571,-3,l),
(571,20,l),
(555,22,ls),
(497,29,o),
(483,31,o),
(483,121,cs),
(483,321,ls),
(483,406,o),
(427,454,o),
(336,454,cs),
(232,454,o),
(161,373,o),
(150,315,c),
(171,315,l),
(186,360,o),
(238,424,o),
(314,424,cs),
(377,424,o),
(413,388,o),
(413,321,cs),
(413,121,ls),
(413,31,o),
(399,29,o),
(341,22,cs),
(325,20,l),
(325,-3,l)
);
},
{
closed = 1;
nodes = (
(173,624,l),
(173,725,l),
(118,715,o),
(70,713,o),
(15,713,c),
(15,690,l),
(22,690,ls),
(72,690,o),
(103,678,o),
(103,609,c)
);
}
);
width = 582;
}
);
metricLeft = l;
metricRight = n;
unicode = 104;
},
{
color = 6;
glyphname = idotless;
kernLeft = n;
kernRight = u;
layers = (
{
anchors = (
{
name = bottom;
pos = (149,0);
},
{
name = ogonek;
pos = (172,0);
},
{
name = top;
pos = (142,436);
}
);
hints = (
{
horizontal = 1;
place = (-3,24);
type = Stem;
},
{
origin = (0,9);
target = (0,6);
type = Stem;
}
);
layerId = "9372F035-DA38-4B54-966C-CEBA9B53DD02";
shapes = (
{
closed = 1;
nodes = (
(151,0,l),
(274,-3,l),
(274,20,l),
(258,22,ls),
(200,29,o),
(186,31,o),
(186,121,cs),
(186,375,l),
(116,375,l),
(116,121,ls),
(116,31,o),
(102,29,o),
(44,22,cs),
(28,20,l),
(28,-3,l)
);
},
{
closed = 1;
nodes = (
(186,347,l),
(186,448,l),
(131,438,o),
(83,436,o),
(28,436,c),
(28,413,l),
(35,413,ls),
(85,413,o),
(116,401,o),
(116,332,c)
);
}
);
width = 299;
}
);
unicode = 305;
},
{
color = 6;
glyphname = jdotless;
kernLeft = n;
kernRight = u;
layers = (
{
anchors = (
{
name = bottom;
pos = (146,0);
},
{
name = top;
pos = (149,430);
}
);
layerId = "9372F035-DA38-4B54-966C-CEBA9B53DD02";
shapes = (
{
closed = 1;
nodes = (
(131,-294,o),
(189,-237,o),
(189,-152,cs),
(189,451,l),
(134,441,o),
(86,436,o),
(31,436,c),
(31,413,l),
(85,413,o),
(119,407,o),
(119,335,cs),
(119,-152,ls),
(119,-205,o),
(114,-273,o),
(69,-273,cs),
(54,-273,o),
(41,-264,o),
(41,-246,cs),
(41,-240,o),
(42,-235,o),
(45,-226,cs),
(47,-220,o),
(49,-213,o),
(49,-207,cs),
(49,-189,o),
(36,-167,o),
(6,-167,cs),
(-29,-167,o),
(-47,-193,o),
(-47,-223,cs),
(-47,-266,o),
(-11,-294,o),
(52,-294,cs)
);
}
);
width = 276;
}
);
unicode = 567;
},
{
color = 6;
glyphname = k;
kernLeft = l;
kernRight = k;
layers = (
{
anchors = (
{
name = bottom;
pos = (322,0);
},
{
name = top;
pos = (250,436);
}
);
layerId = "9372F035-DA38-4B54-966C-CEBA9B53DD02";
shapes = (
{
closed = 1;
nodes = (
(138,0,l),
(261,-3,l),
(261,20,l),
(245,22,ls),
(187,29,o),
(173,31,o),
(173,121,cs),
(173,644,l),
(103,644,l),
(103,121,ls),
(103,31,o),
(89,29,o),
(31,22,cs),
(15,20,l),
(15,-3,l)
);
},
{
closed = 1;
nodes = (
(524,20,l),
(508,22,l),
(484,24,o),
(459,53,o),
(439,76,cs),
(257,280,l),
(212,226,l),
(413,0,l),
(524,-3,l)
);
},
{
closed = 1;
nodes = (
(327,335,ls),
(360,375,o),
(398,405,o),
(458,413,cs),
(474,415,l),
(474,438,l),
(390,436,l),
(294,438,l),
(294,415,l),
(310,413,ls),
(327,411,o),
(334,405,o),
(334,395,cs),
(334,388,o),
(330,378,o),
(321,367,cs),
(168,184,l),
(168,146,l)
);
},
{
closed = 1;
nodes = (
(173,624,l),
(173,725,l),
(118,715,o),
(70,713,o),
(15,713,c),
(15,690,l),
(22,690,ls),
(72,690,o),
(103,678,o),
(103,609,c)
);
}
);
width = 524;
}
);
metricLeft = l;
unicode = 107;
},
{
color = 6;
glyphname = l;
kernLeft = l;
kernRight = l;
layers = (
{
anchors = (
{
name = bottom;
pos = (135,0);
},
{
name = center;
pos = (135,386);
},
{
name = top;
pos = (137,710);
},
{
name = topright;
pos = (212,710);
}
);
layerId = "9372F035-DA38-4B54-966C-CEBA9B53DD02";
shapes = (
{
closed = 1;
nodes = (
(138,0,l),
(261,-3,l),
(261,20,l),
(245,22,ls),
(187,29,o),
(173,31,o),
(173,121,cs),
(173,644,l),
(103,644,l),
(103,121,ls),
(103,31,o),
(89,29,o),
(31,22,cs),
(15,20,l),
(15,-3,l)
);
},
{
closed = 1;
nodes = (
(173,624,l),
(173,725,l),
(118,715,o),
(70,713,o),
(15,713,c),
(15,690,l),
(22,690,ls),
(72,690,o),
(103,678,o),
(103,609,c)
);
}
);
width = 276;
}
);
unicode = 108;
},
{
color = 6;
glyphname = m;
kernLeft = n;
kernRight = n;
layers = (
{
anchors = (
{
name = top;
pos = (486,436);
}
);
layerId = "9372F035-DA38-4B54-966C-CEBA9B53DD02";
shapes = (
{
closed = 1;
nodes = (
(741,0,l),
(863,-3,l),
(863,20,l),
(847,22,ls),
(788,29,o),
(776,33,o),
(776,121,cs),
(776,312,ls),
(776,410,o),
(720,454,o),
(634,454,cs),
(537,454,o),
(469,378,o),
(459,315,c),
(479,315,l),
(493,362,o),
(540,424,o),
(614,424,cs),
(672,424,o),
(706,388,o),
(706,329,cs),
(706,121,ls),
(706,31,o),
(694,28,o),
(644,22,cs),
(628,20,l),
(628,-3,l)
);
},
{
closed = 1;
nodes = (
(151,0,l),
(264,-3,l),
(264,20,l),
(248,22,ls),
(198,29,o),
(186,31,o),
(186,121,cs),
(186,375,l),
(116,375,l),
(116,121,ls),
(116,31,o),
(102,29,o),
(44,22,cs),
(28,20,l),
(28,-3,l)
);
},
{
closed = 1;
nodes = (
(186,347,l),
(186,448,l),
(131,438,o),
(83,436,o),
(28,436,c),
(28,413,l),
(82,413,o),
(116,404,o),
(116,332,c)
);
},
{
closed = 1;
nodes = (
(446,0,l),
(559,-3,l),
(559,20,l),
(543,22,ls),
(493,29,o),
(481,31,o),
(481,121,cs),
(481,312,ls),
(481,410,o),
(425,454,o),
(339,454,cs),
(242,454,o),
(174,378,o),
(164,315,c),
(184,315,l),
(198,362,o),
(245,424,o),
(319,424,cs),
(377,424,o),
(411,388,o),
(411,329,cs),
(411,121,ls),
(411,31,o),
(399,29,o),
(349,22,cs),
(333,20,l),
(333,-3,l)
);
}
);
width = 874;
}
);
metricLeft = n;
metricRight = n;
unicode = 109;
},
{
color = 6;
glyphname = n;
kernLeft = n;
kernRight = n;
layers = (
{
anchors = (
{
name = bottom;
pos = (301,0);
},
{
name = top;
pos = (301,436);
}
);
layerId = "9372F035-DA38-4B54-966C-CEBA9B53DD02";
shapes = (
{
closed = 1;
nodes = (
(151,0,l),
(274,-3,l),
(274,20,l),
(258,22,ls),
(200,29,o),
(186,31,o),
(186,121,cs),
(186,375,l),
(116,375,l),
(116,121,ls),
(116,31,o),
(102,29,o),
(44,22,cs),
(28,20,l),
(28,-3,l)
);
},
{
closed = 1;
nodes = (
(186,347,l),
(186,448,l),
(131,438,o),
(83,436,o),
(28,436,c),
(28,413,l),
(35,413,ls),
(85,413,o),
(116,401,o),
(116,332,c)
);
},
{
closed = 1;
nodes = (
(461,0,l),
(584,-3,l),
(584,20,l),
(568,22,ls),
(510,29,o),
(496,31,o),
(496,121,cs),
(496,321,ls),
(496,406,o),
(440,454,o),
(349,454,cs),
(245,454,o),
(174,373,o),
(163,315,c),
(184,315,l),
(199,360,o),
(251,424,o),
(327,424,cs),
(390,424,o),
(426,388,o),
(426,321,cs),
(426,121,ls),
(426,31,o),
(412,29,o),
(354,22,cs),
(338,20,l),
(338,-3,l)
);
}
);
width = 595;
}
);
unicode = 110;
},
{
color = 3;
glyphname = eng;
kernLeft = n;
kernRight = n;
layers = (
{
anchors = (
{
name = top;
pos = (309,436);
}
);
layerId = "9372F035-DA38-4B54-966C-CEBA9B53DD02";
shapes = (
{
closed = 1;
nodes = (
(442,-294,o),
(500,-237,o),
(500,-152,cs),
(500,335,ls),
(500,406,o),
(460,454,o),
(365,454,cs),
(215,454,o),
(177,313,o),
(162,236,c),
(187,257,l),
(198,313,o),
(246,424,o),
(343,424,cs),
(406,424,o),
(430,388,o),
(430,330,cs),
(430,-152,ls),
(430,-205,o),
(425,-273,o),
(380,-273,cs),
(365,-273,o),
(356,-266,o),
(356,-251,cs),
(356,-236,o),
(360,-232,o),
(360,-217,cs),
(360,-194,o),
(342,-167,o),
(312,-167,cs),
(282,-167,o),
(264,-190,o),
(264,-223,cs),
(264,-269,o),
(300,-294,o),
(363,-294,cs)
);
},
{
pos = (7,0);
ref = idotless;
}
);
width = 595;
}
);
unicode = 331;
},
{
color = 6;
glyphname = o;
kernLeft = o;
kernRight = o;
layers = (
{
anchors = (
{
name = bottom;
pos = (275,0);
},
{
name = center;
pos = (275,218);
},
{
name = ogonek;
pos = (494,10);
},
{
name = top;
pos = (275,429);
}
);
guides = (
{
pos = (275,221);
},
{
angle = 90;
pos = (275,221);
}
);
layerId = "9372F035-DA38-4B54-966C-CEBA9B53DD02";
shapes = (
{
closed = 1;
nodes = (
(404,-11,o),
(505,92,o),
(505,220,cs),
(505,351,o),
(404,454,o),
(275,454,cs),
(146,454,o),
(45,351,o),
(45,220,cs),
(45,92,o),
(146,-11,o),
(275,-11,cs)
);
},
{
closed = 1;
nodes = (
(167,14,o),
(125,104,o),
(125,220,cs),
(125,339,o),
(167,429,o),
(275,429,cs),
(383,429,o),
(425,339,o),
(425,220,cs),
(425,104,o),
(383,14,o),
(275,14,cs)
);
}
);
width = 550;
}
);
unicode = 111;
},
{
color = 6;
glyphname = p;
kernLeft = p;
kernRight = o;
layers = (
{
anchors = (
{
name = bottom;
pos = (275,0);
},
{
name = top;
pos = (275,436);
}
);
layerId = "9372F035-DA38-4B54-966C-CEBA9B53DD02";
shapes = (
{
closed = 1;
nodes = (
(141,-280,l),
(264,-283,l),
(264,-260,l),
(248,-258,ls),
(190,-251,o),
(176,-249,o),
(176,-159,cs),
(176,367,l),
(169,382,l),
(176,451,l),
(121,441,o),
(73,436,o),
(18,436,c),
(18,413,l),
(72,413,o),
(106,407,o),
(106,335,cs),
(106,-159,ls),
(106,-249,o),
(92,-251,o),
(34,-258,cs),
(18,-260,l),
(18,-283,l)
);
},
{
closed = 1;
nodes = (
(430,-11,o),
(518,91,o),
(518,220,cs),
(518,351,o),
(430,454,o),
(315,454,cs),
(247,454,o),
(195,418,o),
(156,367,c),
(170,350,l),
(201,390,o),
(244,424,o),
(303,424,cs),
(394,424,o),
(438,336,o),
(438,220,cs),
(438,106,o),
(394,19,o),
(302,19,cs),
(240,19,o),
(186,62,o),
(169,99,c),
(160,65,l),
(187,28,o),
(244,-11,o),
(311,-11,cs)
);
}
);
width = 563;
}
);
metricLeft = "=n-10";
metricRight = o;
unicode = 112;
},
{
color = 6;
glyphname = thorn;
kernLeft = l;
kernRight = o;
layers = (
{
anchors = (
{
name = bottom;
pos = (300,0);
},
{
name = top;
pos = (300,436);
}
);
layerId = "9372F035-DA38-4B54-966C-CEBA9B53DD02";
shapes = (
{
closed = 1;
nodes = (
(148,-280,l),
(271,-283,l),
(271,-260,l),
(255,-258,ls),
(197,-251,o),
(183,-249,o),
(183,-159,cs),
(183,724,l),
(128,714,o),
(80,709,o),
(25,709,c),
(25,686,l),
(79,686,o),
(113,680,o),
(113,608,cs),
(113,-159,ls),
(113,-249,o),
(99,-251,o),
(41,-258,cs),
(25,-260,l),
(25,-283,l)
);
},
{
closed = 1;
nodes = (
(437,-11,o),
(525,91,o),
(525,220,cs),
(525,351,o),
(437,454,o),
(315,454,cs),
(257,454,o),
(209,429,o),
(177,387,c),
(177,348,l),
(207,396,o),
(254,429,o),
(315,429,cs),
(401,429,o),
(445,339,o),
(445,220,cs),
(445,106,o),
(401,19,o),
(315,19,cs),
(253,19,o),
(206,51,o),
(177,99,c),
(175,59,l),
(209,14,o),
(256,-11,o),
(315,-11,cs)
);
}
);
width = 600;
}
);
unicode = 254;
},
{
color = 6;
glyphname = q;
kernLeft = o;
kernRight = n;
layers = (
{
anchors = (
{
name = bottom;
pos = (277,0);
},
{
name = top;
pos = (277,436);
}
);
layerId = "9372F035-DA38-4B54-966C-CEBA9B53DD02";
shapes = (
{
closed = 1;
nodes = (
(422,-280,l),
(545,-283,l),
(545,-260,l),
(529,-258,ls),
(471,-251,o),
(457,-249,o),
(457,-159,cs),
(457,449,l),
(442,449,l),
(383,385,l),
(387,365,l),
(387,-159,ls),
(387,-249,o),
(373,-251,o),
(315,-258,cs),
(299,-260,l),
(299,-283,l)
);
},
{
closed = 1;
nodes = (
(316,-11,o),
(370,25,o),
(407,76,c),
(393,93,l),
(362,53,o),
(319,19,o),
(258,19,cs),
(169,19,o),
(125,107,o),
(125,223,cs),
(125,337,o),
(169,424,o),
(261,424,cs),
(323,424,o),
(377,381,o),
(394,344,c),
(403,378,l),
(376,415,o),
(319,454,o),
(252,454,cs),
(133,454,o),
(45,352,o),
(45,223,cs),
(45,92,o),
(133,-11,o),
(248,-11,cs)
);
}
);
width = 535;
}
);
metricLeft = o;
unicode = 113;
},
{
color = 6;
glyphname = r;
kernLeft = n;
kernRight = r;
layers = (
{
anchors = (
{
name = bottom;
pos = (149,0);
},
{
name = top;
pos = (189,436);
}
);
layerId = "9372F035-DA38-4B54-966C-CEBA9B53DD02";
shapes = (
{
closed = 1;
nodes = (
(151,0,l),
(274,-3,l),
(274,20,l),
(258,22,ls),
(200,29,o),
(186,31,o),
(186,121,cs),
(186,279,l),
(193,315,o),
(204,346,o),
(216,371,cs),
(231,401,o),
(253,420,o),
(272,420,cs),
(280,420,o),
(286,417,o),
(286,410,cs),
(286,403,o),
(281,390,o),
(281,377,cs),
(281,360,o),
(296,344,o),
(324,344,cs),
(353,344,o),
(372,365,o),
(372,394,cs),
(372,419,o),
(358,454,o),
(302,454,cs),
(253,454,o),
(208,422,o),
(179,333,c),
(175,333,l),
(116,382,l),
(116,121,ls),
(116,31,o),
(102,29,o),
(44,22,cs),
(28,20,l),
(28,-3,l)
);
},
{
closed = 1;
nodes = (
(175,333,l),
(186,448,l),
(131,440,o),
(83,436,o),
(28,436,c),
(28,413,l),
(82,413,o),
(116,407,o),
(116,329,c)
);
}
);
width = 392;
}
);
metricLeft = n;
unicode = 114;
},
{
color = 6;
glyphname = s;
kernLeft = s;
kernRight = s;
layers = (
{
anchors = (
{
name = bottom;
pos = (206,3);
},
{
name = top;
pos = (203,433);
}
);
layerId = "9372F035-DA38-4B54-966C-CEBA9B53DD02";
shapes = (
{
closed = 1;
nodes = (
(302,-11,o),
(352,51,o),
(352,122,cs),
(352,182,o),
(325,224,o),
(244,255,cs),
(205,270,ls),
(150,291,o),
(117,316,o),
(117,358,cs),
(117,401,o),
(151,432,o),
(195,432,cs),
(257,432,o),
(290,379,o),
(299,316,c),
(322,316,l),
(322,386,l),
(326,451,l),
(304,452,l),
(300,438,o),
(296,431,o),
(288,431,cs),
(284,431,o),
(279,432,o),
(271,436,cs),
(255,444,o),
(232,454,o),
(199,454,cs),
(129,454,o),
(66,404,o),
(66,325,cs),
(66,262,o),
(101,225,o),
(171,198,cs),
(207,184,ls),
(267,161,o),
(303,134,o),
(303,91,cs),
(303,42,o),
(266,12,o),
(212,12,cs),
(136,12,o),
(84,78,o),
(81,134,cs),
(80,151,l),
(58,151,l),
(55,66,l),
(51,0,l),
(74,0,l),
(78,19,o),
(80,21,o),
(86,21,cs),
(90,21,o),
(96,18,o),
(106,13,c),
(126,4,o),
(161,-11,o),
(212,-11,cs)
);
}
);
width = 393;
}
);
unicode = 115;
},
{
color = 6;
glyphname = germandbls;
kernLeft = l;
kernRight = B;
layers = (
{
layerId = "9372F035-DA38-4B54-966C-CEBA9B53DD02";
shapes = (
{
closed = 1;
nodes = (
(498,-11,o),
(573,70,o),
(573,140,cs),
(573,229,o),
(493,284,o),
(443,318,cs),
(387,356,o),
(354,396,o),
(354,426,cs),
(354,456,o),
(388,489,o),
(420,520,cs),
(447,546,o),
(471,574,o),
(471,608,cs),
(471,672,o),
(400,724,o),
(304,724,cs),
(190,724,o),
(113,675,o),
(113,498,cs),
(113,121,ls),
(113,31,o),
(99,29,o),
(41,22,cs),
(25,20,l),
(25,-3,l),
(148,0,l),
(194,0,l),
(187,33,o),
(184,65,o),
(184,121,cs),
(184,550,ls),
(184,632,o),
(211,699,o),
(290,699,cs),
(344,699,o),
(391,665,o),
(391,586,cs),
(391,538,o),
(359,493,o),
(335,469,cs),
(309,443,o),
(288,421,o),
(288,389,cs),
(288,344,o),
(340,302,o),
(386,271,cs),
(442,233,o),
(495,192,o),
(495,123,cs),
(495,65,o),
(458,14,o),
(391,14,cs),
(349,14,o),
(328,31,o),
(328,59,cs),
(328,66,o),
(329,74,o),
(331,83,c),
(333,90,o),
(335,101,o),
(335,107,cs),
(335,132,o),
(312,149,o),
(289,149,cs),
(259,149,o),
(241,126,o),
(241,93,cs),
(241,47,o),
(289,-11,o),
(401,-11,cs)
);
},
{
closed = 1;
nodes = (
(133,413,l),
(133,436,l),
(27,436,l),
(27,413,l)
);
}
);
width = 593;
}
);
metricLeft = f;
unicode = 223;
},
{
color = 6;
glyphname = t;
kernLeft = t;
kernRight = t;
layers = (
{
anchors = (
{
name = bottom;
pos = (198,0);
},
{
name = center;
pos = (168,306);
},
{
name = top;
pos = (157,521);
},
{
name = topright;
pos = (231,689);
}
);
layerId = "9372F035-DA38-4B54-966C-CEBA9B53DD02";
shapes = (
{
closed = 1;
nodes = (
(246,-11,o),
(275,-1,o),
(298,24,cs),
(309,36,o),
(321,53,o),
(329,73,c),
(307,84,l),
(290,49,o),
(270,23,o),
(236,23,cs),
(195,23,o),
(174,52,o),
(174,111,cs),
(174,411,l),
(302,411,l),
(302,436,l),
(174,436,l),
(174,557,l),
(148,557,l),
(139,484,o),
(112,442,o),
(57,438,cs),
(30,436,l),
(30,411,l),
(104,411,l),
(104,115,ls),
(104,25,o),
(149,-11,o),
(214,-11,cs)
);
}
);
width = 339;
}
);
unicode = 116;
},
{
color = 6;
glyphname = u;
kernLeft = u;
kernRight = n;
layers = (
{
anchors = (
{
name = bottom;
pos = (237,0);
},
{
name = ogonek;
pos = (430,0);
},
{
name = top;
pos = (260,434);
}
);
guides = (
{
angle = 90;
pos = (395,301);
}
);
layerId = "9372F035-DA38-4B54-966C-CEBA9B53DD02";
shapes = (
{
closed = 1;
nodes = (
(303,-11,o),
(352,16,o),
(387,55,cs),
(406,76,o),
(420,101,o),
(432,128,c),
(408,133,l),
(384,78,o),
(334,21,o),
(261,21,cs),
(204,21,o),
(168,56,o),
(168,122,cs),
(168,434,l),
(133,433,l),
(10,436,l),
(10,413,l),
(26,411,ls),
(84,404,o),
(98,402,o),
(98,312,cs),
(98,118,ls),
(98,33,o),
(151,-11,o),
(238,-11,cs)
);
},
{
closed = 1;
nodes = (
(466,1,o),
(506,1,o),
(561,1,c),
(561,24,l),
(507,24,o),
(478,35,o),
(478,111,cs),
(478,434,l),
(443,433,l),
(320,436,l),
(320,413,l),
(336,411,ls),
(394,404,o),
(408,402,o),
(408,312,cs),
(408,-9,l)
);
}
);
width = 571;
}
);
metricRight = i;
note = u;
unicode = 117;
},
{
color = 6;
glyphname = v;
kernLeft = v;
kernRight = v;
layers = (
{
anchors = (
{
name = bottom;
pos = (261,0);
},
{
name = top;
pos = (271,436);
}
);
layerId = "9372F035-DA38-4B54-966C-CEBA9B53DD02";
shapes = (
{
closed = 1;
nodes = (
(267,0,l),
(411,336,ls),
(431,383,o),
(446,405,o),
(484,410,cs),
(507,413,l),
(507,436,l),
(423,433,l),
(333,436,l),
(333,413,l),
(350,411,ls),
(382,407,o),
(396,398,o),
(396,379,cs),
(396,370,o),
(393,359,o),
(387,346,cs),
(270,72,l),
(144,350,ls),
(139,362,o),
(136,372,o),
(136,380,cs),
(136,397,o),
(146,407,o),
(176,411,cs),
(192,413,l),
(192,436,l),
(90,433,l),
(-13,436,l),
(-13,413,l),
(5,411,ls),
(40,407,o),
(54,386,o),
(66,360,cs),
(229,0,l)
);
}
);
width = 507;
}
);
unicode = 118;
},
{
color = 6;
glyphname = w;
kernLeft = v;
kernRight = v;
layers = (
{
anchors = (
{
name = bottom;
pos = (368,0);
},
{
name = top;
pos = (368,436);
}
);
layerId = "9372F035-DA38-4B54-966C-CEBA9B53DD02";
shapes = (
{
closed = 1;
nodes = (
(228,0,l),
(381,349,l),
(369,349,l),
(505,0,l),
(543,0,l),
(677,339,ls),
(691,373,o),
(705,405,o),
(752,411,cs),
(768,413,l),
(768,436,l),
(689,433,l),
(595,436,l),
(595,413,l),
(611,411,ls),
(644,407,o),
(660,397,o),
(660,375,cs),
(660,367,o),
(654,351,o),
(651,342,cs),
(535,49,l),
(558,49,l),
(443,344,ls),
(438,357,o),
(435,369,o),
(435,378,cs),
(435,396,o),
(445,410,o),
(469,412,cs),
(484,413,l),
(484,436,l),
(438,436,ls),
(411,436,o),
(368,425,o),
(371,390,c),
(379,393,l),
(370,419,o),
(349,436,o),
(319,436,cs),
(284,436,l),
(284,413,l),
(315,412,ls),
(342,411,o),
(356,396,o),
(356,369,cs),
(356,358,o),
(351,344,o),
(344,328,cs),
(220,48,l),
(244,47,l),
(136,346,ls),
(132,357,o),
(131,366,o),
(131,374,cs),
(131,397,o),
(147,409,o),
(181,412,cs),
(191,413,l),
(191,436,l),
(93,433,l),
(-13,436,l),
(-13,413,l),
(-2,412,ls),
(31,409,o),
(51,383,o),
(67,339,cs),
(190,0,l)
);
}
);
width = 768;
}
);
metricLeft = v;
metricRight = v;
unicode = 119;
},
{
color = 6;
glyphname = x;
kernLeft = x;
kernRight = x;
layers = (
{
layerId = "9372F035-DA38-4B54-966C-CEBA9B53DD02";
shapes = (
{
closed = 1;
nodes = (
(431,0,l),
(530,-2,l),
(530,20,l),
(519,22,ls),
(480,29,o),
(446,66,o),
(415,100,cs),
(188,350,ls),
(175,365,o),
(171,372,o),
(171,382,cs),
(171,401,o),
(203,408,o),
(212,410,cs),
(228,413,l),
(228,436,l),
(116,433,l),
(4,436,l),
(4,413,l),
(13,412,ls),
(41,409,o),
(57,394,o),
(89,359,cs),
(349,73,ls),
(359,62,o),
(362,52,o),
(362,45,cs),
(362,32,o),
(349,26,o),
(323,23,cs),
(307,21,l),
(307,-2,l)
);
},
{
closed = 1;
nodes = (
(97,0,l),
(191,-3,l),
(191,21,l),
(175,23,ls),
(150,26,o),
(140,38,o),
(140,52,cs),
(140,62,o),
(147,74,o),
(156,84,cs),
(249,191,l),
(233,208,l),
(142,105,ls),
(110,69,o),
(74,31,o),
(13,22,cs),
(0,20,l),
(0,-3,l)
);
},
{
closed = 1;
nodes = (
(379,329,ls),
(414,368,o),
(452,407,o),
(507,412,cs),
(518,413,l),
(518,436,l),
(442,433,l),
(326,436,l),
(326,413,l),
(332,412,ls),
(359,408,o),
(382,396,o),
(382,380,cs),
(382,371,o),
(378,361,o),
(368,350,cs),
(275,245,l),
(291,229,l)
);
}
);
width = 525;
}
);
unicode = 120;
},
{
color = 6;
glyphname = y;
kernLeft = v;
kernRight = y;
layers = (
{
anchors = (
{
name = bottom;
pos = (277,0);
},
{
name = top;
pos = (275,436);
}
);
layerId = "9372F035-DA38-4B54-966C-CEBA9B53DD02";
shapes = (
{
closed = 1;
nodes = (
(121,-294,o),
(166,-232,o),
(198,-163,cs),
(424,330,ls),
(443,372,o),
(459,404,o),
(508,411,cs),
(523,413,l),
(523,436,l),
(443,433,l),
(347,436,l),
(347,413,l),
(363,411,ls),
(397,407,o),
(412,398,o),
(412,378,cs),
(412,368,o),
(408,355,o),
(401,339,cs),
(173,-152,ls),
(145,-211,o),
(119,-224,o),
(95,-224,cs),
(79,-224,o),
(67,-215,o),
(58,-208,cs),
(49,-201,o),
(39,-194,o),
(21,-194,cs),
(-8,-194,o),
(-30,-215,o),
(-30,-241,cs),
(-30,-268,o),
(-8,-294,o),
(38,-294,cs)
);
},
{
closed = 1;
nodes = (
(284,52,l),
(151,344,ls),
(144,359,o),
(140,371,o),
(140,380,cs),
(140,398,o),
(152,407,o),
(182,411,cs),
(196,413,l),
(196,436,l),
(95,433,l),
(-9,436,l),
(-9,413,l),
(14,410,ls),
(47,406,o),
(59,384,o),
(73,354,cs),
(246,-26,l)
);
}
);
width = 523;
}
);
metricRight = v;
unicode = 121;
},
{
color = 6;
glyphname = z;
kernLeft = z;
kernRight = z;
layers = (
{
anchors = (
{
name = bottom;
pos = (243,0);
},
{
name = top;
pos = (243,436);
}
);
layerId = "9372F035-DA38-4B54-966C-CEBA9B53DD02";
shapes = (
{
closed = 1;
nodes = (
(413,0,l),
(414,53,l),
(426,158,l),
(403,158,l),
(388,43,o),
(321,25,o),
(232,25,cs),
(124,25,l),
(428,417,l),
(421,436,l),
(75,436,l),
(64,365,l),
(42,275,l),
(65,275,l),
(87,389,o),
(152,412,o),
(265,412,cs),
(376,412,l),
(349,426,l),
(35,20,l),
(42,0,l)
);
}
);
width = 466;
}
);
unicode = 122;
},
{
color = 6;
glyphname = f_b.liga;
kernLeft = f;
kernRight = o;
layers = (
{
anchors = (
{
name = bottom;
pos = (576,0);
},
{
name = top;
pos = (576,436);
}
);
layerId = "9372F035-DA38-4B54-966C-CEBA9B53DD02";
shapes = (
{
closed = 1;
nodes = (
(724,-11,o),
(812,91,o),
(812,220,cs),
(812,351,o),
(724,454,o),
(602,454,cs),
(545,454,o),
(501,430,o),
(470,389,c),
(470,644,l),
(400,644,l),
(400,0,l),
(420,0,l),
(470,50,l),
(470,52,l),
(502,14,o),
(547,-11,o),
(602,-11,cs)
);
},
{
closed = 1;
nodes = (
(544,19,o),
(499,47,o),
(470,90,c),
(470,356,l),
(499,400,o),
(544,429,o),
(602,429,cs),
(688,429,o),
(732,339,o),
(732,220,cs),
(732,106,o),
(688,19,o),
(602,19,cs)
);
},
{
closed = 1;
nodes = (
(148,0,l),
(265,-3,l),
(265,20,l),
(249,22,ls),
(198,28,o),
(183,31,o),
(183,121,cs),
(183,411,l),
(275,411,l),
(275,436,l),
(183,436,l),
(183,485,ls),
(183,611,o),
(203,699,o),
(307,699,cs),
(351,699,o),
(400,677,o),
(400,594,cs),
(400,140,l),
(470,140,l),
(470,725,l),
(406,694,l),
(384,712,o),
(347,724,o),
(308,724,cs),
(157,724,o),
(113,611,o),
(113,485,cs),
(113,436,l),
(27,436,l),
(27,411,l),
(113,411,l),
(113,121,ls),
(113,31,o),
(99,29,o),
(41,22,cs),
(25,20,l),
(25,-3,l)
);
}
);
width = 857;
}
);
metricLeft = f;
metricRight = b;
},
{
color = 3;
glyphname = f_f.liga;
kernLeft = f;
kernRight = f;
layers = (
{
layerId = "9372F035-DA38-4B54-966C-CEBA9B53DD02";
shapes = (
{
closed = 1;
nodes = (
(156,0,l),
(270,-3,l),
(270,20,l),
(254,22,ls),
(202,28,o),
(191,31,o),
(191,121,cs),
(191,411,l),
(346,411,l),
(346,436,l),
(191,436,l),
(191,470,ls),
(191,595,o),
(220,669,o),
(315,669,cs),
(401,669,o),
(426,590,o),
(434,527,c),
(466,635,l),
(439,680,o),
(364,693,o),
(323,693,cs),
(187,693,o),
(121,610,o),
(121,452,cs),
(121,436,l),
(25,436,l),
(25,411,l),
(121,411,l),
(121,121,ls),
(121,31,o),
(107,29,o),
(49,22,cs),
(33,20,l),
(33,-3,l)
);
},
{
alignment = -1;
pos = (295,0);
ref = f;
}
);
width = 634;
}
);
metricLeft = f;
metricRight = f;
},
{
color = 3;
glyphname = f_f_b.liga;
kernLeft = f;
kernRight = o;
layers = (
{
layerId = "9372F035-DA38-4B54-966C-CEBA9B53DD02";
shapes = (
{
closed = 1;
nodes = (
(156,0,l),
(270,-3,l),
(270,20,l),
(254,22,ls),
(202,28,o),
(191,31,o),
(191,121,cs),
(191,411,l),
(346,411,l),
(346,436,l),
(191,436,l),
(191,470,ls),
(191,595,o),
(220,669,o),
(315,669,cs),
(401,669,o),
(426,590,o),
(434,527,c),
(466,635,l),
(439,680,o),
(364,693,o),
(323,693,cs),
(187,693,o),
(121,610,o),
(121,452,cs),
(121,436,l),
(25,436,l),
(25,411,l),
(121,411,l),
(121,121,ls),
(121,31,o),
(107,29,o),
(49,22,cs),
(33,20,l),
(33,-3,l)
);
},
{
alignment = -1;
pos = (288,0);
ref = f_b.liga;
}
);
width = 1145;
}
);
metricLeft = f;
metricRight = b;
},
{
color = 3;
glyphname = f_f_h.liga;
kernLeft = f;
kernRight = n;
layers = (
{
layerId = "9372F035-DA38-4B54-966C-CEBA9B53DD02";
shapes = (
{
closed = 1;
nodes = (
(156,0,l),
(270,-3,l),
(270,20,l),
(254,22,ls),
(202,28,o),
(191,31,o),
(191,121,cs),
(191,411,l),
(346,411,l),
(346,436,l),
(191,436,l),
(191,470,ls),
(191,595,o),
(220,669,o),
(315,669,cs),
(401,669,o),
(426,590,o),
(434,527,c),
(466,635,l),
(439,680,o),
(364,693,o),
(323,693,cs),
(187,693,o),
(121,610,o),
(121,452,cs),
(121,436,l),
(25,436,l),
(25,411,l),
(121,411,l),
(121,121,ls),
(121,31,o),
(107,29,o),
(49,22,cs),
(33,20,l),
(33,-3,l)
);
},
{
alignment = -1;
pos = (283,0);
ref = f_h.liga;
}
);
width = 1162;
}
);
metricLeft = f;
metricRight = h;
},
{
color = 3;
glyphname = f_f_i.liga;
kernLeft = f;
kernRight = l;
layers = (
{
layerId = "9372F035-DA38-4B54-966C-CEBA9B53DD02";
shapes = (
{
closed = 1;
nodes = (
(156,0,l),
(270,-3,l),
(270,20,l),
(254,22,ls),
(202,28,o),
(191,31,o),
(191,121,cs),
(191,411,l),
(346,411,l),
(346,436,l),
(191,436,l),
(191,470,ls),
(191,595,o),
(220,669,o),
(315,669,cs),
(401,669,o),
(426,590,o),
(434,527,c),
(466,635,l),
(439,680,o),
(364,693,o),
(323,693,cs),
(187,693,o),
(121,610,o),
(121,452,cs),
(121,436,l),
(25,436,l),
(25,411,l),
(121,411,l),
(121,121,ls),
(121,31,o),
(107,29,o),
(49,22,cs),
(33,20,l),
(33,-3,l)
);
},
{
alignment = -1;
pos = (272,0);
ref = fi;
}
);
width = 839;
}
);
metricLeft = f;
metricRight = i;
},
{
color = 3;
glyphname = f_f_j.liga;
kernLeft = f;
kernRight = l;
layers = (
{
layerId = "9372F035-DA38-4B54-966C-CEBA9B53DD02";
shapes = (
{
closed = 1;
nodes = (
(156,0,l),
(270,-3,l),
(270,20,l),
(254,22,ls),
(202,28,o),
(191,31,o),
(191,121,cs),
(191,411,l),
(346,411,l),
(346,436,l),
(191,436,l),
(191,470,ls),
(191,595,o),
(220,669,o),
(315,669,cs),
(401,669,o),
(426,590,o),
(434,527,c),
(466,635,l),
(439,680,o),
(364,693,o),
(323,693,cs),
(187,693,o),
(121,610,o),
(121,452,cs),
(121,436,l),
(25,436,l),
(25,411,l),
(121,411,l),
(121,121,ls),
(121,31,o),
(107,29,o),
(49,22,cs),
(33,20,l),
(33,-3,l)
);
},
{
alignment = -1;
pos = (280,0);
ref = f_j.liga;
}
);
width = 824;
}
);
metricLeft = f;
metricRight = j;
},
{
color = 3;
glyphname = f_f_k.liga;
kernLeft = f;
kernRight = k;
layers = (
{
layerId = "9372F035-DA38-4B54-966C-CEBA9B53DD02";
shapes = (
{
closed = 1;
nodes = (
(156,0,l),
(270,-3,l),
(270,20,l),
(254,22,ls),
(202,28,o),
(191,31,o),
(191,121,cs),
(191,411,l),
(346,411,l),
(346,436,l),
(191,436,l),
(191,470,ls),
(191,595,o),
(220,669,o),
(315,669,cs),
(401,669,o),
(426,590,o),
(434,527,c),
(466,635,l),
(439,680,o),
(364,693,o),
(323,693,cs),
(187,693,o),
(121,610,o),
(121,452,cs),
(121,436,l),
(25,436,l),
(25,411,l),
(121,411,l),
(121,121,ls),
(121,31,o),
(107,29,o),
(49,22,cs),
(33,20,l),
(33,-3,l)
);
},
{
alignment = -1;
pos = (287,0);
ref = f_k.liga;
}
);
width = 1108;
}
);
metricLeft = f;
metricRight = k;
},
{
color = 3;
glyphname = f_f_l.liga;
kernLeft = f;
kernRight = l;
layers = (
{
layerId = "9372F035-DA38-4B54-966C-CEBA9B53DD02";
shapes = (
{
closed = 1;
nodes = (
(156,0,l),
(270,-3,l),
(270,20,l),
(254,22,ls),
(202,28,o),
(191,31,o),
(191,121,cs),
(191,411,l),
(346,411,l),
(346,436,l),
(191,436,l),
(191,470,ls),
(191,595,o),
(220,669,o),
(315,669,cs),
(401,669,o),
(426,590,o),
(434,527,c),
(466,635,l),
(439,680,o),
(364,693,o),
(323,693,cs),
(187,693,o),
(121,610,o),
(121,452,cs),
(121,436,l),
(25,436,l),
(25,411,l),
(121,411,l),
(121,121,ls),
(121,31,o),
(107,29,o),
(49,22,cs),
(33,20,l),
(33,-3,l)
);
},
{
alignment = -1;
pos = (283,0);
ref = fl;
}
);
width = 856;
}
);
metricLeft = f;
metricRight = l;
},
{
color = 6;
glyphname = f_h.liga;
kernLeft = f;
kernRight = n;
layers = (
{
layerId = "9372F035-DA38-4B54-966C-CEBA9B53DD02";
shapes = (
{
closed = 1;
nodes = (
(433,0,l),
(435,0,l),
(558,-3,l),
(558,20,l),
(542,22,ls),
(484,29,o),
(470,31,o),
(470,121,cs),
(470,640,l),
(400,640,l),
(400,121,ls),
(400,31,o),
(387,29,o),
(333,22,cs),
(318,20,l),
(318,-3,l)
);
},
{
closed = 1;
nodes = (
(148,0,l),
(265,-3,l),
(265,20,l),
(249,22,ls),
(198,28,o),
(183,31,o),
(183,121,cs),
(183,411,l),
(275,411,l),
(275,436,l),
(183,436,l),
(183,485,ls),
(183,611,o),
(203,699,o),
(307,699,cs),
(351,699,o),
(400,677,o),
(400,594,cs),
(400,140,l),
(470,140,l),
(470,725,l),
(406,694,l),
(384,712,o),
(347,724,o),
(308,724,cs),
(157,724,o),
(113,611,o),
(113,485,cs),
(113,436,l),
(27,436,l),
(27,411,l),
(113,411,l),
(113,121,ls),
(113,31,o),
(99,29,o),
(41,22,cs),
(25,20,l),
(25,-3,l)
);
},
{
closed = 1;
nodes = (
(745,0,l),
(868,-3,l),
(868,20,l),
(852,22,ls),
(794,29,o),
(780,31,o),
(780,121,cs),
(780,321,ls),
(780,406,o),
(724,454,o),
(633,454,cs),
(529,454,o),
(458,373,o),
(447,315,c),
(468,315,l),
(483,360,o),
(535,424,o),
(611,424,cs),
(674,424,o),
(710,388,o),
(710,321,cs),
(710,121,ls),
(710,31,o),
(696,29,o),
(638,22,cs),
(622,20,l),
(622,-3,l)
);
}
);
width = 879;
}
);
metricLeft = f;
metricRight = h;
},
{
color = 3;
glyphname = f_j.liga;
kernLeft = f;
kernRight = l;
layers = (
{
layerId = "9372F035-DA38-4B54-966C-CEBA9B53DD02";
shapes = (
{
closed = 1;
nodes = (
(156,0,l),
(265,-3,l),
(265,20,l),
(249,22,ls),
(202,29,o),
(191,31,o),
(191,121,cs),
(191,411,l),
(348,411,l),
(348,436,l),
(191,436,l),
(191,499,ls),
(191,599,o),
(205,699,o),
(311,699,cs),
(359,699,o),
(396,666,o),
(396,636,cs),
(396,617,o),
(377,615,o),
(377,591,cs),
(377,567,o),
(397,551,o),
(421,551,cs),
(451,551,o),
(470,573,o),
(470,607,cs),
(470,687,o),
(385,724,o),
(311,724,cs),
(159,724,o),
(121,617,o),
(121,504,cs),
(121,436,l),
(25,436,l),
(25,411,l),
(121,411,l),
(121,121,ls),
(121,31,o),
(107,29,o),
(49,22,cs),
(33,20,l),
(33,-3,l)
);
},
{
alignment = -1;
pos = (278,0);
ref = jdotless;
}
);
width = 544;
}
);
metricLeft = f;
metricRight = j;
},
{
color = 6;
glyphname = f_k.liga;
kernLeft = f;
kernRight = k;
layers = (
{
layerId = "9372F035-DA38-4B54-966C-CEBA9B53DD02";
shapes = (
{
closed = 1;
nodes = (
(435,0,l),
(558,-3,l),
(558,20,l),
(542,22,ls),
(484,29,o),
(470,31,o),
(470,121,cs),
(470,154,l),
(520,214,l),
(710,0,l),
(821,-3,l),
(821,20,l),
(805,22,ls),
(781,25,o),
(756,53,o),
(736,76,cs),
(565,268,l),
(621,335,ls),
(655,375,o),
(695,405,o),
(755,413,cs),
(771,415,l),
(771,438,l),
(687,436,l),
(591,438,l),
(591,415,l),
(607,413,ls),
(624,411,o),
(631,405,o),
(631,395,cs),
(631,388,o),
(627,378,o),
(618,367,cs),
(470,188,l),
(470,644,l),
(400,644,l),
(400,121,ls),
(400,31,o),
(386,29,o),
(328,22,cs),
(312,20,l),
(312,-3,l)
);
},
{
closed = 1;
nodes = (
(148,0,l),
(265,-3,l),
(265,20,l),
(249,22,ls),
(198,28,o),
(183,31,o),
(183,121,cs),
(183,411,l),
(275,411,l),
(275,436,l),
(183,436,l),
(183,485,ls),
(183,611,o),
(203,699,o),
(307,699,cs),
(351,699,o),
(400,677,o),
(400,594,cs),
(400,140,l),
(470,140,l),
(470,725,l),
(406,694,l),
(384,712,o),
(347,724,o),
(308,724,cs),
(157,724,o),
(113,611,o),
(113,485,cs),
(113,436,l),
(27,436,l),
(27,411,l),
(113,411,l),
(113,121,ls),
(113,31,o),
(99,29,o),
(41,22,cs),
(25,20,l),
(25,-3,l)
);
}
);
width = 821;
}
);
metricLeft = f;
metricRight = k;
},
{
color = 3;
glyphname = fi;
kernLeft = f;
kernRight = l;
layers = (
{
layerId = "9372F035-DA38-4B54-966C-CEBA9B53DD02";
shapes = (
{
closed = 1;
nodes = (
(156,0,l),
(265,-3,l),
(265,20,l),
(249,22,ls),
(202,29,o),
(191,31,o),
(191,121,cs),
(191,411,l),
(348,411,l),
(348,436,l),
(191,436,l),
(191,499,ls),
(191,599,o),
(205,699,o),
(311,699,cs),
(359,699,o),
(396,666,o),
(396,636,cs),
(396,617,o),
(377,615,o),
(377,591,cs),
(377,567,o),
(397,551,o),
(421,551,cs),
(451,551,o),
(470,573,o),
(470,607,cs),
(470,687,o),
(385,724,o),
(311,724,cs),
(159,724,o),
(121,617,o),
(121,504,cs),
(121,436,l),
(25,436,l),
(25,411,l),
(121,411,l),
(121,121,ls),
(121,31,o),
(107,29,o),
(49,22,cs),
(33,20,l),
(33,-3,l)
);
},
{
alignment = -1;
pos = (283,0);
ref = idotless;
}
);
width = 567;
}
);
metricLeft = f;
metricRight = i;
unicode = 64257;
},
{
color = 6;
glyphname = fl;
kernLeft = f;
kernRight = l;
layers = (
{
layerId = "9372F035-DA38-4B54-966C-CEBA9B53DD02";
shapes = (
{
closed = 1;
nodes = (
(435,0,l),
(558,-3,l),
(558,20,l),
(542,22,ls),
(484,29,o),
(470,31,o),
(470,121,cs),
(470,140,l),
(400,140,l),
(400,121,ls),
(400,31,o),
(386,29,o),
(340,22,cs),
(324,20,l),
(324,-3,l)
);
},
{
closed = 1;
nodes = (
(148,0,l),
(265,-3,l),
(265,20,l),
(249,22,ls),
(198,28,o),
(183,31,o),
(183,121,cs),
(183,411,l),
(275,411,l),
(275,436,l),
(183,436,l),
(183,485,ls),
(183,611,o),
(203,699,o),
(307,699,cs),
(351,699,o),
(400,677,o),
(400,594,cs),
(400,140,l),
(470,140,l),
(470,725,l),
(406,694,l),
(384,712,o),
(347,724,o),
(308,724,cs),
(157,724,o),
(113,611,o),
(113,485,cs),
(113,436,l),
(27,436,l),
(27,411,l),
(113,411,l),
(113,121,ls),
(113,31,o),
(99,29,o),
(41,22,cs),
(25,20,l),
(25,-3,l)
);
}
);
width = 573;
}
);
metricLeft = f;
metricRight = l;
unicode = 64258;
},
{
color = 6;
glyphname = Fhook.sc;
kernLeft = H;
kernRight = F;
layers = (
{
anchors = (
{
name = bottom;
pos = (225,0);
},
{
name = top;
pos = (337,710);
}
);
layerId = "9372F035-DA38-4B54-966C-CEBA9B53DD02";
shapes = (
{
closed = 1;
nodes = (
(129,-294,o),
(187,-237,o),
(187,-152,cs),
(187,223,l),
(262,223,ls),
(291,223,o),
(308,199,o),
(308,134,c),
(329,134,l),
(326,236,l),
(329,326,l),
(308,326,l),
(305,263,o),
(289,247,o),
(265,247,cs),
(187,247,l),
(187,430,l),
(275,430,ls),
(366,430,o),
(377,404,o),
(397,343,c),
(418,343,l),
(411,455,l),
(147,455,l),
(30,458,l),
(30,435,l),
(46,433,ls),
(104,426,o),
(117,424,o),
(117,334,cs),
(117,-152,ls),
(117,-205,o),
(112,-273,o),
(67,-273,cs),
(52,-273,o),
(39,-264,o),
(39,-246,cs),
(39,-240,o),
(40,-235,o),
(43,-226,cs),
(45,-220,o),
(47,-213,o),
(47,-207,cs),
(47,-189,o),
(34,-167,o),
(4,-167,cs),
(-31,-167,o),
(-49,-193,o),
(-49,-223,cs),
(-49,-266,o),
(-13,-294,o),
(50,-294,cs)
);
}
);
width = 452;
}
);
metricRight = f.sc;
},
{
color = 6;
glyphname = a.sc;
kernLeft = a.sc;
kernRight = a.sc;
layers = (
{
anchors = (
{
name = bottom;
pos = (217,0);
},
{
name = ogonek;
pos = (463,10);
},
{
name = top;
pos = (257,455);
}
);
layerId = "9372F035-DA38-4B54-966C-CEBA9B53DD02";
shapes = (
{
closed = 1;
nodes = (
(73,0,l),
(148,-3,l),
(148,18,l),
(122,21,ls),
(108,23,o),
(100,27,o),
(100,41,cs),
(100,52,o),
(106,68,o),
(116,94,cs),
(231,379,l),
(348,78,ls),
(352,67,o),
(354,58,o),
(354,51,cs),
(354,34,o),
(343,27,o),
(331,25,cs),
(293,18,l),
(293,-3,l),
(410,0,l),
(514,-3,l),
(514,18,l),
(484,25,ls),
(451,33,o),
(439,60,o),
(415,118,cs),
(275,455,l),
(237,455,l),
(86,92,ls),
(63,37,o),
(50,29,o),
(14,21,cs),
(0,18,l),
(0,-3,l)
);
},
{
closed = 1;
nodes = (
(325,154,l),
(316,179,l),
(143,179,l),
(132,154,l)
);
}
);
width = 514;
}
);
},
{
color = 6;
glyphname = ae.sc;
kernLeft = AE.sc;
kernRight = H;
layers = (
{
anchors = (
{
name = bottom;
pos = (437,0);
},
{
name = ogonek;
pos = (623,10);
}
);
layerId = "9372F035-DA38-4B54-966C-CEBA9B53DD02";
shapes = (
{
closed = 1;
nodes = (
(39,0,l),
(117,-3,l),
(117,20,l),
(91,23,ls),
(80,24,o),
(72,27,o),
(72,35,cs),
(72,44,o),
(82,61,o),
(106,94,cs),
(341,426,l),
(323,431,l),
(323,121,ls),
(323,31,o),
(308,29,o),
(250,22,cs),
(234,20,l),
(234,-3,l),
(357,0,l),
(643,0,l),
(650,144,l),
(629,144,l),
(611,65,o),
(602,27,o),
(524,27,cs),
(458,27,ls),
(406,27,o),
(392,45,o),
(392,78,cs),
(392,429,l),
(485,429,ls),
(577,429,o),
(589,404,o),
(609,343,c),
(628,343,l),
(621,455,l),
(358,455,l),
(243,458,l),
(243,435,l),
(263,433,ls),
(276,432,o),
(296,430,o),
(296,414,cs),
(296,407,o),
(293,398,o),
(283,384,cs),
(74,92,ls),
(32,34,o),
(17,31,o),
(-20,23,cs),
(-34,20,l),
(-34,-3,l)
);
},
{
closed = 1;
nodes = (
(328,154,l),
(328,179,l),
(158,179,l),
(141,154,l)
);
},
{
closed = 1;
nodes = (
(540,134,l),
(538,237,l),
(540,326,l),
(518,326,l),
(515,263,o),
(498,247,o),
(475,247,cs),
(386,247,l),
(386,223,l),
(472,223,ls),
(501,223,o),
(518,199,o),
(518,134,c)
);
}
);
width = 690;
}
);
metricRight = E;
},
{
color = 6;
glyphname = b.sc;
kernLeft = H;
kernRight = B;
layers = (
{
anchors = (
{
name = bottom;
pos = (262,0);
},
{
name = top;
pos = (262,455);
}
);
guides = (
{
pos = (30,458);
}
);
layerId = "9372F035-DA38-4B54-966C-CEBA9B53DD02";
shapes = (
{
closed = 1;
nodes = (
(152,0,l),
(323,0,ls),
(372,0,o),
(474,30,o),
(474,131,cs),
(474,213,o),
(404,239,o),
(334,247,c),
(387,258,o),
(445,288,o),
(445,355,cs),
(445,441,o),
(340,455,o),
(265,455,cs),
(153,455,l),
(30,458,l),
(30,435,l),
(46,433,ls),
(104,426,o),
(118,424,o),
(118,334,cs),
(118,121,ls),
(118,31,o),
(103,29,o),
(45,22,cs),
(29,20,l),
(29,-3,l)
);
},
{
closed = 1;
nodes = (
(210,24,o),
(185,46,o),
(185,96,cs),
(185,431,l),
(245,431,ls),
(330,431,o),
(368,410,o),
(368,349,cs),
(368,288,o),
(338,253,o),
(284,253,cs),
(179,253,l),
(179,229,l),
(260,229,ls),
(332,229,o),
(397,222,o),
(397,131,cs),
(397,58,o),
(362,24,o),
(288,24,cs),
(250,24,ls)
);
}
);
width = 511;
}
);
metricLeft = i.sc;
},
{
color = 6;
glyphname = c.sc;
kernLeft = o.sc;
kernRight = C;
layers = (
{
anchors = (
{
name = bottom;
pos = (265,0);
},
{
name = top;
pos = (275,455);
}
);
hints = (
{
origin = (0,40);
target = (0,18);
type = Stem;
},
{
horizontal = 1;
origin = (0,43);
target = (0,15);
type = Stem;
},
{
horizontal = 1;
origin = (0,21);
target = (0,37);
type = Stem;
},
{
origin = (0,12);
target = (0,11);
type = Stem;
}
);
layerId = "9372F035-DA38-4B54-966C-CEBA9B53DD02";
shapes = (
{
closed = 1;
nodes = (
(310,-11,o),
(349,7,o),
(376,20,cs),
(392,28,o),
(404,34,o),
(411,34,cs),
(428,34,o),
(433,13,o),
(435,0,c),
(453,0,l),
(450,88,l),
(452,175,l),
(428,175,l),
(420,89,o),
(362,19,o),
(274,19,cs),
(171,19,o),
(127,109,o),
(127,218,cs),
(127,334,o),
(168,439,o),
(278,439,cs),
(350,439,o),
(410,394,o),
(426,306,c),
(450,306,l),
(449,387,l),
(452,459,l),
(427,459,l),
(426,438,o),
(420,431,o),
(411,431,cs),
(401,431,o),
(388,437,o),
(365,448,cs),
(336,462,o),
(298,469,o),
(274,469,cs),
(147,469,o),
(47,363,o),
(47,218,cs),
(47,101,o),
(130,-11,o),
(260,-11,cs)
);
}
);
width = 510;
}
);
metricLeft = o.sc;
},
{
color = 6;
glyphname = d.sc;
kernLeft = H;
kernRight = o.sc;
layers = (
{
anchors = (
{
name = bottom;
pos = (298,0);
},
{
name = center;
pos = (171,228);
},
{
name = top;
pos = (238,455);
}
);
layerId = "9372F035-DA38-4B54-966C-CEBA9B53DD02";
shapes = (
{
closed = 1;
nodes = (
(148,0,l),
(264,0,ls),
(362,0,o),
(531,43,o),
(531,232,cs),
(531,452,o),
(307,455,o),
(251,455,cs),
(152,455,l),
(29,458,l),
(29,435,l),
(45,433,ls),
(103,426,o),
(117,424,o),
(117,334,cs),
(117,108,ls),
(117,27,o),
(104,25,o),
(52,19,cs),
(38,17,l),
(38,-3,l)
);
},
{
closed = 1;
nodes = (
(199,25,o),
(187,51,o),
(187,103,cs),
(187,430,l),
(269,430,ls),
(349,430,o),
(451,406,o),
(451,232,cs),
(451,29,o),
(298,25,o),
(267,25,cs),
(234,25,ls)
);
}
);
width = 578;
}
);
metricLeft = i.sc;
},
{
color = 6;
glyphname = e.sc;
kernLeft = H;
kernRight = H;
layers = (
{
anchors = (
{
name = bottom;
pos = (232,0);
},
{
name = ogonek;
pos = (418,10);
},
{
name = top;
pos = (252,455);
},
{
name = topleft;
pos = (19,455);
}
);
layerId = "9372F035-DA38-4B54-966C-CEBA9B53DD02";
shapes = (
{
closed = 1;
nodes = (
(152,0,l),
(438,0,l),
(438,63,l),
(445,144,l),
(424,144,l),
(407,69,o),
(397,25,o),
(319,25,cs),
(253,25,ls),
(201,25,o),
(187,44,o),
(187,78,cs),
(187,223,l),
(267,223,ls),
(296,223,o),
(313,199,o),
(313,134,c),
(334,134,l),
(331,234,l),
(334,326,l),
(313,326,l),
(310,263,o),
(293,246,o),
(270,246,cs),
(187,246,l),
(187,430,l),
(280,430,ls),
(371,430,o),
(381,404,o),
(401,343,c),
(422,343,l),
(416,411,l),
(416,455,l),
(153,455,l),
(30,458,l),
(30,435,l),
(46,433,ls),
(104,426,o),
(117,424,o),
(117,334,cs),
(117,121,ls),
(117,31,o),
(103,29,o),
(45,22,cs),
(29,20,l),
(29,-3,l)
);
}
);
width = 482;
}
);
metricLeft = i.sc;
},
{
color = 3;
glyphname = eogonek.sc;
kernLeft = H;
kernRight = H;
layers = (
{
layerId = "9372F035-DA38-4B54-966C-CEBA9B53DD02";
shapes = (
{
closed = 1;
nodes = (
(420,-294,o),
(457,-234,o),
(464,-183,c),
(447,-170,l),
(428,-212,o),
(392,-239,o),
(355,-239,cs),
(314,-239,o),
(279,-210,o),
(279,-154,cs),
(279,-69,o),
(367,0,o),
(439,0,c),
(433,29,l),
(300,-14,o),
(226,-112,o),
(226,-191,cs),
(226,-250,o),
(273,-294,o),
(334,-294,cs)
);
},
{
ref = e.sc;
}
);
width = 466;
}
);
},
{
color = 6;
glyphname = f.sc;
kernLeft = H;
kernRight = F;
layers = (
{
anchors = (
{
name = bottom;
pos = (225,0);
},
{
name = top;
pos = (245,455);
}
);
layerId = "9372F035-DA38-4B54-966C-CEBA9B53DD02";
shapes = (
{
closed = 1;
nodes = (
(152,0,l),
(295,-3,l),
(295,20,l),
(279,22,ls),
(205,29,o),
(187,31,o),
(187,121,cs),
(187,223,l),
(262,223,ls),
(291,223,o),
(308,199,o),
(308,134,c),
(329,134,l),
(326,236,l),
(329,326,l),
(308,326,l),
(305,263,o),
(289,247,o),
(265,247,cs),
(187,247,l),
(187,430,l),
(275,430,ls),
(366,430,o),
(377,404,o),
(397,343,c),
(418,343,l),
(411,455,l),
(147,455,l),
(30,458,l),
(30,435,l),
(46,433,ls),
(104,426,o),
(117,424,o),
(117,334,cs),
(117,121,ls),
(117,31,o),
(103,29,o),
(45,22,cs),
(29,20,l),
(29,-3,l)
);
}
);
width = 452;
}
);
metricLeft = i.sc;
},
{
color = 6;
glyphname = g.sc;
kernLeft = o.sc;
kernRight = G;
layers = (
{
anchors = (
{
name = bottom;
pos = (311,0);
},
{
name = top;
pos = (271,455);
}
);
layerId = "9372F035-DA38-4B54-966C-CEBA9B53DD02";
shapes = (
{
closed = 1;
nodes = (
(316,-11,o),
(363,11,o),
(395,29,cs),
(411,38,o),
(426,43,o),
(442,43,cs),
(456,43,o),
(473,37,o),
(478,28,c),
(496,39,l),
(490,49,ls),
(483,61,o),
(475,80,o),
(475,100,cs),
(475,113,ls),
(475,153,o),
(487,168,o),
(505,169,cs),
(535,171,l),
(535,193,l),
(435,190,l),
(327,193,l),
(327,171,l),
(355,169,ls),
(394,166,o),
(405,151,o),
(405,125,cs),
(405,89,ls),
(405,54,o),
(340,19,o),
(282,19,cs),
(165,19,o),
(127,110,o),
(127,218,cs),
(127,346,o),
(176,439,o),
(280,439,cs),
(354,439,o),
(410,391,o),
(426,305,c),
(447,305,l),
(444,383,l),
(447,460,l),
(426,460,l),
(423,438,o),
(418,431,o),
(410,431,cs),
(403,431,o),
(398,433,o),
(380,442,cs),
(365,450,o),
(326,469,o),
(274,469,cs),
(147,469,o),
(47,369,o),
(47,218,cs),
(47,89,o),
(122,-11,o),
(266,-11,cs)
);
}
);
width = 557;
}
);
metricLeft = o.sc;
},
{
color = 6;
glyphname = h.sc;
kernLeft = H;
kernRight = H;
layers = (
{
anchors = (
{
name = bottom;
pos = (314,0);
},
{
name = center;
pos = (314,327);
},
{
name = top;
pos = (314,455);
},
{
name = topleft;
pos = (49,455);
}
);
layerId = "9372F035-DA38-4B54-966C-CEBA9B53DD02";
shapes = (
{
closed = 1;
nodes = (
(153,0,l),
(276,-3,l),
(276,20,l),
(260,22,ls),
(202,29,o),
(188,31,o),
(188,121,cs),
(188,334,ls),
(188,424,o),
(202,426,o),
(260,433,cs),
(276,435,l),
(276,458,l),
(153,455,l),
(152,455,l),
(29,458,l),
(29,435,l),
(45,433,ls),
(103,426,o),
(117,424,o),
(117,334,cs),
(117,121,ls),
(117,31,o),
(104,29,o),
(46,22,cs),
(30,20,l),
(30,-3,l)
);
},
{
closed = 1;
nodes = (
(446,212,l),
(446,237,l),
(182,237,l),
(182,212,l)
);
},
{
closed = 1;
nodes = (
(475,0,l),
(598,-3,l),
(598,20,l),
(582,22,ls),
(524,29,o),
(510,31,o),
(510,121,cs),
(510,334,ls),
(510,424,o),
(524,426,o),
(582,433,cs),
(598,435,l),
(598,458,l),
(475,455,l),
(352,458,l),
(352,435,l),
(368,433,ls),
(426,426,o),
(440,424,o),
(440,334,cs),
(440,121,ls),
(440,31,o),
(426,29,o),
(368,22,cs),
(352,20,l),
(352,-3,l)
);
}
);
width = 627;
}
);
metricLeft = i.sc;
metricRight = i.sc;
},
{
color = 6;
glyphname = i.sc;
kernLeft = H;
kernRight = H;
layers = (
{
anchors = (
{
name = bottom;
pos = (153,0);
},
{
name = ogonek;
pos = (179,0);
},
{
name = top;
pos = (152,455);
}
);
layerId = "9372F035-DA38-4B54-966C-CEBA9B53DD02";
shapes = (
{
closed = 1;
nodes = (
(153,0,l),
(276,-3,l),
(276,20,l),
(260,22,ls),
(202,29,o),
(187,31,o),
(187,121,cs),
(187,334,ls),
(187,424,o),
(201,426,o),
(259,433,cs),
(275,435,l),
(275,458,l),
(152,455,l),
(29,458,l),
(29,435,l),
(45,433,ls),
(103,426,o),
(117,424,o),
(117,334,cs),
(117,121,ls),
(117,31,o),
(104,29,o),
(46,22,cs),
(30,20,l),
(30,-3,l)
);
}
);
width = 305;
}
);
},
{
color = 6;
glyphname = j.sc;
kernLeft = J;
kernRight = U;
layers = (
{
anchors = (
{
name = bottom;
pos = (188,0);
},
{
name = top;
pos = (228,455);
}
);
layerId = "9372F035-DA38-4B54-966C-CEBA9B53DD02";
shapes = (
{
closed = 1;
nodes = (
(181,-11,o),
(266,12,o),
(266,127,cs),
(266,334,ls),
(266,424,o),
(280,426,o),
(338,433,cs),
(354,435,l),
(354,458,l),
(231,455,l),
(108,458,l),
(108,435,l),
(124,433,ls),
(182,426,o),
(196,424,o),
(196,334,cs),
(196,111,ls),
(196,75,o),
(194,15,o),
(138,15,cs),
(118,15,o),
(105,24,o),
(105,38,cs),
(105,44,o),
(107,49,o),
(109,54,cs),
(111,59,o),
(113,64,o),
(113,71,cs),
(113,94,o),
(96,106,o),
(75,106,cs),
(49,106,o),
(30,87,o),
(30,63,cs),
(30,16,o),
(83,-11,o),
(131,-11,cs)
);
}
);
width = 381;
}
);
},
{
color = 6;
glyphname = k.sc;
kernLeft = H;
kernRight = K;
layers = (
{
anchors = (
{
name = bottom;
pos = (280,0);
},
{
name = top;
pos = (300,455);
}
);
layerId = "9372F035-DA38-4B54-966C-CEBA9B53DD02";
shapes = (
{
closed = 1;
nodes = (
(153,0,l),
(266,-3,l),
(266,20,l),
(250,22,ls),
(198,29,o),
(186,31,o),
(186,121,cs),
(186,334,ls),
(186,424,o),
(197,426,o),
(249,433,cs),
(265,435,l),
(265,458,l),
(152,455,l),
(29,458,l),
(29,435,l),
(45,433,ls),
(103,426,o),
(118,424,o),
(118,334,cs),
(118,121,ls),
(118,31,o),
(104,29,o),
(46,22,cs),
(30,20,l),
(30,-3,l)
);
},
{
closed = 1;
nodes = (
(443,0,l),
(551,-2,l),
(551,20,l),
(542,22,ls),
(495,32,o),
(455,74,o),
(408,133,cs),
(287,287,l),
(236,233,l),
(359,85,ls),
(370,72,o),
(373,58,o),
(373,50,cs),
(373,35,o),
(363,25,o),
(347,22,cs),
(337,20,l),
(337,-2,l)
);
},
{
closed = 1;
nodes = (
(402,384,ls),
(426,409,o),
(451,431,o),
(476,433,cs),
(499,435,l),
(499,457,l),
(412,455,l),
(330,457,l),
(330,435,l),
(348,433,ls),
(367,431,o),
(378,425,o),
(378,414,cs),
(378,404,o),
(370,390,o),
(353,372,cs),
(180,187,l),
(180,152,l)
);
}
);
width = 548;
}
);
metricLeft = i.sc;
},
{
color = 6;
glyphname = l.sc;
kernLeft = H;
kernRight = L;
layers = (
{
anchors = (
{
name = bottom;
pos = (240,0);
},
{
name = center;
pos = (170,228);
},
{
name = top;
pos = (160,455);
},
{
name = topright;
pos = (346,179);
}
);
guides = (
{
pos = (490,314);
}
);
layerId = "9372F035-DA38-4B54-966C-CEBA9B53DD02";
shapes = (
{
closed = 1;
nodes = (
(152,0,l),
(439,-2,l),
(446,163,l),
(423,163,l),
(415,73,o),
(384,25,o),
(305,25,cs),
(250,25,ls),
(194,25,o),
(187,60,o),
(187,119,cs),
(187,334,ls),
(187,424,o),
(201,426,o),
(259,433,cs),
(275,435,l),
(275,458,l),
(152,455,l),
(29,458,l),
(29,435,l),
(45,433,ls),
(103,426,o),
(117,424,o),
(117,334,cs),
(117,121,ls),
(117,31,o),
(103,29,o),
(45,22,cs),
(29,20,l),
(29,-3,l)
);
}
);
width = 473;
}
);
metricLeft = i.sc;
},
{
color = 6;
glyphname = m.sc;
kernLeft = H;
kernRight = H;
layers = (
{
anchors = (
{
name = bottom;
pos = (344,0);
},
{
name = top;
pos = (344,455);
}
);
layerId = "9372F035-DA38-4B54-966C-CEBA9B53DD02";
shapes = (
{
closed = 1;
nodes = (
(128,-1,l),
(228,-3,l),
(228,20,l),
(212,22,ls),
(154,29,o),
(140,31,o),
(140,121,cs),
(140,423,l),
(126,420,l),
(324,5,l),
(341,5,l),
(538,415,l),
(523,418,l),
(523,122,ls),
(523,32,o),
(509,30,o),
(451,23,cs),
(435,21,l),
(435,-2,l),
(558,1,l),
(681,-2,l),
(681,21,l),
(665,23,ls),
(607,30,o),
(593,32,o),
(593,122,cs),
(593,376,ls),
(593,409,o),
(596,427,o),
(627,429,cs),
(665,431,l),
(665,455,l),
(529,455,l),
(343,70,l),
(370,70,l),
(188,455,l),
(150,455,l),
(27,458,l),
(27,435,l),
(43,433,ls),
(101,426,o),
(115,424,o),
(115,334,cs),
(115,121,ls),
(115,31,o),
(101,29,o),
(43,22,cs),
(27,20,l),
(27,-3,l)
);
}
);
width = 710;
}
);
metricRight = i.sc;
},
{
color = 6;
glyphname = n.sc;
kernLeft = H;
kernRight = N;
layers = (
{
anchors = (
{
name = bottom;
pos = (261,0);
},
{
name = top;
pos = (261,455);
}
);
layerId = "9372F035-DA38-4B54-966C-CEBA9B53DD02";
shapes = (
{
closed = 1;
nodes = (
(459,0,l),
(459,334,ls),
(459,423,o),
(473,425,o),
(531,432,cs),
(547,434,l),
(547,457,l),
(447,455,l),
(346,457,l),
(346,434,l),
(362,432,ls),
(420,425,o),
(434,423,o),
(434,334,cs),
(434,135,l),
(391,184,o),
(212,388,o),
(159,455,c),
(18,457,l),
(19,434,l),
(27,434,ls),
(65,434,o),
(91,415,o),
(111,396,cs),
(180,330,o),
(389,88,o),
(434,0,c)
);
},
{
closed = 1;
nodes = (
(101,-1,l),
(201,-3,l),
(201,20,l),
(185,22,ls),
(127,29,o),
(113,31,o),
(113,121,cs),
(113,400,l),
(88,423,l),
(88,121,ls),
(88,31,o),
(74,29,o),
(16,22,cs),
(0,20,l),
(0,-3,l)
);
}
);
width = 554;
}
);
},
{
color = 3;
glyphname = eng.sc;
kernLeft = H;
kernRight = N;
layers = (
{
layerId = "9372F035-DA38-4B54-966C-CEBA9B53DD02";
shapes = (
{
closed = 1;
nodes = (
(446,-294,o),
(459,-237,o),
(459,-152,cs),
(459,63,l),
(434,101,l),
(434,-152,ls),
(434,-205,o),
(429,-273,o),
(384,-273,cs),
(369,-273,o),
(360,-266,o),
(360,-251,cs),
(360,-236,o),
(364,-232,o),
(364,-217,cs),
(364,-194,o),
(346,-167,o),
(316,-167,cs),
(286,-167,o),
(268,-190,o),
(268,-223,cs),
(268,-269,o),
(304,-294,o),
(367,-294,cs)
);
},
{
ref = n.sc;
}
);
width = 554;
}
);
metricLeft = n.sc;
metricRight = n.sc;
},
{
color = 6;
glyphname = o.sc;
kernLeft = o.sc;
kernRight = o.sc;
layers = (
{
anchors = (
{
name = bottom;
pos = (303,0);
},
{
name = center;
pos = (303,228);
},
{
name = ogonek;
pos = (531,10);
},
{
name = top;
pos = (303,455);
},
{
name = topleft;
pos = (37,455);
},
{
name = topright;
pos = (568,455);
}
);
layerId = "9372F035-DA38-4B54-966C-CEBA9B53DD02";
shapes = (
{
closed = 1;
nodes = (
(429,-11,o),
(558,90,o),
(558,228,cs),
(558,384,o),
(422,469,o),
(304,469,cs),
(179,469,o),
(47,376,o),
(47,228,cs),
(47,88,o),
(173,-11,o),
(304,-11,cs)
);
},
{
closed = 1;
nodes = (
(185,19,o),
(127,111,o),
(127,228,cs),
(127,345,o),
(172,439,o),
(304,439,cs),
(428,439,o),
(478,354,o),
(478,228,cs),
(478,113,o),
(427,19,o),
(304,19,cs)
);
}
);
width = 605;
}
);
},
{
color = 6;
glyphname = oe.sc;
kernLeft = o.sc;
kernRight = H;
layers = (
{
layerId = "9372F035-DA38-4B54-966C-CEBA9B53DD02";
shapes = (
{
closed = 1;
nodes = (
(343,-11,o),
(374,-8,o),
(400,-5,cs),
(423,-2,o),
(441,0,o),
(458,0,cs),
(750,0,l),
(757,144,l),
(736,144,l),
(718,63,o),
(709,27,o),
(631,27,cs),
(565,27,ls),
(513,27,o),
(499,45,o),
(499,78,cs),
(499,429,l),
(592,429,ls),
(684,429,o),
(696,404,o),
(716,343,c),
(735,343,l),
(728,455,l),
(495,455,ls),
(456,455,o),
(429,458,o),
(401,462,cs),
(373,466,o),
(332,469,o),
(304,469,cs),
(179,469,o),
(47,376,o),
(47,228,cs),
(47,88,o),
(157,-11,o),
(304,-11,cs)
);
},
{
closed = 1;
nodes = (
(185,19,o),
(127,111,o),
(127,228,cs),
(127,345,o),
(172,439,o),
(304,439,cs),
(399,439,o),
(435,388,o),
(435,307,cs),
(435,137,ls),
(435,55,o),
(395,19,o),
(304,19,cs)
);
},
{
closed = 1;
nodes = (
(647,134,l),
(645,237,l),
(647,326,l),
(625,326,l),
(622,263,o),
(605,247,o),
(582,247,cs),
(493,247,l),
(493,223,l),
(579,223,ls),
(608,223,o),
(625,199,o),
(625,134,c)
);
}
);
width = 794;
}
);
metricLeft = o.sc;
metricRight = e.sc;
},
{
color = 6;
glyphname = p.sc;
kernLeft = H;
kernRight = P;
layers = (
{
anchors = (
{
name = bottom;
pos = (252,0);
},
{
name = top;
pos = (252,455);
}
);
layerId = "9372F035-DA38-4B54-966C-CEBA9B53DD02";
shapes = (
{
closed = 1;
nodes = (
(151,0,l),
(273,-3,l),
(273,20,l),
(257,22,ls),
(199,29,o),
(185,33,o),
(185,121,cs),
(185,431,l),
(295,431,ls),
(355,431,o),
(387,397,o),
(387,330,cs),
(387,222,o),
(305,222,o),
(273,222,cs),
(179,222,l),
(179,198,l),
(273,198,ls),
(384,198,o),
(465,247,o),
(465,335,cs),
(465,455,o),
(316,455,o),
(295,455,cs),
(153,455,l),
(30,458,l),
(30,435,l),
(46,433,ls),
(104,426,o),
(117,423,o),
(117,334,cs),
(117,121,ls),
(117,33,o),
(103,29,o),
(45,22,cs),
(29,20,l),
(29,-3,l)
);
}
);
width = 497;
}
);
metricLeft = i.sc;
},
{
color = 6;
glyphname = thorn.sc;
kernLeft = H;
kernRight = D;
layers = (
{
layerId = "9372F035-DA38-4B54-966C-CEBA9B53DD02";
shapes = (
{
closed = 1;
nodes = (
(151,0,l),
(273,-3,l),
(273,20,l),
(257,22,ls),
(199,29,o),
(185,31,o),
(185,121,cs),
(185,334,ls),
(185,424,o),
(199,426,o),
(257,433,cs),
(273,435,l),
(273,458,l),
(151,455,l),
(29,458,l),
(29,435,l),
(45,433,ls),
(103,426,o),
(117,424,o),
(117,334,cs),
(117,121,ls),
(117,31,o),
(103,29,o),
(45,22,cs),
(29,20,l),
(29,-3,l)
);
},
{
closed = 1;
nodes = (
(273,108,ls),
(385,108,o),
(465,161,o),
(465,238,cs),
(465,337,o),
(383,365,o),
(295,365,cs),
(153,365,l),
(175,341,l),
(295,341,ls),
(355,341,o),
(387,307,o),
(387,238,cs),
(387,171,o),
(357,132,o),
(273,132,cs),
(179,132,l),
(179,108,l)
);
}
);
width = 497;
}
);
metricLeft = h.sc;
metricRight = p.sc;
},
{
color = 3;
glyphname = q.sc;
kernLeft = o.sc;
kernRight = o.sc;
layers = (
{
anchors = (
{
name = bottom;
pos = (269,0);
},
{
name = top;
pos = (279,455);
}
);
layerId = "9372F035-DA38-4B54-966C-CEBA9B53DD02";
shapes = (
{
closed = 1;
nodes = (
(471,-176,o),
(497,-132,o),
(503,-75,c),
(482,-71,l),
(477,-104,o),
(460,-114,o),
(434,-114,cs),
(397,-114,o),
(367,-102,o),
(338,-84,cs),
(304,-63,o),
(281,-40,o),
(240,-40,cs),
(218,-40,o),
(220,-41,o),
(205,-43,c),
(299,5,l),
(268,4,l),
(157,-48,l),
(103,-48,o),
(63,-64,o),
(63,-95,cs),
(63,-108,o),
(70,-115,o),
(85,-115,cs),
(109,-115,o),
(131,-101,o),
(140,-80,cs),
(146,-66,o),
(164,-60,o),
(187,-60,cs),
(229,-60,o),
(265,-98,o),
(294,-126,cs),
(317,-148,o),
(350,-176,o),
(406,-176,cs)
);
},
{
ref = o.sc;
}
);
width = 586;
}
);
metricLeft = o.sc;
},
{
color = 6;
glyphname = r.sc;
kernLeft = H;
kernRight = R;
layers = (
{
anchors = (
{
name = bottom;
pos = (279,0);
},
{
name = top;
pos = (239,455);
}
);
layerId = "9372F035-DA38-4B54-966C-CEBA9B53DD02";
shapes = (
{
closed = 1;
nodes = (
(495,-11,o),
(521,-1,o),
(538,6,c),
(533,29,l),
(526,26,o),
(516,23,o),
(507,23,cs),
(476,23,o),
(455,28,o),
(445,91,cs),
(429,190,o),
(376,217,o),
(292,219,c),
(296,216,l),
(361,221,o),
(457,245,o),
(457,337,cs),
(457,429,o),
(379,455,o),
(290,455,cs),
(152,455,l),
(29,457,l),
(29,434,l),
(51,432,ls),
(103,427,o),
(117,414,o),
(117,334,cs),
(117,120,ls),
(117,31,o),
(103,29,o),
(45,22,cs),
(29,20,l),
(29,-3,l),
(151,0,l),
(273,-3,l),
(273,20,l),
(257,22,ls),
(199,29,o),
(185,31,o),
(185,120,cs),
(185,431,l),
(280,431,ls),
(358,431,o),
(378,391,o),
(378,337,cs),
(378,269,o),
(346,239,o),
(265,239,cs),
(179,239,l),
(179,215,l),
(243,215,ls),
(340,215,o),
(358,150,o),
(369,94,cs),
(386,9,o),
(416,-11,o),
(463,-11,cs)
);
}
);
width = 525;
}
);
metricLeft = i.sc;
},
{
color = 6;
glyphname = s.sc;
kernLeft = S;
kernRight = S;
layers = (
{
anchors = (
{
name = bottom;
pos = (187,0);
},
{
name = top;
pos = (207,455);
}
);
layerId = "9372F035-DA38-4B54-966C-CEBA9B53DD02";
shapes = (
{
closed = 1;
nodes = (
(296,-11,o),
(352,51,o),
(352,120,cs),
(352,174,o),
(325,223,o),
(248,257,cs),
(201,278,ls),
(168,293,o),
(120,315,o),
(120,369,cs),
(120,404,o),
(147,441,o),
(200,441,cs),
(257,441,o),
(301,397,o),
(313,327,c),
(334,327,l),
(333,404,l),
(335,466,l),
(313,466,l),
(312,447,o),
(308,442,o),
(300,442,cs),
(293,442,o),
(281,446,o),
(262,454,cs),
(244,461,o),
(222,469,o),
(194,469,cs),
(115,469,o),
(56,422,o),
(56,347,cs),
(56,288,o),
(92,247,o),
(151,222,cs),
(205,199,ls),
(252,179,o),
(288,154,o),
(288,98,cs),
(288,49,o),
(248,17,o),
(199,17,cs),
(121,17,o),
(68,82,o),
(60,168,c),
(37,168,l),
(41,70,l),
(38,-1,l),
(59,-1,l),
(60,15,o),
(64,27,o),
(79,27,cs),
(89,27,o),
(99,22,o),
(119,11,cs),
(139,0,o),
(168,-11,o),
(204,-11,cs)
);
}
);
width = 389;
}
);
},
{
color = 6;
glyphname = t.sc;
kernLeft = T;
kernRight = T;
layers = (
{
anchors = (
{
name = bottom;
pos = (260,0);
},
{
name = center;
pos = (260,228);
},
{
name = top;
pos = (250,455);
}
);
layerId = "9372F035-DA38-4B54-966C-CEBA9B53DD02";
shapes = (
{
closed = 1;
nodes = (
(257,0,l),
(386,-3,l),
(386,20,l),
(369,22,ls),
(308,29,o),
(291,31,o),
(291,121,cs),
(291,447,l),
(219,447,l),
(219,121,ls),
(219,31,o),
(205,29,o),
(144,22,cs),
(127,20,l),
(127,-3,l)
);
},
{
closed = 1;
nodes = (
(516,301,l),
(497,391,l),
(489,457,l),
(255,455,l),
(29,457,l),
(21,391,l),
(3,301,l),
(24,297,l),
(61,393,o),
(77,431,o),
(138,431,cs),
(380,431,ls),
(448,431,o),
(467,392,o),
(494,296,c)
);
}
);
width = 519;
}
);
metricLeft = T;
metricRight = T;
},
{
color = 6;
glyphname = u.sc;
kernLeft = U;
kernRight = U;
layers = (
{
anchors = (
{
name = bottom;
pos = (277,0);
},
{
name = ogonek;
pos = (400,0);
},
{
name = top;
pos = (307,455);
},
{
name = topright;
pos = (531,455);
}
);
layerId = "9372F035-DA38-4B54-966C-CEBA9B53DD02";
shapes = (
{
closed = 1;
nodes = (
(407,-10,o),
(473,49,o),
(473,168,cs),
(473,333,ls),
(473,423,o),
(487,425,o),
(545,432,cs),
(561,434,l),
(561,457,l),
(460,455,l),
(359,457,l),
(359,434,l),
(375,432,ls),
(433,425,o),
(447,423,o),
(447,333,cs),
(447,168,ls),
(447,64,o),
(394,20,o),
(317,20,cs),
(231,20,o),
(180,73,o),
(180,165,cs),
(180,334,ls),
(180,424,o),
(194,426,o),
(252,433,cs),
(268,435,l),
(268,458,l),
(145,455,l),
(22,458,l),
(22,435,l),
(38,433,ls),
(96,426,o),
(110,424,o),
(110,334,cs),
(110,165,ls),
(110,40,o),
(196,-10,o),
(306,-10,cs)
);
}
);
width = 558;
}
);
},
{
color = 6;
glyphname = v.sc;
kernLeft = V;
kernRight = V;
layers = (
{
anchors = (
{
name = bottom;
pos = (262,0);
},
{
name = top;
pos = (282,455);
}
);
layerId = "9372F035-DA38-4B54-966C-CEBA9B53DD02";
shapes = (
{
closed = 1;
nodes = (
(271,-4,l),
(434,360,ls),
(454,405,o),
(469,429,o),
(502,433,cs),
(517,435,l),
(517,458,l),
(440,455,l),
(348,458,l),
(348,435,l),
(369,433,ls),
(394,431,o),
(417,421,o),
(417,395,cs),
(417,385,o),
(413,373,o),
(406,358,cs),
(284,91,l),
(163,365,l),
(159,375,o),
(157,384,o),
(157,392,cs),
(157,416,o),
(174,431,o),
(202,433,cs),
(229,435,l),
(229,458,l),
(119,455,l),
(7,458,l),
(7,435,l),
(25,432,ls),
(55,427,o),
(71,405,o),
(86,371,cs),
(255,-4,l)
);
}
);
width = 514;
}
);
},
{
color = 6;
glyphname = w.sc;
kernLeft = V;
kernRight = V;
layers = (
{
anchors = (
{
name = bottom;
pos = (351,0);
},
{
name = top;
pos = (371,455);
}
);
layerId = "9372F035-DA38-4B54-966C-CEBA9B53DD02";
shapes = (
{
closed = 1;
nodes = (
(215,-4,l),
(366,368,l),
(344,369,l),
(475,-4,l),
(499,-4,l),
(638,397,ls),
(645,418,o),
(666,426,o),
(695,431,cs),
(711,434,l),
(711,456,l),
(635,452,l),
(548,456,l),
(548,433,l),
(570,430,ls),
(597,426,o),
(614,422,o),
(614,406,cs),
(614,402,o),
(613,398,o),
(611,393,c),
(500,73,l),
(520,73,l),
(423,360,ls),
(419,373,o),
(417,384,o),
(417,393,cs),
(417,418,o),
(430,430,o),
(453,432,cs),
(475,434,l),
(473,457,l),
(414,453,ls),
(391,451,o),
(372,441,o),
(360,426,c),
(351,441,o),
(334,451,o),
(305,454,cs),
(275,457,l),
(272,434,l),
(298,431,ls),
(325,428,o),
(343,415,o),
(343,391,cs),
(343,383,o),
(340,373,o),
(336,363,cs),
(216,63,l),
(238,62,l),
(132,384,ls),
(130,390,o),
(129,394,o),
(129,399,cs),
(129,421,o),
(151,430,o),
(180,433,cs),
(197,435,l),
(195,457,l),
(86,453,l),
(-15,457,l),
(-15,435,l),
(-1,433,ls),
(28,429,o),
(45,421,o),
(54,393,cs),
(188,-4,l)
);
}
);
width = 708;
}
);
metricLeft = W;
},
{
color = 6;
glyphname = x.sc;
kernLeft = X;
kernRight = X;
layers = (
{
anchors = (
{
name = bottom;
pos = (246,0);
},
{
name = top;
pos = (276,455);
}
);
layerId = "9372F035-DA38-4B54-966C-CEBA9B53DD02";
shapes = (
{
closed = 1;
nodes = (
(502,20,l),
(482,22,ls),
(454,25,o),
(426,50,o),
(393,95,cs),
(198,367,ls),
(184,386,o),
(179,400,o),
(179,409,cs),
(179,426,o),
(195,431,o),
(210,433,cs),
(236,436,l),
(236,457,l),
(124,455,l),
(19,457,l),
(19,435,l),
(60,433,o),
(71,425,o),
(111,370,cs),
(316,87,ls),
(328,71,o),
(334,58,o),
(334,48,cs),
(334,34,o),
(322,25,o),
(301,22,cs),
(277,19,l),
(277,-2,l),
(387,1,l),
(502,-3,l)
);
},
{
closed = 1;
nodes = (
(67,0,l),
(162,-4,l),
(162,18,l),
(123,22,ls),
(106,24,o),
(99,31,o),
(99,40,cs),
(99,47,o),
(104,56,o),
(110,63,cs),
(236,208,l),
(220,230,l),
(89,78,ls),
(57,40,o),
(32,24,o),
(7,21,cs),
(-10,19,l),
(-10,-4,l)
);
},
{
closed = 1;
nodes = (
(405,392,ls),
(425,415,o),
(436,427,o),
(462,432,cs),
(478,435,l),
(478,457,l),
(411,455,l),
(334,457,l),
(334,435,l),
(349,432,ls),
(369,428,o),
(379,421,o),
(379,410,cs),
(379,404,o),
(376,398,o),
(369,390,cs),
(263,266,l),
(278,245,l)
);
}
);
width = 492;
}
);
metricLeft = X;
metricRight = X;
},
{
color = 6;
glyphname = y.sc;
kernLeft = Y;
kernRight = Y;
layers = (
{
anchors = (
{
name = bottom;
pos = (249,0);
},
{
name = top;
pos = (259,455);
},
{
name = topleft;
pos = (27,455);
}
);
guides = (
{
pos = (2686,457);
},
{
pos = (2511,435);
}
);
layerId = "9372F035-DA38-4B54-966C-CEBA9B53DD02";
shapes = (
{
closed = 1;
nodes = (
(286,192,l),
(173,382,ls),
(169,389,o),
(167,396,o),
(167,402,cs),
(167,422,o),
(191,432,o),
(208,433,cs),
(235,435,l),
(235,458,l),
(131,455,l),
(17,458,l),
(17,435,l),
(37,431,ls),
(71,424,o),
(77,415,o),
(102,373,cs),
(230,161,l)
);
},
{
closed = 1;
nodes = (
(257,1,l),
(387,-2,l),
(387,21,l),
(370,23,ls),
(305,30,o),
(292,39,o),
(292,122,cs),
(292,198,l),
(222,191,l),
(222,122,ls),
(222,32,o),
(208,30,o),
(150,23,cs),
(134,21,l),
(134,-2,l)
);
},
{
closed = 1;
nodes = (
(389,379,ls),
(405,410,o),
(424,430,o),
(459,433,cs),
(481,435,l),
(481,457,l),
(399,454,l),
(307,457,l),
(307,435,l),
(330,433,ls),
(353,431,o),
(370,423,o),
(370,406,cs),
(370,401,o),
(369,395,o),
(365,388,c),
(271,206,l),
(289,185,l)
);
}
);
width = 498;
}
);
},
{
color = 6;
glyphname = z.sc;
kernLeft = H;
kernRight = H;
layers = (
{
anchors = (
{
name = bottom;
pos = (247,0);
},
{
name = top;
pos = (247,455);
}
);
layerId = "9372F035-DA38-4B54-966C-CEBA9B53DD02";
shapes = (
{
closed = 1;
nodes = (
(302,0,l),
(441,-2,l),
(441,69,l),
(447,178,l),
(425,178,l),
(412,78,o),
(394,29,o),
(290,27,cs),
(138,24,l),
(436,427,l),
(436,457,l),
(262,455,l),
(57,457,l),
(56,415,l),
(49,329,l),
(72,329,l),
(80,394,o),
(87,427,o),
(220,428,cs),
(349,428,l),
(47,17,l),
(47,-2,l)
);
}
);
width = 494;
}
);
},
{
color = 6;
glyphname = a.sups;
kernLeft = sups;
kernRight = sups;
layers = (
{
anchors = (
{
name = bottom;
pos = (136,297);
}
);
layerId = "9372F035-DA38-4B54-966C-CEBA9B53DD02";
shapes = (
{
closed = 1;
nodes = (
(187,288,o),
(243,319,o),
(266,361,c),
(267,317,o),
(283,288,o),
(338,288,cs),
(380,288,o),
(401,307,o),
(413,332,c),
(395,342,l),
(387,329,o),
(378,316,o),
(363,316,cs),
(330,316,o),
(331,362,o),
(331,389,cs),
(331,508,ls),
(331,521,o),
(332,533,o),
(332,543,cs),
(332,611,o),
(310,651,o),
(195,651,cs),
(134,651,o),
(53,627,o),
(53,567,cs),
(53,549,o),
(70,535,o),
(90,535,cs),
(111,535,o),
(126,554,o),
(126,573,cs),
(126,594,o),
(116,597,o),
(120,608,c),
(123,619,o),
(155,628,o),
(197,628,cs),
(262,628,o),
(266,582,o),
(266,536,cs),
(266,522,l),
(193,496,o),
(35,437,o),
(35,362,cs),
(35,311,o),
(77,288,o),
(136,288,cs)
);
},
{
closed = 1;
nodes = (
(131,320,o),
(108,337,o),
(108,365,cs),
(108,427,o),
(196,473,o),
(266,501,c),
(266,395,l),
(250,357,o),
(200,320,o),
(161,320,cs)
);
}
);
width = 398;
}
);
metricLeft = "=a-15";
metricRight = "=a-15";
},
{
color = 6;
glyphname = d.sups;
kernLeft = sups;
kernRight = sups;
layers = (
{
anchors = (
{
name = bottom;
pos = (234.89,297);
},
{
name = center;
pos = (344.45,739.26);
},
{
name = top;
pos = (234.89,634.74);
},
{
name = topright;
pos = (452.35,634.74);
}
);
layerId = "9372F035-DA38-4B54-966C-CEBA9B53DD02";
shapes = (
{
closed = 1;
nodes = (
(362,296,o),
(393,299,o),
(425,299,cs),
(452,299,l),
(452,322,l),
(401,322,o),
(383,332,o),
(383,382,cs),
(383,862,l),
(331,855,o),
(291,853,o),
(244,853,c),
(244,830,l),
(298,830,o),
(318,820,o),
(318,767,cs),
(318,350,l),
(325,352,l),
(336,293,l)
);
},
{
closed = 1;
nodes = (
(267,288,o),
(311,317,o),
(337,351,c),
(329,372,l),
(296,332,o),
(258,311,o),
(217,311,cs),
(150,311,o),
(107,374,o),
(107,469,cs),
(107,565,o),
(150,629,o),
(223,629,cs),
(268,629,o),
(296,608,o),
(322,578,c),
(329,599,l),
(303,631,o),
(264,651,o),
(217,651,cs),
(110,651,o),
(34,572,o),
(34,469,cs),
(34,366,o),
(110,288,o),
(212,288,cs)
);
}
);
width = 452;
}
);
},
{
color = 6;
glyphname = e.sups;
kernLeft = sups;
kernRight = sups;
layers = (
{
layerId = "9372F035-DA38-4B54-966C-CEBA9B53DD02";
shapes = (
{
closed = 1;
nodes = (
(292,288,o),
(341,322,o),
(364,388,c),
(340,396,l),
(318,339,o),
(277,313,o),
(229,313,cs),
(145,313,o),
(103,383,o),
(103,466,cs),
(103,556,o),
(139,628,o),
(218,628,cs),
(257,628,o),
(295,601,o),
(295,558,cs),
(295,523,o),
(264,506,o),
(208,506,cs),
(101,506,l),
(100,484,l),
(352,484,l),
(356,493,o),
(357,501,o),
(357,512,cs),
(357,597,o),
(302,651,o),
(218,651,cs),
(113,651,o),
(30,569,o),
(30,462,cs),
(30,359,o),
(105,288,o),
(218,288,cs)
);
}
);
width = 384;
}
);
metricLeft = "=e-15";
metricRight = "=e-15";
},
{
color = 6;
glyphname = h.sups;
kernLeft = sups;
kernRight = sups;
layers = (
{
layerId = "9372F035-DA38-4B54-966C-CEBA9B53DD02";
shapes = (
{
closed = 1;
nodes = (
(372.677,297,l),
(481,295,l),
(481,313,l),
(468,314,ls),
(420,320,o),
(408,321,o),
(408,391,cs),
(408,550,ls),
(408,616,o),
(362,650,o),
(286.394,649.934,cs),
(232.98,649.934,o),
(192.715,628.945,o),
(163.954,598.627,cs),
(148.34,582.302,o),
(136.836,562.867,o),
(126.975,541.877,c),
(146.697,541.877,l),
(166.419,583.856,o),
(207.506,626.613,o),
(267.494,626.613,cs),
(314.333,626.613,o),
(343.916,598.627,o),
(343.916,546.542,cs),
(343.916,391.064,ls),
(343.916,321.099,o),
(332.412,319.544,o),
(284.75,314.103,cs),
(271.603,312.548,l),
(271.603,294.668,l)
);
},
{
closed = 1;
nodes = (
(121,297,l),
(226,295,l),
(226,318,l),
(209,319,ls),
(162,322,o),
(153,326,o),
(153,391,cs),
(153,862,l),
(16,851,l),
(16,828,l),
(59,828,o),
(88,824,o),
(88,781,cs),
(88,391,ls),
(88,326,o),
(77,322,o),
(32,319,cs),
(15,318,l),
(15,295,l)
);
}
);
width = 492;
}
);
metricLeft = h;
metricRight = h;
},
{
color = 6;
glyphname = m.sups;
kernLeft = sups;
kernRight = sups;
layers = (
{
anchors = (
{
name = top;
pos = (397,637);
}
);
layerId = "9372F035-DA38-4B54-966C-CEBA9B53DD02";
shapes = (
{
closed = 1;
nodes = (
(118,297,l),
(215,295,l),
(215,318,l),
(199,319,ls),
(159,322,o),
(151,326,o),
(151,391,cs),
(151,646,l),
(104,639,o),
(65,637,o),
(14,637,c),
(14,614,l),
(64,614,o),
(86,605,o),
(86,568,cs),
(86,391,ls),
(86,326,o),
(77,322,o),
(30,319,cs),
(13,318,l),
(13,295,l)
);
},
{
closed = 1;
nodes = (
(363,297,l),
(461,295,l),
(461,318,l),
(448,319,ls),
(408,323,o),
(398,326,o),
(398,391,cs),
(398,550,ls),
(398,612,o),
(352,650,o),
(276,650,cs),
(208,650,o),
(160,612,o),
(131,542,c),
(151,542,l),
(167,584,o),
(202,627,o),
(262,627,cs),
(304,627,o),
(334,599,o),
(334,547,cs),
(334,391,ls),
(334,326,o),
(324,323,o),
(285,319,cs),
(272,318,l),
(272,295,l)
);
},
{
closed = 1;
nodes = (
(610,297,l),
(712,295,l),
(712,318,l),
(699,319,ls),
(656,322,o),
(645,326,o),
(645,391,cs),
(645,550,ls),
(645,612,o),
(599,650,o),
(523,650,cs),
(455,650,o),
(407,612,o),
(378,542,c),
(398,542,l),
(414,584,o),
(449,627,o),
(509,627,cs),
(551,627,o),
(581,599,o),
(581,547,cs),
(581,391,ls),
(581,326,o),
(571,322,o),
(532,319,cs),
(519,318,l),
(519,295,l)
);
}
);
width = 708;
}
);
metricLeft = "=m-15";
metricRight = "=m-15";
},
{
color = 6;
glyphname = n.sups;
kernLeft = sups;
kernRight = sups;
layers = (
{
anchors = (
{
name = bottom;
pos = (244,297);
},
{
name = top;
pos = (244,637);
}
);
layerId = "9372F035-DA38-4B54-966C-CEBA9B53DD02";
shapes = (
{
closed = 1;
nodes = (
(118,297,l),
(225,295,l),
(225,318,l),
(207,319,ls),
(160,322,o),
(151,326,o),
(151,394,cs),
(151,646,l),
(146,646,l),
(102,639,o),
(67,637,o),
(14,637,c),
(14,614,l),
(64,614,o),
(86,605,o),
(86,568,cs),
(86,394,ls),
(86,326,o),
(77,322,o),
(30,319,cs),
(13,318,l),
(13,295,l)
);
},
{
closed = 1;
nodes = (
(374,297,l),
(482,295,l),
(482,313,l),
(469,314,ls),
(421,320,o),
(409,321,o),
(409,391,cs),
(409,550,ls),
(409,616,o),
(363,650,o),
(287,650,cs),
(234,650,o),
(194,629,o),
(165,599,cs),
(149,582,o),
(138,563,o),
(128,542,c),
(148,542,l),
(167,584,o),
(209,627,o),
(268,627,cs),
(315,627,o),
(345,599,o),
(345,547,cs),
(345,391,ls),
(345,321,o),
(333,320,o),
(286,314,cs),
(273,313,l),
(273,295,l)
);
}
);
width = 478;
}
);
metricLeft = "=n-15";
metricRight = "=n-15";
},
{
color = 6;
glyphname = o.sups;
kernLeft = sups;
kernRight = sups;
layers = (
{
anchors = (
{
name = bottom;
pos = (221,296);
},
{
name = center;
pos = (221,466);
},
{
name = ogonek;
pos = (403,304);
}
);
layerId = "9372F035-DA38-4B54-966C-CEBA9B53DD02";
shapes = (
{
closed = 1;
nodes = (
(328,288,o),
(412,369,o),
(412,469,cs),
(412,571,o),
(328,651,o),
(221,651,cs),
(114,651,o),
(30,571,o),
(30,469,cs),
(30,369,o),
(114,288,o),
(221,288,cs)
);
},
{
closed = 1;
nodes = (
(136,312,o),
(103,380,o),
(103,469,cs),
(103,559,o),
(136,628,o),
(221,628,cs),
(307,628,o),
(340,559,o),
(340,469,cs),
(340,380,o),
(307,312,o),
(221,312,cs)
);
}
);
width = 442;
}
);
metricLeft = "=o-15";
metricRight = "=o-15";
},
{
color = 6;
glyphname = r.sups;
kernLeft = sups;
kernRight = sups;
layers = (
{
anchors = (
{
name = bottom;
pos = (167,297);
},
{
name = top;
pos = (167,637);
}
);
layerId = "9372F035-DA38-4B54-966C-CEBA9B53DD02";
shapes = (
{
closed = 1;
nodes = (
(119,297,l),
(224,295,l),
(224,318,l),
(208,319,l),
(160,325,o),
(151,326,o),
(151,391,cs),
(151,509,l),
(156,543,o),
(167,568,o),
(177,586,cs),
(189,609,o),
(206,623,o),
(219,623,cs),
(223,623,o),
(227,621,o),
(227,616,cs),
(227,609,o),
(224,605,o),
(224,593,cs),
(224,580,o),
(238,560,o),
(265,560,cs),
(288,560,o),
(305,578,o),
(305,604,cs),
(305,633,o),
(281,651,o),
(244,651,cs),
(193,651,o),
(163,622,o),
(141,556,c),
(151,646,l),
(93,638,o),
(56,635,o),
(13,635,c),
(13,614,l),
(68,614,o),
(86,605,o),
(86,553,cs),
(86,391,ls),
(86,326,o),
(77,325,o),
(29,319,c),
(13,318,l),
(13,295,l)
);
}
);
width = 310;
}
);
metricLeft = "=r-15";
metricRight = "=r-15";
},
{
color = 6;
glyphname = s.sups;
kernLeft = sups;
kernRight = sups;
layers = (
{
layerId = "9372F035-DA38-4B54-966C-CEBA9B53DD02";
shapes = (
{
closed = 1;
nodes = (
(247,288,o),
(290,338,o),
(290,392,cs),
(290,442,o),
(263,473,o),
(198,497,cs),
(165,509,ls),
(123,524,o),
(98,543,o),
(98,576,cs),
(98,608,o),
(121,631,o),
(156,631,cs),
(200,631,o),
(230,596,o),
(242,543,c),
(265,543,l),
(265,598,l),
(269,649,l),
(246,650,l),
(242,641,o),
(238,633,o),
(232,633,cs),
(227,633,o),
(220,637,o),
(206,642,cs),
(194,646,o),
(178,651,o),
(159,651,cs),
(95,651,o),
(45,608,o),
(45,550,cs),
(45,504,o),
(72,473,o),
(135,450,cs),
(165,440,l),
(211,422,o),
(239,402,o),
(239,368,cs),
(239,332,o),
(213,309,o),
(170,309,cs),
(110,309,o),
(80,350,o),
(68,393,cs),
(62,415,l),
(39,415,l),
(39,355,l),
(36,297,l),
(59,297,l),
(59,305,o),
(60,314,o),
(66,314,cs),
(72,314,o),
(80,307,o),
(100,300,cs),
(117,294,o),
(140,288,o),
(170,288,cs)
);
}
);
width = 316;
}
);
metricLeft = "=s-15";
metricRight = "=s-15";
},
{
color = 6;
glyphname = t.sups;
kernLeft = sups;
kernRight = sups;
layers = (
{
layerId = "9372F035-DA38-4B54-966C-CEBA9B53DD02";
shapes = (
{
closed = 1;
nodes = (
(202,288,o),
(227,298,o),
(244,316,cs),
(255,327,o),
(265,341,o),
(270,354,c),
(247,365,l),
(229,329,o),
(213,315,o),
(190,315,cs),
(158,315,o),
(142,338,o),
(142,384,cs),
(142,614,l),
(248,614,l),
(248,637,l),
(142,637,l),
(142,731,l),
(119,731,l),
(109,677,o),
(84,641,o),
(41,639,cs),
(15,637,l),
(15,614,l),
(77,614,l),
(77,387,ls),
(77,322,o),
(110,288,o),
(172,288,cs)
);
}
);
width = 265;
}
);
metricLeft = "=t-15";
metricRight = "=t-15";
},
{
color = 6;
glyphname = zero;
kernLeft = o;
kernRight = o;
layers = (
{
layerId = "9372F035-DA38-4B54-966C-CEBA9B53DD02";
shapes = (
{
closed = 1;
nodes = (
(378,-11,o),
(450,109,o),
(450,229,cs),
(450,349,o),
(378,469,o),
(245,469,cs),
(112,469,o),
(40,349,o),
(40,229,cs),
(40,109,o),
(112,-11,o),
(245,-11,cs)
);
},
{
closed = 1;
nodes = (
(144,19,o),
(120,110,o),
(120,229,cs),
(120,348,o),
(144,439,o),
(245,439,cs),
(346,439,o),
(370,348,o),
(370,229,cs),
(370,110,o),
(346,19,o),
(245,19,cs)
);
}
);
width = 490;
}
);
unicode = 48;
},
{
color = 6;
glyphname = one;
kernLeft = n;
kernRight = one;
layers = (
{
layerId = "9372F035-DA38-4B54-966C-CEBA9B53DD02";
shapes = (
{
closed = 1;
nodes = (
(153,0,l),
(276,-3,l),
(276,20,l),
(260,22,ls),
(202,29,o),
(188,31,o),
(188,121,cs),
(188,475,l),
(172,467,o),
(148,461,o),
(122,456,c),
(94,452,o),
(63,449,o),
(34,450,c),
(34,420,l),
(88,421,o),
(118,412,o),
(118,337,cs),
(118,121,ls),
(118,31,o),
(104,29,o),
(46,22,cs),
(30,20,l),
(30,-3,l)
);
}
);
width = 306;
}
);
unicode = 49;
},
{
color = 6;
glyphname = two;
kernLeft = o;
kernRight = o;
layers = (
{
layerId = "9372F035-DA38-4B54-966C-CEBA9B53DD02";
shapes = (
{
closed = 1;
nodes = (
(343,-88,l),
(344,35,l),
(349,79,l),
(151,64,l),
(196,104,ls),
(262,163,o),
(354,244,o),
(354,334,cs),
(354,399,o),
(300,469,o),
(196,469,cs),
(109,469,o),
(44,413,o),
(44,335,cs),
(44,282,o),
(74,238,o),
(119,218,c),
(129,240,l),
(104,249,o),
(74,283,o),
(74,332,cs),
(74,386,o),
(108,438,o),
(177,438,cs),
(235,438,o),
(274,393,o),
(274,322,cs),
(274,222,o),
(201,158,o),
(135,86,cs),
(75,20,l),
(75,0,l),
(219,0,ls),
(309,0,o),
(311,-14,o),
(318,-72,cs),
(320,-88,l)
);
}
);
width = 427;
}
);
unicode = 50;
},
{
color = 6;
glyphname = three;
kernLeft = o;
kernRight = o;
layers = (
{
layerId = "9372F035-DA38-4B54-966C-CEBA9B53DD02";
shapes = (
{
closed = 1;
nodes = (
(306,-294,o),
(378,-189,o),
(378,-68,cs),
(378,31,o),
(310,120,o),
(211,120,cs),
(202,120,o),
(194,119,o),
(184,118,c),
(244,159,ls),
(329,217,o),
(353,276,o),
(353,328,cs),
(353,410,o),
(293,469,o),
(193,469,cs),
(102,469,o),
(33,413,o),
(33,335,cs),
(33,281,o),
(61,236,o),
(118,213,c),
(126,236,l),
(97,247,o),
(63,275,o),
(63,333,cs),
(63,390,o),
(107,438,o),
(169,438,cs),
(229,438,o),
(273,399,o),
(273,327,cs),
(273,224,o),
(202,158,o),
(154,124,c),
(137,111,o),
(129,107,o),
(111,99,c),
(121,73,l),
(137,82,o),
(163,92,o),
(196,92,cs),
(253,92,o),
(294,44,o),
(294,-59,cs),
(294,-184,o),
(240,-267,o),
(154,-267,cs),
(94,-267,o),
(76,-242,o),
(76,-216,cs),
(76,-199,o),
(85,-187,o),
(85,-171,cs),
(85,-146,o),
(66,-128,o),
(42,-128,cs),
(13,-128,o),
(-6,-151,o),
(-6,-183,cs),
(-6,-248,o),
(73,-294,o),
(158,-294,cs)
);
}
);
width = 446;
}
);
unicode = 51;
},
{
color = 6;
glyphname = four;
kernLeft = four.lf;
kernRight = four.lf;
layers = (
{
layerId = "9372F035-DA38-4B54-966C-CEBA9B53DD02";
shapes = (
{
closed = 1;
nodes = (
(446,20,l),
(430,22,ls),
(372,29,o),
(358,31,o),
(358,121,cs),
(358,212,l),
(470,212,l),
(470,245,l),
(358,245,l),
(358,681,l),
(336,681,l),
(-5,241,l),
(-5,212,l),
(290,212,l),
(289,121,ls),
(288,31,o),
(274,29,o),
(216,22,c),
(200,21,l),
(200,-2,l),
(323,0,l),
(446,-3,l)
);
},
{
closed = 1;
nodes = (
(292,574,l),
(290,245,l),
(31,245,l)
);
}
);
width = 492;
}
);
unicode = 52;
},
{
color = 6;
glyphname = five;
kernLeft = five.lf;
layers = (
{
guides = (
{
angle = 86;
pos = (113,367);
}
);
layerId = "9372F035-DA38-4B54-966C-CEBA9B53DD02";
shapes = (
{
closed = 1;
nodes = (
(316,-11,o),
(412,90,o),
(412,250,cs),
(412,379,o),
(329,454,o),
(236,454,cs),
(196,454,o),
(160,438,o),
(136,413,c),
(152,615,l),
(191,615,ls),
(295,615,o),
(371,624,o),
(371,696,cs),
(371,706,l),
(361,706,l),
(335,691,o),
(284,688,o),
(229,688,cs),
(198,688,l),
(158,689,l),
(160,716,l),
(134,716,l),
(108,354,l),
(127,354,l),
(143,389,o),
(175,421,o),
(220,421,cs),
(272,421,o),
(329,372,o),
(329,248,cs),
(329,129,o),
(285,17,o),
(198,17,cs),
(160,17,o),
(130,40,o),
(130,73,cs),
(130,93,o),
(138,105,o),
(138,121,cs),
(138,144,o),
(122,162,o),
(97,162,cs),
(68,162,o),
(47,138,o),
(47,100,cs),
(47,46,o),
(102,-11,o),
(203,-11,cs)
);
}
);
width = 477;
}
);
unicode = 53;
},
{
color = 6;
glyphname = six;
kernLeft = zero.lf;
kernRight = six.lf;
layers = (
{
layerId = "9372F035-DA38-4B54-966C-CEBA9B53DD02";
shapes = (
{
closed = 1;
nodes = (
(388,-11,o),
(463,92,o),
(463,216,cs),
(463,367,o),
(368,429,o),
(287,429,cs),
(219,429,o),
(167,395,o),
(135,332,c),
(135,339,l),
(131,576,o),
(215,695,o),
(294,695,cs),
(328,695,o),
(344,675,o),
(353,636,cs),
(358,615,o),
(379,607,o),
(396,607,c),
(422,608,o),
(441,625,o),
(441,656,cs),
(441,705,o),
(376,724,o),
(314,724,cs),
(150,724,o),
(57,553,o),
(57,319,cs),
(57,133,o),
(102,-11,o),
(263,-11,cs)
);
},
{
closed = 1;
nodes = (
(183,19,o),
(144,92,o),
(144,210,cs),
(144,325,o),
(206,398,o),
(272,398,cs),
(342,398,o),
(383,338,o),
(383,220,cs),
(383,92,o),
(329,19,o),
(255,19,cs)
);
}
);
width = 531;
}
);
unicode = 54;
},
{
color = 6;
glyphname = seven;
kernLeft = seven;
kernRight = seven;
layers = (
{
guides = (
{
pos = (-1807,283);
}
);
layerId = "9372F035-DA38-4B54-966C-CEBA9B53DD02";
shapes = (
{
closed = 1;
nodes = (
(193,-294,o),
(217,-282,o),
(232,-231,cs),
(424,434,l),
(424,450,l),
(67,450,l),
(67,500,l),
(45,500,l),
(45,268,l),
(67,268,l),
(67,368,l),
(381,368,l),
(150,-197,ls),
(142,-216,o),
(138,-234,o),
(138,-249,cs),
(138,-276,o),
(151,-294,o),
(173,-294,cs)
);
}
);
width = 478;
}
);
unicode = 55;
},
{
color = 6;
glyphname = eight;
kernLeft = zero.lf;
kernRight = zero.lf;
layers = (
{
layerId = "9372F035-DA38-4B54-966C-CEBA9B53DD02";
shapes = (
{
closed = 1;
nodes = (
(361,-11,o),
(441,68,o),
(441,178,cs),
(441,280,o),
(373,338,o),
(312,385,cs),
(234,446,ls),
(195,476,o),
(143,518,o),
(143,582,cs),
(143,645,o),
(193,689,o),
(258,689,cs),
(336,689,o),
(371,633,o),
(371,577,cs),
(371,502,o),
(308,450,o),
(262,416,c),
(286,397,l),
(341,437,o),
(408,488,o),
(408,577,cs),
(408,654,o),
(358,724,o),
(252,724,cs),
(159,724,o),
(72,665,o),
(72,556,cs),
(72,481,o),
(114,427,o),
(167,386,cs),
(247,324,ls),
(311,275,o),
(376,220,o),
(376,139,cs),
(376,65,o),
(323,21,o),
(238,21,cs),
(136,21,o),
(87,79,o),
(87,155,cs),
(87,247,o),
(158,305,o),
(220,355,c),
(195,374,l),
(130,321,o),
(50,260,o),
(50,156,cs),
(50,65,o),
(111,-11,o),
(237,-11,cs)
);
}
);
width = 491;
}
);
unicode = 56;
},
{
color = 6;
glyphname = nine;
kernLeft = o;
kernRight = o;
layers = (
{
layerId = "9372F035-DA38-4B54-966C-CEBA9B53DD02";
shapes = (
{
closed = 1;
nodes = (
(391,-296,o),
(484,-132,o),
(484,112,cs),
(484,311,o),
(441,469,o),
(268,469,cs),
(142,469,o),
(52,349,o),
(57,219,cs),
(64,69,o),
(156,-11,o),
(261,-11,cs),
(316,-11,o),
(370,9,o),
(401,63,c),
(406,-165,o),
(333,-265,o),
(258,-265,cs),
(233,-265,o),
(222,-246,o),
(201,-206,c),
(187,-183,o),
(174,-178,o),
(157,-178,c),
(131,-179,o),
(112,-198,o),
(112,-226,cs),
(112,-281,o),
(170,-296,o),
(224,-296,cs)
);
},
{
closed = 1;
nodes = (
(182,19,o),
(143,88,o),
(137,223,cs),
(131,360,o),
(186,439,o),
(270,439,cs),
(357,439,o),
(396,366,o),
(396,244,cs),
(396,113,o),
(377,19,o),
(268,19,cs)
);
}
);
width = 555;
}
);
unicode = 57;
},
{
color = 6;
glyphname = zero.lf;
kernLeft = zero.lf;
kernRight = zero.lf;
layers = (
{
layerId = "9372F035-DA38-4B54-966C-CEBA9B53DD02";
shapes = (
{
closed = 1;
nodes = (
(469,-11,o),
(572,136,o),
(572,358,cs),
(572,578,o),
(469,724,o),
(308,724,cs),
(148,724,o),
(45,578,o),
(45,358,cs),
(45,136,o),
(148,-11,o),
(308,-11,cs)
);
},
{
closed = 1;
nodes = (
(175,15,o),
(141,150,o),
(141,358,cs),
(141,562,o),
(175,699,o),
(308,699,cs),
(443,699,o),
(477,562,o),
(477,358,cs),
(477,150,o),
(443,15,o),
(308,15,cs)
);
}
);
width = 617;
}
);
},
{
color = 6;
glyphname = one.lf;
kernLeft = one.lf;
kernRight = one.lf;
layers = (
{
layerId = "9372F035-DA38-4B54-966C-CEBA9B53DD02";
shapes = (
{
closed = 1;
nodes = (
(200,0,l),
(353,-3,l),
(353,22,l),
(333,24,ls),
(257,32,o),
(239,34,o),
(239,133,cs),
(239,715,l),
(201,715,l),
(150,694,o),
(122,675,o),
(45,666,c),
(45,636,l),
(79,633,ls),
(144,627,o),
(163,609,o),
(163,552,cs),
(163,133,ls),
(163,34,o),
(143,32,o),
(67,24,cs),
(47,22,l),
(47,-3,l)
);
}
);
width = 377;
}
);
},
{
color = 6;
glyphname = two.lf;
kernLeft = three.lf;
kernRight = zero.lf;
layers = (
{
layerId = "9372F035-DA38-4B54-966C-CEBA9B53DD02";
shapes = (
{
closed = 1;
nodes = (
(466,0,l),
(466,29,l),
(469,177,l),
(444,177,l),
(442,157,ls),
(434,88,o),
(432,71,o),
(333,69,cs),
(119,66,l),
(279,219,l),
(384,328,o),
(465,407,o),
(465,514,cs),
(465,649,o),
(378,724,o),
(261,724,cs),
(129,724,o),
(50,622,o),
(50,532,cs),
(50,471,o),
(73,433,o),
(114,433,cs),
(140,433,o),
(163,450,o),
(163,481,cs),
(163,503,o),
(153,514,o),
(131,530,c),
(112,541,o),
(97,561,o),
(97,584,cs),
(97,636,o),
(158,679,o),
(229,679,cs),
(331,679,o),
(377,608,o),
(377,506,cs),
(377,414,o),
(332,346,o),
(242,236,c),
(59,36,l),
(59,0,l)
);
}
);
width = 534;
}
);
},
{
color = 6;
glyphname = three.lf;
kernLeft = three.lf;
kernRight = three.lf;
layers = (
{
guides = (
{
pos = (2,-280);
}
);
layerId = "9372F035-DA38-4B54-966C-CEBA9B53DD02";
shapes = (
{
closed = 1;
nodes = (
(408,-11,o),
(483,91,o),
(483,209,cs),
(483,307,o),
(429,398,o),
(294,400,cs),
(288,400,o),
(282,400,o),
(276,399,c),
(381,436,o),
(454,490,o),
(454,577,cs),
(454,683,o),
(365,724,o),
(258,724,cs),
(150,724,o),
(68,663,o),
(68,577,cs),
(68,532,o),
(91,501,o),
(125,501,cs),
(146,501,o),
(168,515,o),
(168,539,c),
(170,565,o),
(159,572,o),
(142,585,cs),
(131,593,o),
(125,605,o),
(126,620,c),
(126,663,o),
(178,694,o),
(235,694,cs),
(329,694,o),
(366,637,o),
(366,577,cs),
(366,487,o),
(325,438,o),
(178,392,c),
(177,357,l),
(203,367,o),
(230,374,o),
(261,374,cs),
(344,374,o),
(395,336,o),
(395,232,cs),
(395,136,o),
(357,18,o),
(224,18,cs),
(153,18,o),
(136,44,o),
(136,67,cs),
(136,84,o),
(150,95,o),
(150,118,cs),
(150,143,o),
(135,160,o),
(110,161,c),
(73,161,o),
(55,136,o),
(55,101,cs),
(55,37,o),
(133,-11,o),
(223,-11,cs)
);
}
);
width = 543;
}
);
},
{
color = 6;
glyphname = four.lf;
kernLeft = four.lf;
kernRight = four.lf;
layers = (
{
layerId = "9372F035-DA38-4B54-966C-CEBA9B53DD02";
shapes = (
{
closed = 1;
nodes = (
(355,0,l),
(490,-3,l),
(490,22,l),
(472,24,ls),
(408,32,o),
(393,34,o),
(393,133,cs),
(393,171,l),
(486,171,l),
(486,197,l),
(393,197,l),
(393,433,l),
(369,433,l),
(358,407,o),
(330,390,o),
(315,386,c),
(315,197,l),
(76,197,l),
(447,696,l),
(447,710,l),
(317,710,l),
(262,578,o),
(183,401,o),
(85,260,c),
(44,196,l),
(44,171,l),
(315,171,l),
(315,133,ls),
(315,34,o),
(297,32,o),
(221,24,cs),
(201,22,l),
(201,-3,l)
);
}
);
width = 542;
}
);
},
{
color = 6;
glyphname = five.lf;
kernLeft = five.lf;
kernRight = six.lf;
layers = (
{
layerId = "9372F035-DA38-4B54-966C-CEBA9B53DD02";
shapes = (
{
closed = 1;
nodes = (
(365,-11,o),
(463,92,o),
(463,238,cs),
(463,387,o),
(368,446,o),
(271,446,cs),
(219,446,o),
(163,418,o),
(139,386,c),
(140,628,l),
(282,628,ls),
(369,628,o),
(430,632,o),
(432,715,c),
(427,717,l),
(387,711,o),
(351,710,o),
(317,710,cs),
(274,710,l),
(113,710,l),
(109,322,l),
(135,322,l),
(151,374,o),
(202,414,o),
(256,414,cs),
(325,414,o),
(373,352,o),
(373,238,cs),
(373,134,o),
(335,15,o),
(202,15,cs),
(134,15,o),
(115,43,o),
(115,68,cs),
(115,84,o),
(130,96,o),
(131,118,c),
(131,143,o),
(115,161,o),
(89,162,c),
(54,162,o),
(35,136,o),
(35,100,cs),
(35,37,o),
(113,-11,o),
(200,-11,cs)
);
}
);
width = 528;
}
);
},
{
color = 6;
glyphname = six.lf;
kernLeft = zero.lf;
kernRight = six.lf;
layers = (
{
layerId = "9372F035-DA38-4B54-966C-CEBA9B53DD02";
shapes = (
{
closed = 1;
nodes = (
(417,-11,o),
(482,107,o),
(482,221,cs),
(482,357,o),
(385,429,o),
(289,429,cs),
(232,429,o),
(173,404,o),
(133,341,c),
(134,417,o),
(139,480,o),
(149,531,cs),
(172,644,o),
(228,696,o),
(300,696,cs),
(332,696,o),
(369,682,o),
(369,656,cs),
(369,638,o),
(350,630,o),
(350,607,cs),
(350,586,o),
(365,562,o),
(396,562,cs),
(429,562,o),
(444,587,o),
(444,620,cs),
(444,680,o),
(378,724,o),
(299,724,cs),
(156,724,o),
(45,604,o),
(45,330,cs),
(45,115,o),
(102,-11,o),
(265,-11,cs)
);
},
{
closed = 1;
nodes = (
(183,17,o),
(133,95,o),
(133,221,cs),
(133,232,ls),
(133,327,o),
(197,398,o),
(276,398,cs),
(349,398,o),
(394,344,o),
(394,221,cs),
(394,95,o),
(366,17,o),
(271,17,cs)
);
}
);
width = 527;
}
);
metricLeft = zero.lf;
metricRight = zero.lf;
},
{
color = 6;
glyphname = seven.lf;
kernLeft = seven.lf;
kernRight = seven.lf;
layers = (
{
layerId = "9372F035-DA38-4B54-966C-CEBA9B53DD02";
shapes = (
{
closed = 1;
nodes = (
(187,0,l),
(238,179,o),
(289,329,o),
(379,535,c),
(454,688,l),
(454,710,l),
(43,710,l),
(43,675,l),
(40,527,l),
(65,527,l),
(67,547,ls),
(75,616,o),
(77,635,o),
(176,635,cs),
(399,635,l),
(62,0,l)
);
}
);
width = 474;
}
);
},
{
color = 6;
glyphname = eight.lf;
kernLeft = zero.lf;
kernRight = zero.lf;
layers = (
{
layerId = "9372F035-DA38-4B54-966C-CEBA9B53DD02";
shapes = (
{
closed = 1;
nodes = (
(422,-11,o),
(499,90,o),
(499,189,cs),
(499,270,o),
(449,351,o),
(352,381,c),
(440,406,o),
(485,476,o),
(485,546,cs),
(485,635,o),
(412,724,o),
(282,724,cs),
(162,724,o),
(82,635,o),
(82,546,cs),
(82,478,o),
(123,410,o),
(207,382,c),
(107,355,o),
(55,271,o),
(55,189,cs),
(55,90,o),
(133,-11,o),
(277,-11,cs)
);
},
{
closed = 1;
nodes = (
(173,13,o),
(148,88,o),
(148,189,cs),
(148,290,o),
(177,370,o),
(277,370,cs),
(377,370,o),
(406,290,o),
(406,189,cs),
(406,88,o),
(382,13,o),
(277,13,cs)
);
},
{
closed = 1;
nodes = (
(200,390,o),
(166,456,o),
(166,546,cs),
(166,635,o),
(196,700,o),
(282,700,cs),
(370,700,o),
(399,635,o),
(399,546,cs),
(399,456,o),
(365,390,o),
(282,390,cs)
);
}
);
width = 554;
}
);
metricLeft = "=zero.lf+10";
metricRight = "=zero.lf+10";
},
{
color = 6;
glyphname = nine.lf;
kernLeft = zero.lf;
kernRight = zero.lf;
layers = (
{
layerId = "9372F035-DA38-4B54-966C-CEBA9B53DD02";
shapes = (
{
closed = 1;
nodes = (
(110,724,o),
(45,606,o),
(45,492,cs),
(45,356,o),
(142,284,o),
(238,284,cs),
(295,284,o),
(354,309,o),
(394,372,c),
(393,296,o),
(388,233,o),
(378,182,cs),
(355,69,o),
(299,17,o),
(227,17,cs),
(195,17,o),
(158,31,o),
(158,57,cs),
(158,75,o),
(177,83,o),
(177,106,cs),
(177,127,o),
(162,151,o),
(131,151,cs),
(98,151,o),
(83,126,o),
(83,93,cs),
(83,33,o),
(149,-11,o),
(228,-11,cs),
(371,-11,o),
(482,109,o),
(482,383,cs),
(482,598,o),
(425,724,o),
(262,724,cs)
);
},
{
closed = 1;
nodes = (
(344,696,o),
(394,618,o),
(394,492,cs),
(394,481,ls),
(394,386,o),
(330,315,o),
(251,315,cs),
(178,315,o),
(133,369,o),
(133,492,cs),
(133,618,o),
(161,696,o),
(256,696,cs)
);
}
);
width = 527;
}
);
metricLeft = zero.lf;
metricRight = zero.lf;
},
{
color = 6;
glyphname = fraction;
kernLeft = slash;
kernRight = slash;
layers = (
{
layerId = "9372F035-DA38-4B54-966C-CEBA9B53DD02";
shapes = (
{
closed = 1;
nodes = (
(-57,0,l),
(434,722,l),
(381,722,l),
(-110,0,l)
);
}
);
width = 291;
}
);
unicode = 8260;
},
{
color = 6;
glyphname = zero.sups;
kernLeft = sups;
kernRight = sups;
layers = (
{
layerId = "9372F035-DA38-4B54-966C-CEBA9B53DD02";
shapes = (
{
closed = 1;
nodes = (
(305,291,o),
(372,374,o),
(372,505,cs),
(372,634,o),
(305,717,o),
(200,717,cs),
(97,717,o),
(30,634,o),
(30,505,cs),
(30,374,o),
(97,291,o),
(200,291,cs)
);
},
{
closed = 1;
nodes = (
(134,316,o),
(104,373,o),
(104,505,cs),
(104,635,o),
(134,692,o),
(200,692,cs),
(268,692,o),
(298,635,o),
(298,505,cs),
(298,373,o),
(268,316,o),
(200,316,cs)
);
}
);
width = 402;
}
);
metricLeft = "=zero.lf-15";
metricRight = "=zero.lf-15";
},
{
color = 6;
glyphname = one.sups;
kernLeft = sups;
kernRight = sups;
layers = (
{
layerId = "9372F035-DA38-4B54-966C-CEBA9B53DD02";
shapes = (
{
closed = 1;
nodes = (
(122,297,l),
(226,295,l),
(226,318,l),
(206,319,ls),
(159,321,o),
(155,328,o),
(155,380,cs),
(155,716,l),
(119,716,l),
(68,695,o),
(61,694,o),
(15,690,c),
(15,667,l),
(45,665,ls),
(80,663,o),
(90,654,o),
(90,618,cs),
(90,380,ls),
(90,328,o),
(85,321,o),
(37,319,cs),
(17,318,l),
(17,295,l)
);
}
);
width = 241;
}
);
metricLeft = "=one-15";
metricRight = "=one-15";
},
{
color = 6;
glyphname = two.sups;
kernLeft = sups;
kernRight = sups;
layers = (
{
layerId = "9372F035-DA38-4B54-966C-CEBA9B53DD02";
shapes = (
{
closed = 1;
nodes = (
(306,297,l),
(306,314,l),
(308,400,l),
(287,400,l),
(274,364,o),
(267,358,o),
(215,357,cs),
(80,355,l),
(76,327,l),
(186,424,ls),
(257,487,o),
(305,535,o),
(305,595,cs),
(305,669,o),
(252,717,o),
(170,717,cs),
(81,717,o),
(30,656,o),
(30,606,cs),
(30,572,o),
(45,546,o),
(79,546,cs),
(100,546,o),
(115,560,o),
(115,578,cs),
(115,598,o),
(104,608,o),
(93,614,cs),
(84,619,o),
(76,620,o),
(76,636,cs),
(76,668,o),
(109,691,o),
(150,691,cs),
(205,691,o),
(231,651,o),
(231,590,cs),
(231,535,o),
(208,491,o),
(153,434,c),
(35,320,l),
(35,297,l)
);
}
);
width = 348;
}
);
},
{
color = 6;
glyphname = three.sups;
kernLeft = sups;
kernRight = sups;
layers = (
{
layerId = "9372F035-DA38-4B54-966C-CEBA9B53DD02";
shapes = (
{
closed = 1;
nodes = (
(247,291,o),
(313,339,o),
(313,418,cs),
(313,486,o),
(264,528,o),
(185,529,cs),
(178,529,o),
(174,529,o),
(168,528,c),
(172,526,l),
(255,554,o),
(295,588,o),
(295,632,cs),
(295,685,o),
(244,717,o),
(162,717,cs),
(90,717,o),
(34,680,o),
(34,632,cs),
(34,602,o),
(51,578,o),
(78,578,cs),
(102,578,o),
(115,592,o),
(115,610,cs),
(115,624,o),
(107,629,o),
(99,635,c),
(93,640,o),
(88,646,o),
(88,657,cs),
(88,681,o),
(116,695,o),
(148,695,cs),
(200,695,o),
(221,666,o),
(221,632,cs),
(221,577,o),
(197,546,o),
(108,521,c),
(114,499,l),
(126,503,o),
(144,509,o),
(164,509,cs),
(216,509,o),
(240,485,o),
(240,432,cs),
(240,374,o),
(216,307,o),
(144,307,cs),
(114,307,o),
(94,315,o),
(94,336,cs),
(94,349,o),
(101,354,o),
(101,371,cs),
(101,387,o),
(90,401,o),
(69,401,cs),
(43,401,o),
(25,384,o),
(25,361,cs),
(25,315,o),
(78,291,o),
(140,291,cs)
);
}
);
width = 348;
}
);
},
{
color = 6;
glyphname = four.sups;
kernLeft = sups;
kernRight = sups;
layers = (
{
layerId = "9372F035-DA38-4B54-966C-CEBA9B53DD02";
shapes = (
{
closed = 1;
nodes = (
(218,296,l),
(303,294,l),
(304,319,l),
(292,320,ls),
(255,323,o),
(251,328,o),
(251,373,cs),
(251,395,l),
(300,395,l),
(300,417,l),
(251,417,l),
(251,547,l),
(229,547,l),
(214,534,o),
(198,524,o),
(183,520,c),
(183,417,l),
(22,417,l),
(22,401,l),
(285,702,l),
(285,710,l),
(179,710,l),
(137,630,o),
(67,484,o),
(0,406,c),
(0,395,l),
(183,395,l),
(183,373,ls),
(183,328,o),
(179,324,o),
(132,320,c),
(110,319,l),
(111,294,l)
);
}
);
width = 324;
}
);
},
{
color = 6;
glyphname = five.sups;
kernLeft = sups;
kernRight = sups;
layers = (
{
layerId = "9372F035-DA38-4B54-966C-CEBA9B53DD02";
shapes = (
{
closed = 1;
nodes = (
(237,292,o),
(303,349,o),
(303,436,cs),
(303,510,o),
(256,557,o),
(187,557,cs),
(136,557,o),
(93,529,o),
(82,498,c),
(97,506,l),
(97,646,l),
(183,646,ls),
(239,646,o),
(286,650,o),
(287,713,c),
(264,712,o),
(213,710,o),
(178,710,cs),
(74,710,l),
(72,485,l),
(95,485,l),
(112,516,o),
(138,534,o),
(168,534,cs),
(206,534,o),
(229,496,o),
(229,436,cs),
(229,378,o),
(208,315,o),
(139,315,cs),
(108,315,o),
(93,321,o),
(93,337,cs),
(93,350,o),
(104,359,o),
(104,378,cs),
(104,399,o),
(89,411,o),
(68,412,c),
(42,412,o),
(25,391,o),
(25,366,cs),
(25,322,o),
(78,292,o),
(138,292,cs)
);
}
);
width = 343;
}
);
},
{
color = 6;
glyphname = six.sups;
kernLeft = sups;
kernRight = sups;
layers = (
{
layerId = "9372F035-DA38-4B54-966C-CEBA9B53DD02";
shapes = (
{
closed = 1;
nodes = (
(291,291,o),
(333,361,o),
(333,425,cs),
(333,495,o),
(277,546,o),
(202,546,cs),
(158,546,o),
(118,526,o),
(97,495,c),
(113,495,l),
(114,540,o),
(117,578,o),
(123,605,cs),
(137,668,o),
(167,701,o),
(209,701,cs),
(231,701,o),
(244,693,o),
(244,677,cs),
(244,662,o),
(232,656,o),
(232,637,cs),
(232,619,o),
(248,603,o),
(270,603,cs),
(294,603,o),
(309,623,o),
(309,646,cs),
(309,689,o),
(273,717,o),
(209,717,cs),
(101,717,o),
(40,634,o),
(40,488,cs),
(40,352,o),
(85,291,o),
(187,291,cs)
);
},
{
closed = 1;
nodes = (
(143,314,o),
(113,356,o),
(113,417,cs),
(113,484,o),
(147,523,o),
(194,523,cs),
(236,523,o),
(260,489,o),
(260,425,cs),
(260,348,o),
(238,314,o),
(191,314,cs)
);
}
);
width = 363;
}
);
},
{
color = 6;
glyphname = seven.sups;
kernLeft = sups;
kernRight = sups;
layers = (
{
layerId = "9372F035-DA38-4B54-966C-CEBA9B53DD02";
shapes = (
{
closed = 1;
nodes = (
(135,297,l),
(168,403,o),
(201,492,o),
(256,608,c),
(303,697,l),
(304,710,l),
(27,710,l),
(25,584,l),
(48,584,l),
(52,602,ls),
(60,639,o),
(69,648,o),
(120,648,cs),
(260,648,l),
(263,666,l),
(40,297,l)
);
}
);
width = 304;
}
);
},
{
color = 6;
glyphname = eight.sups;
kernLeft = sups;
kernRight = sups;
layers = (
{
layerId = "9372F035-DA38-4B54-966C-CEBA9B53DD02";
shapes = (
{
closed = 1;
nodes = (
(282,291,o),
(333,352,o),
(333,407,cs),
(333,458,o),
(294,501,o),
(233,518,c),
(289,533,o),
(324,569,o),
(324,614,cs),
(324,663,o),
(276,717,o),
(187,717,cs),
(105,717,o),
(52,663,o),
(52,614,cs),
(52,570,o),
(84,535,o),
(137,519,c),
(75,503,o),
(35,459,o),
(35,407,cs),
(35,352,o),
(86,291,o),
(184,291,cs)
);
},
{
closed = 1;
nodes = (
(132,312,o),
(109,341,o),
(109,407,cs),
(109,472,o),
(134,507,o),
(184,507,cs),
(234,507,o),
(259,472,o),
(259,407,cs),
(259,341,o),
(237,312,o),
(184,312,cs)
);
},
{
closed = 1;
nodes = (
(146,528,o),
(123,559,o),
(123,614,cs),
(123,664,o),
(141,697,o),
(187,697,cs),
(234,697,o),
(252,664,o),
(252,614,cs),
(252,559,o),
(229,528,o),
(187,528,cs)
);
}
);
width = 368;
}
);
},
{
color = 6;
glyphname = .notdef;
layers = (
{
layerId = "9372F035-DA38-4B54-966C-CEBA9B53DD02";
shapes = (
{
closed = 1;
nodes = (
(790,0,l),
(790,710,l),
(80,710,l),
(80,0,l)
);
},
{
closed = 1;
nodes = (
(435,325,l),
(715,45,l),
(154,45,l)
);
},
{
closed = 1;
nodes = (
(125,634,l),
(402,357,l),
(125,80,l)
);
},
{
closed = 1;
nodes = (
(158,665,l),
(711,665,l),
(435,389,l)
);
},
{
closed = 1;
nodes = (
(467,357,l),
(745,635,l),
(745,79,l)
);
}
);
width = 870;
}
);
},
{
color = 6;
glyphname = period;
kernLeft = period;
kernRight = period;
layers = (
{
layerId = "9372F035-DA38-4B54-966C-CEBA9B53DD02";
shapes = (
{
closed = 1;
nodes = (
(159,-11,o),
(186,18,o),
(186,53,cs),
(186,86,o),
(159,115,o),
(124,115,cs),
(87,115,o),
(60,86,o),
(60,53,cs),
(60,18,o),
(87,-11,o),
(124,-11,cs)
);
}
);
width = 246;
}
);
unicode = 46;
},
{
color = 6;
glyphname = comma;
kernLeft = period;
kernRight = period;
layers = (
{
layerId = "9372F035-DA38-4B54-966C-CEBA9B53DD02";
shapes = (
{
closed = 1;
nodes = (
(106,-197,o),
(146,-168,o),
(176,-128,cs),
(204,-92,o),
(223,-47,o),
(223,0,cs),
(223,63,o),
(193,123,o),
(131,123,cs),
(85,123,o),
(60,92,o),
(60,56,cs),
(60,19,o),
(86,-11,o),
(120,-11,cs),
(157,-11,o),
(173,14,o),
(173,37,cs),
(173,49,o),
(168,63,o),
(163,70,c),
(166,75,l),
(186,65,o),
(193,25,o),
(193,0,cs),
(193,-86,o),
(126,-147,o),
(62,-189,c),
(76,-216,l)
);
}
);
visible = 1;
width = 282;
}
);
unicode = 44;
},
{
color = 6;
glyphname = exclam;
layers = (
{
layerId = "9372F035-DA38-4B54-966C-CEBA9B53DD02";
shapes = (
{
closed = 1;
nodes = (
(140,199,l),
(143,348,o),
(159,495,o),
(173,643,c),
(173,648,o),
(174,653,o),
(174,657,cs),
(174,704,o),
(151,724,o),
(124,724,cs),
(95,724,o),
(70,700,o),
(75,643,cs),
(89,495,o),
(104,347,o),
(108,199,c)
);
},
{
closed = 1;
nodes = (
(159,-14,o),
(188,15,o),
(188,50,cs),
(188,85,o),
(159,114,o),
(124,114,cs),
(89,114,o),
(60,85,o),
(60,50,cs),
(60,15,o),
(89,-14,o),
(124,-14,cs)
);
}
);
width = 248;
}
);
metricLeft = period;
metricRight = "=period";
unicode = 33;
},
{
color = 3;
glyphname = question;
layers = (
{
layerId = "9372F035-DA38-4B54-966C-CEBA9B53DD02";
shapes = (
{
closed = 1;
nodes = (
(160,176,o),
(181,195,o),
(172,229,cs),
(161,271,o),
(145,310,o),
(131,388,c),
(156,367,o),
(191,354,o),
(232,354,cs),
(322,354,o),
(393,430,o),
(397,540,cs),
(401,652,o),
(314,724,o),
(213,724,cs),
(146,724,o),
(68,693,o),
(67,640,cs),
(66,609,o),
(87,585,o),
(114,585,cs),
(146,585,o),
(160,609,o),
(160,629,cs),
(160,643,o),
(153,657,o),
(153,668,cs),
(153,686,o),
(167,698,o),
(211,698,cs),
(290,698,o),
(321,641,o),
(317,540,cs),
(314,445,o),
(295,381,o),
(220,381,cs),
(160,381,o),
(125,415,o),
(111,468,c),
(90,467,l),
(90,464,l),
(102,214,ls),
(103,188,o),
(122,176,o),
(141,176,cs)
);
},
{
pos = (268,0);
ref = period;
scale = (-1,1);
}
);
width = 454;
}
);
unicode = 63;
},
{
color = 6;
glyphname = asterisk;
layers = (
{
layerId = "9372F035-DA38-4B54-966C-CEBA9B53DD02";
shapes = (
{
closed = 1;
nodes = (
(252,305,o),
(266,325,o),
(266,355,cs),
(266,392,o),
(239,437,o),
(239,498,c),
(292,468,o),
(318,421,o),
(350,402,cs),
(361,395,o),
(372,392,o),
(381,392,cs),
(394,392,o),
(405,399,o),
(412,411,cs),
(417,420,o),
(419,427,o),
(419,434,cs),
(419,449,o),
(408,460,o),
(389,471,cs),
(358,489,o),
(302,485,o),
(249,515,c),
(299,550,o),
(353,551,o),
(384,572,cs),
(400,583,o),
(411,595,o),
(411,610,cs),
(411,617,o),
(408,625,o),
(402,633,cs),
(394,644,o),
(384,650,o),
(372,650,cs),
(362,650,o),
(350,645,o),
(338,636,cs),
(310,615,o),
(288,566,o),
(239,531,c),
(239,592,o),
(268,637,o),
(268,674,cs),
(268,704,o),
(254,724,o),
(229,724,cs),
(198,724,o),
(189,703,o),
(189,674,cs),
(189,637,o),
(220,592,o),
(220,531,c),
(171,566,o),
(150,615,o),
(121,636,cs),
(109,645,o),
(97,650,o),
(87,650,cs),
(75,650,o),
(65,644,o),
(57,633,cs),
(51,625,o),
(48,617,o),
(48,610,cs),
(48,595,o),
(59,583,o),
(75,572,cs),
(106,551,o),
(160,550,o),
(210,515,c),
(157,485,o),
(102,489,o),
(70,471,c),
(52,460,o),
(40,449,o),
(40,433,cs),
(40,427,o),
(43,419,o),
(47,411,cs),
(54,398,o),
(65,392,o),
(78,392,cs),
(87,392,o),
(98,395,o),
(109,402,cs),
(141,421,o),
(167,468,o),
(220,498,c),
(220,437,o),
(187,392,o),
(187,355,cs),
(187,326,o),
(196,305,o),
(227,305,cs)
);
}
);
width = 459;
}
);
unicode = 42;
},
{
color = 6;
glyphname = numbersign;
layers = (
{
guides = (
{
angle = 73.8967;
pos = (20,315);
}
);
layerId = "9372F035-DA38-4B54-966C-CEBA9B53DD02";
shapes = (
{
closed = 1;
nodes = (
(376,0,l),
(581,710,l),
(544,710,l),
(339,0,l)
);
},
{
closed = 1;
nodes = (
(183,237,l),
(192,268,l),
(9,268,l),
(0,237,l)
);
},
{
closed = 1;
nodes = (
(416,237,l),
(425,268,l),
(212,268,l),
(205,237,l)
);
},
{
closed = 1;
nodes = (
(143,0,l),
(348,710,l),
(312,710,l),
(106,0,l)
);
},
{
closed = 1;
nodes = (
(243,447,l),
(252,479,l),
(68,479,l),
(59,447,l)
);
},
{
closed = 1;
nodes = (
(637,237,l),
(646,268,l),
(445,268,l),
(437,237,l)
);
},
{
closed = 1;
nodes = (
(476,447,l),
(485,479,l),
(273,479,l),
(265,447,l)
);
},
{
closed = 1;
nodes = (
(697,447,l),
(706,479,l),
(505,479,l),
(498,447,l)
);
}
);
width = 706;
}
);
metricLeft = slash;
metricRight = slash;
unicode = 35;
},
{
color = 6;
glyphname = slash;
layers = (
{
layerId = "9372F035-DA38-4B54-966C-CEBA9B53DD02";
shapes = (
{
closed = 1;
nodes = (
(36,-135,l),
(296,834,l),
(260,834,l),
(0,-135,l)
);
}
);
width = 296;
}
);
unicode = 47;
},
{
color = 3;
glyphname = exclam.sc;
layers = (
{
layerId = "9372F035-DA38-4B54-966C-CEBA9B53DD02";
shapes = (
{
closed = 1;
nodes = (
(126,165,l),
(128,250,o),
(140,332,o),
(151,415,cs),
(156,453,o),
(134,469,o),
(111,469,cs),
(87,469,o),
(66,453,o),
(71,415,cs),
(82,332,o),
(92,249,o),
(94,165,c)
);
},
{
ref = period.sc;
}
);
width = 221;
}
);
metricLeft = period;
metricRight = "=period";
},
{
color = 3;
glyphname = question.sc;
layers = (
{
layerId = "9372F035-DA38-4B54-966C-CEBA9B53DD02";
shapes = (
{
closed = 1;
nodes = (
(105,132,o),
(122,144,o),
(115,166,c),
(104,193,o),
(89,219,o),
(76,280,c),
(70,261,l),
(88,248,o),
(115,237,o),
(139,237,cs),
(226,237,o),
(280,287,o),
(283,349,cs),
(286,422,o),
(220,469,o),
(146,469,cs),
(96,469,o),
(37,440,o),
(37,399,cs),
(37,379,o),
(52,364,o),
(72,364,cs),
(96,364,o),
(105,379,o),
(105,392,cs),
(105,401,o),
(101,410,o),
(101,417,cs),
(101,433,o),
(118,444,o),
(143,444,cs),
(196,444,o),
(219,413,o),
(216,349,cs),
(213,301,o),
(186,262,o),
(134,262,cs),
(105,262,o),
(85,277,o),
(69,301,c),
(51,301,l),
(60,156,ls),
(61,139,o),
(75,132,o),
(89,132,cs)
);
},
{
pos = (-22,0);
ref = period.sc;
}
);
width = 274;
}
);
},
{
color = 6;
glyphname = hyphen;
kernLeft = hyphen;
kernRight = hyphen;
layers = (
{
layerId = "9372F035-DA38-4B54-966C-CEBA9B53DD02";
shapes = (
{
closed = 1;
nodes = (
(327,198,l),
(327,238,l),
(60,238,l),
(60,198,l)
);
}
);
width = 357;
}
);
unicode = 45;
},
{
color = 6;
glyphname = endash;
kernLeft = hyphen;
kernRight = hyphen;
layers = (
{
layerId = "9372F035-DA38-4B54-966C-CEBA9B53DD02";
shapes = (
{
closed = 1;
nodes = (
(504,196,l),
(504,240,l),
(50,240,l),
(50,196,l)
);
}
);
width = 554;
}
);
unicode = 8211;
},
{
color = 6;
glyphname = emdash;
kernLeft = hyphen;
kernRight = hyphen;
layers = (
{
layerId = "9372F035-DA38-4B54-966C-CEBA9B53DD02";
shapes = (
{
closed = 1;
nodes = (
(715,204,l),
(715,240,l),
(20,240,l),
(20,204,l)
);
}
);
width = 735;
}
);
unicode = 8212;
},
{
color = 6;
glyphname = hyphen.case;
kernLeft = hyphen;
kernRight = hyphen;
layers = (
{
layerId = "9372F035-DA38-4B54-966C-CEBA9B53DD02";
shapes = (
{
closed = 1;
nodes = (
(327,306,l),
(327,346,l),
(60,346,l),
(60,306,l)
);
}
);
width = 387;
}
);
},
{
color = 6;
glyphname = endash.case;
kernLeft = hyphen;
kernRight = hyphen;
layers = (
{
layerId = "9372F035-DA38-4B54-966C-CEBA9B53DD02";
shapes = (
{
closed = 1;
nodes = (
(504,302,l),
(504,342,l),
(50,342,l),
(50,302,l)
);
}
);
width = 554;
}
);
},
{
color = 6;
glyphname = emdash.case;
kernLeft = hyphen;
kernRight = hyphen;
layers = (
{
layerId = "9372F035-DA38-4B54-966C-CEBA9B53DD02";
shapes = (
{
closed = 1;
nodes = (
(715,310,l),
(715,350,l),
(20,350,l),
(20,310,l)
);
}
);
width = 735;
}
);
},
{
color = 6;
glyphname = parenright;
kernLeft = parent;
kernRight = parent;
layers = (
{
layerId = "9372F035-DA38-4B54-966C-CEBA9B53DD02";
shapes = (
{
closed = 1;
nodes = (
(211,-59,o),
(308,128,o),
(308,321,cs),
(308,514,o),
(211,701,o),
(65,796,c),
(50,773,l),
(155,699,o),
(233,508,o),
(233,321,cs),
(233,134,o),
(155,-57,o),
(50,-131,c),
(65,-154,l)
);
}
);
width = 368;
}
);
unicode = 41;
},
{
color = 6;
glyphname = braceleft;
kernLeft = parent;
kernRight = parent;
layers = (
{
layerId = "9372F035-DA38-4B54-966C-CEBA9B53DD02";
shapes = (
{
closed = 1;
nodes = (
(340,-119,l),
(277,-119,o),
(223,-88,o),
(223,-25,cs),
(223,33,o),
(242,90,o),
(242,159,cs),
(242,239,o),
(180,318,o),
(108,318,c),
(108,324,l),
(180,324,o),
(242,403,o),
(242,483,cs),
(242,552,o),
(223,609,o),
(223,667,cs),
(223,730,o),
(277,761,o),
(340,761,c),
(340,784,l),
(231,784,o),
(151,700,o),
(151,601,cs),
(151,540,o),
(176,501,o),
(176,438,cs),
(176,384,o),
(122,332,o),
(60,332,c),
(60,309,l),
(122,309,o),
(176,258,o),
(176,204,cs),
(176,141,o),
(151,102,o),
(151,41,cs),
(151,-58,o),
(231,-142,o),
(340,-142,c)
);
}
);
width = 390;
}
);
metricLeft = parenleft;
metricRight = parenleft;
unicode = 123;
},
{
color = 6;
glyphname = bracketleft;
kernLeft = parent;
kernRight = parent;
layers = (
{
guides = (
{
pos = (255,679);
},
{
pos = (-414,805);
}
);
layerId = "9372F035-DA38-4B54-966C-CEBA9B53DD02";
shapes = (
{
closed = 1;
nodes = (
(244,-142,l),
(244,-101,l),
(105,-101,l),
(105,743,l),
(244,743,l),
(244,784,l),
(60,784,l),
(60,-142,l)
);
}
);
width = 294;
}
);
metricLeft = parenleft;
metricRight = parenleft;
unicode = 91;
},
{
color = 6;
glyphname = parenleft.sc;
kernLeft = parent;
kernRight = parent;
layers = (
{
layerId = "9372F035-DA38-4B54-966C-CEBA9B53DD02";
shapes = (
{
closed = 1;
nodes = (
(271,-131,l),
(188,-76,o),
(133,64,o),
(133,216,cs),
(133,365,o),
(185,508,o),
(271,562,c),
(259,581,l),
(77,478,o),
(60,292,o),
(60,216,cs),
(60,23,o),
(157,-92,o),
(259,-150,c)
);
}
);
visible = 1;
width = 321;
}
);
metricLeft = parenleft;
metricRight = parenleft;
},
{
color = 6;
glyphname = braceleft.sc;
kernLeft = parent;
kernRight = parent;
layers = (
{
layerId = "9372F035-DA38-4B54-966C-CEBA9B53DD02";
shapes = (
{
closed = 1;
nodes = (
(290,-122,l),
(245,-122,o),
(207,-99,o),
(207,-53,cs),
(207,-8,o),
(222,36,o),
(222,90,cs),
(222,152,o),
(166,214,o),
(100,214,c),
(100,219,l),
(166,219,o),
(222,280,o),
(222,343,cs),
(222,397,o),
(207,443,o),
(207,486,cs),
(207,532,o),
(245,555,o),
(290,555,c),
(290,578,l),
(200,578,o),
(135,512,o),
(135,435,cs),
(135,387,o),
(155,357,o),
(155,308,cs),
(155,267,o),
(111,228,o),
(60,228,c),
(60,205,l),
(111,205,o),
(155,166,o),
(155,125,cs),
(155,76,o),
(135,46,o),
(135,-2,cs),
(135,-79,o),
(200,-145,o),
(290,-145,c)
);
}
);
width = 340;
}
);
metricLeft = parenleft;
metricRight = parenleft;
},
{
color = 6;
glyphname = bracketleft.sc;
kernLeft = parent;
kernRight = parent;
layers = (
{
layerId = "9372F035-DA38-4B54-966C-CEBA9B53DD02";
shapes = (
{
closed = 1;
nodes = (
(234,-140,l),
(234,-102,l),
(93,-102,l),
(93,537,l),
(234,537,l),
(234,575,l),
(50,575,l),
(50,-140,l)
);
}
);
width = 294;
}
);
metricLeft = parenright;
metricRight = parenright;
},
{
color = 6;
glyphname = quoteright;
kernLeft = quote;
kernRight = quote;
layers = (
{
layerId = "9372F035-DA38-4B54-966C-CEBA9B53DD02";
shapes = (
{
closed = 1;
nodes = (
(154,492,o),
(197,532,o),
(197,613,cs),
(197,680,o),
(165,722,o),
(117,722,cs),
(78,722,o),
(52,696,o),
(52,657,cs),
(52,622,o),
(76,598,o),
(111,598,cs),
(135,598,o),
(158,616,o),
(158,635,cs),
(158,644,o),
(154,650,o),
(154,654,cs),
(154,655,o),
(154,656,o),
(156,657,cs),
(168,663,o),
(175,635,o),
(175,611,cs),
(175,548,o),
(132,508,o),
(84,476,c),
(97,455,l)
);
}
);
width = 257;
}
);
unicode = 8217;
},
{
color = 6;
glyphname = guilsinglleft;
kernLeft = guillemets;
kernRight = guillemets;
layers = (
{
layerId = "9372F035-DA38-4B54-966C-CEBA9B53DD02";
shapes = (
{
closed = 1;
nodes = (
(198,67,l),
(130,86,o),
(105,147,o),
(105,218,cs),
(105,289,o),
(130,350,o),
(198,369,c),
(188,399,l),
(99,378,o),
(50,307,o),
(50,218,cs),
(50,130,o),
(99,58,o),
(188,37,c)
);
}
);
width = 263;
}
);
unicode = 8249;
},
{
color = 6;
glyphname = quotesingle;
kernLeft = quote;
kernRight = quote;
layers = (
{
layerId = "9372F035-DA38-4B54-966C-CEBA9B53DD02";
shapes = (
{
closed = 1;
nodes = (
(114,469,l),
(140,652,ls),
(141,659,o),
(141,665,o),
(141,671,cs),
(141,700,o),
(131,724,o),
(102,724,cs),
(73,724,o),
(63,700,o),
(63,671,cs),
(63,665,o),
(63,659,o),
(64,652,cs),
(90,469,l)
);
}
);
width = 204;
}
);
unicode = 39;
},
{
color = 6;
glyphname = quotedblright.case;
kernLeft = guillemets;
kernRight = guillemets;
layers = (
{
layerId = "9372F035-DA38-4B54-966C-CEBA9B53DD02";
shapes = (
{
closed = 1;
nodes = (
(501,155,o),
(568,214,o),
(568,323,cs),
(568,412,o),
(520,469,o),
(456,469,cs),
(402,469,o),
(368,434,o),
(368,382,cs),
(368,336,o),
(399,302,o),
(447,302,cs),
(485,302,o),
(514,332,o),
(514,370,cs),
(514,379,o),
(512,388,o),
(509,398,cs),
(508,401,o),
(508,406,o),
(512,406,cs),
(522,406,o),
(535,359,o),
(535,320,cs),
(535,235,o),
(475,170,o),
(409,130,c),
(424,104,l)
);
},
{
closed = 1;
nodes = (
(190,155,o),
(257,214,o),
(257,323,cs),
(257,412,o),
(209,469,o),
(145,469,cs),
(91,469,o),
(57,434,o),
(57,382,cs),
(57,336,o),
(88,302,o),
(136,302,cs),
(174,302,o),
(203,332,o),
(203,370,cs),
(203,379,o),
(201,388,o),
(198,398,cs),
(197,401,o),
(197,406,o),
(201,406,cs),
(211,406,o),
(224,359,o),
(224,320,cs),
(224,235,o),
(164,170,o),
(98,130,c),
(113,104,l)
);
}
);
width = 600;
}
);
},
{
color = 6;
glyphname = quoteright.sc;
kernLeft = quote;
kernRight = quote;
layers = (
{
layerId = "9372F035-DA38-4B54-966C-CEBA9B53DD02";
shapes = (
{
closed = 1;
nodes = (
(154,252,o),
(197,292,o),
(197,358,cs),
(197,425,o),
(165,467,o),
(117,467,cs),
(78,467,o),
(52,441,o),
(52,402,cs),
(52,367,o),
(76,343,o),
(111,343,cs),
(135,343,o),
(158,361,o),
(158,380,cs),
(158,389,o),
(154,395,o),
(154,399,cs),
(154,400,o),
(154,401,o),
(156,402,cs),
(168,408,o),
(175,380,o),
(175,356,cs),
(175,305,o),
(133,265,o),
(87,239,c),
(97,222,l)
);
}
);
width = 257;
}
);
metricLeft = quoteright;
metricRight = quoteright;
},
{
color = 6;
glyphname = florin;
layers = (
{
layerId = "9372F035-DA38-4B54-966C-CEBA9B53DD02";
shapes = (
{
closed = 1;
nodes = (
(145,-294,o),
(203,-237,o),
(203,-152,cs),
(203,410,l),
(306,410,l),
(306,433,l),
(203,433,l),
(203,550,ls),
(203,632,o),
(217,699,o),
(293,699,cs),
(310,699,o),
(328,692,o),
(328,675,cs),
(328,664,o),
(319,656,o),
(319,636,cs),
(319,611,o),
(338,590,o),
(363,590,cs),
(390,590,o),
(412,608,o),
(412,643,cs),
(412,696,o),
(361,724,o),
(293,724,cs),
(188,724,o),
(133,672,o),
(133,550,cs),
(133,433,l),
(47,433,l),
(47,410,l),
(133,410,l),
(133,-152,ls),
(133,-205,o),
(128,-273,o),
(83,-273,cs),
(68,-273,o),
(59,-266,o),
(59,-251,cs),
(59,-236,o),
(63,-232,o),
(63,-217,cs),
(63,-194,o),
(45,-167,o),
(15,-167,cs),
(-15,-167,o),
(-33,-190,o),
(-33,-223,cs),
(-33,-269,o),
(3,-294,o),
(66,-294,cs)
);
}
);
width = 359;
}
);
metricRight = f;
unicode = 402;
},
{
color = 6;
glyphname = at;
layers = (
{
layerId = "9372F035-DA38-4B54-966C-CEBA9B53DD02";
shapes = (
{
closed = 1;
nodes = (
(490,-139,o),
(567,-122,o),
(617,-97,c),
(606,-72,l),
(557,-92,o),
(488,-107,o),
(424,-107,cs),
(226,-107,o),
(116,28,o),
(116,203,cs),
(116,442,o),
(298,584,o),
(486,584,cs),
(658,584,o),
(768,483,o),
(768,323,cs),
(768,184,o),
(670,88,o),
(588,88,cs),
(563,88,o),
(549,104,o),
(549,131,cs),
(549,143,o),
(551,157,o),
(557,172,cs),
(653,427,l),
(588,427,l),
(563,364,l),
(559,414,o),
(531,438,o),
(489,438,cs),
(385,438,o),
(239,323,o),
(239,187,cs),
(239,126,o),
(273,59,o),
(352,59,cs),
(403,59,o),
(444,92,o),
(476,137,c),
(475,131,o),
(474,125,o),
(474,120,cs),
(474,84,o),
(499,59,o),
(562,59,cs),
(717,59,o),
(798,184,o),
(798,323,cs),
(798,505,o),
(668,614,o),
(487,614,cs),
(260,614,o),
(60,455,o),
(60,205,cs),
(60,-10,o),
(210,-139,o),
(416,-139,cs)
);
},
{
closed = 1;
nodes = (
(322,84,o),
(311,119,o),
(311,157,cs),
(311,286,o),
(401,413,o),
(489,413,cs),
(524,413,o),
(540,385,o),
(540,347,cs),
(540,319,o),
(532,287,o),
(518,254,cs),
(487,181,o),
(423,84,o),
(363,84,cs)
);
}
);
width = 843;
}
);
unicode = 64;
},
{
color = 6;
glyphname = ampersand;
layers = (
{
layerId = "9372F035-DA38-4B54-966C-CEBA9B53DD02";
shapes = (
{
closed = 1;
nodes = (
(625,-11,o),
(667,7,o),
(692,39,c),
(676,58,l),
(658,42,o),
(639,34,o),
(620,34,cs),
(582,34,o),
(517,88,o),
(375,280,cs),
(249,451,o),
(199,502,o),
(199,596,cs),
(199,652,o),
(233,693,o),
(291,693,cs),
(342,693,o),
(375,653,o),
(375,597,cs),
(375,529,o),
(351,489,o),
(265,416,c),
(282,396,l),
(360,443,o),
(455,512,o),
(455,596,cs),
(455,659,o),
(405,725,o),
(286,725,cs),
(197,725,o),
(116,671,o),
(116,568,cs),
(116,478,o),
(167,419,o),
(350,172,cs),
(476,2,o),
(521,-11,o),
(591,-11,cs)
);
},
{
closed = 1;
nodes = (
(397,-11,o),
(475,108,o),
(514,180,cs),
(554,254,o),
(582,313,o),
(632,324,cs),
(668,332,l),
(668,356,l),
(559,353,l),
(428,356,l),
(428,331,l),
(458,328,ls),
(500,324,o),
(523,312,o),
(523,284,cs),
(523,262,o),
(510,231,o),
(483,187,cs),
(452,136,o),
(374,21,o),
(264,21,cs),
(163,21,o),
(136,103,o),
(136,167,cs),
(136,253,o),
(179,313,o),
(238,365,c),
(217,393,l),
(129,338,o),
(46,272,o),
(46,168,cs),
(46,58,o),
(155,-11,o),
(255,-11,cs)
);
}
);
width = 698;
}
);
unicode = 38;
},
{
color = 6;
glyphname = paragraph;
layers = (
{
layerId = "9372F035-DA38-4B54-966C-CEBA9B53DD02";
shapes = (
{
closed = 1;
nodes = (
(340,-186,l),
(340,676,l),
(430,676,l),
(430,-186,l),
(471,-186,l),
(471,641,ls),
(471,677,o),
(508,685,o),
(561,685,c),
(561,712,l),
(367,710,l),
(276,712,l),
(139,708,o),
(63,628,o),
(63,522,cs),
(63,396,o),
(153,329,o),
(298,329,c),
(298,-186,l)
);
}
);
width = 600;
}
);
unicode = 182;
},
{
color = 6;
glyphname = section;
layers = (
{
layerId = "9372F035-DA38-4B54-966C-CEBA9B53DD02";
shapes = (
{
closed = 1;
nodes = (
(323,-294,o),
(394,-229,o),
(394,-128,cs),
(394,-59,o),
(340,17,o),
(249,81,cs),
(245,84,l),
(317,87,o),
(385,143,o),
(385,228,cs),
(385,289,o),
(349,336,o),
(288,390,cs),
(229,443,ls),
(178,489,o),
(121,535,o),
(121,599,cs),
(121,654,o),
(167,698,o),
(231,698,cs),
(283,698,o),
(308,675,o),
(308,650,cs),
(308,630,o),
(293,626,o),
(293,601,cs),
(293,575,o),
(312,558,o),
(340,558,cs),
(370,558,o),
(389,585,o),
(389,614,cs),
(389,676,o),
(314,724,o),
(231,724,cs),
(131,724,o),
(60,659,o),
(60,561,cs),
(60,496,o),
(99,438,o),
(179,373,cs),
(213,346,l),
(135,345,o),
(69,289,o),
(69,209,cs),
(69,132,o),
(122,79,o),
(203,6,cs),
(263,-47,o),
(334,-90,o),
(334,-166,cs),
(334,-216,o),
(293,-268,o),
(226,-268,cs),
(181,-268,o),
(146,-249,o),
(146,-219,cs),
(146,-196,o),
(162,-189,o),
(162,-166,cs),
(162,-139,o),
(144,-121,o),
(118,-121,cs),
(87,-121,o),
(66,-147,o),
(66,-184,cs),
(66,-243,o),
(141,-294,o),
(228,-294,cs)
);
},
{
closed = 1;
nodes = (
(186,110,o),
(130,167,o),
(130,238,cs),
(130,293,o),
(169,320,o),
(213,320,cs),
(267,320,o),
(324,261,o),
(324,199,cs),
(324,140,o),
(288,110,o),
(247,110,cs)
);
}
);
width = 434;
}
);
unicode = 167;
},
{
color = 6;
glyphname = copyright;
layers = (
{
guides = (
{
angle = 90;
pos = (431,703);
showMeasurement = 1;
}
);
layerId = "9372F035-DA38-4B54-966C-CEBA9B53DD02";
shapes = (
{
closed = 1;
nodes = (
(653,-11,o),
(797,153,o),
(797,357,cs),
(797,560,o),
(643,724,o),
(431,724,cs),
(216,724,o),
(62,560,o),
(62,357,cs),
(62,153,o),
(216,-11,o),
(431,-11,cs)
);
},
{
closed = 1;
nodes = (
(495,167,o),
(564,193,o),
(589,272,c),
(565,281,l),
(548,228,o),
(502,196,o),
(454,196,cs),
(374,196,o),
(324,257,o),
(324,358,cs),
(324,448,o),
(369,521,o),
(451,521,cs),
(502,521,o),
(549,488,o),
(560,421,c),
(579,421,l),
(577,482,l),
(579,543,l),
(563,543,l),
(561,528,o),
(557,523,o),
(549,523,cs),
(536,523,o),
(502,550,o),
(439,550,cs),
(326,550,o),
(243,468,o),
(243,358,cs),
(243,246,o),
(317,167,o),
(439,167,cs)
);
},
{
closed = 1;
nodes = (
(240,28,o),
(104,179,o),
(104,357,cs),
(104,534,o),
(240,685,o),
(431,685,cs),
(619,685,o),
(755,534,o),
(755,357,cs),
(755,179,o),
(629,28,o),
(431,28,cs)
);
}
);
width = 859;
}
);
metricLeft = O;
metricRight = O;
unicode = 169;
},
{
color = 6;
glyphname = registered;
layers = (
{
anchors = (
{
name = bottom;
pos = (431,179);
},
{
name = top;
pos = (431,539);
}
);
layerId = "9372F035-DA38-4B54-966C-CEBA9B53DD02";
shapes = (
{
closed = 1;
nodes = (
(643,-11,o),
(797,153,o),
(797,357,cs),
(797,560,o),
(643,724,o),
(431,724,cs),
(216,724,o),
(62,560,o),
(62,357,cs),
(62,153,o),
(216,-11,o),
(431,-11,cs)
);
},
{
closed = 1;
nodes = (
(240,28,o),
(104,179,o),
(104,357,cs),
(104,534,o),
(240,685,o),
(431,685,cs),
(619,685,o),
(755,534,o),
(755,357,cs),
(755,179,o),
(619,28,o),
(431,28,cs)
);
},
{
closed = 1;
nodes = (
(594,173,o),
(616,180,o),
(628,185,c),
(625,204,l),
(608,202,ls),
(590,200,o),
(576,219,o),
(566,268,c),
(558,321,o),
(517,351,o),
(459,355,c),
(518,363,o),
(570,388,o),
(570,451,cs),
(570,519,o),
(498,539,o),
(417,539,cs),
(339,539,l),
(257,541,l),
(256,523,l),
(267,521,l),
(306,517,o),
(316,517,o),
(316,472,cs),
(315,247,ls),
(315,202,o),
(306,201,o),
(267,197,cs),
(256,196,l),
(256,177,l),
(347,179,l),
(440,177,l),
(440,196,l),
(429,197,ls),
(387,201,o),
(377,202,o),
(377,247,cs),
(377,351,l),
(387,351,ls),
(484,349,o),
(499,292,o),
(508,239,cs),
(513,202,o),
(532,173,o),
(573,173,cs)
);
},
{
closed = 1;
nodes = (
(377,519,l),
(418,519,ls),
(477,519,o),
(497,493,o),
(497,448,cs),
(497,397,o),
(475,372,o),
(410,372,cs),
(377,372,l)
);
}
);
width = 859;
}
);
metricLeft = O;
metricRight = O;
unicode = 174;
},
{
color = 6;
glyphname = trademark;
layers = (
{
layerId = "9372F035-DA38-4B54-966C-CEBA9B53DD02";
shapes = (
{
closed = 1;
nodes = (
(537,348,l),
(604,346,l),
(604,369,l),
(593,370,ls),
(559,373,o),
(551,375,o),
(551,416,cs),
(551,707,l),
(530,706,l),
(687,348,l),
(698,348,l),
(874,707,l),
(851,706,l),
(851,416,ls),
(851,375,o),
(842,373,o),
(804,370,cs),
(793,369,l),
(793,346,l),
(875,348,l),
(970,346,l),
(970,369,l),
(959,370,ls),
(921,373,o),
(912,375,o),
(912,416,cs),
(912,642,ls),
(912,693,o),
(921,695,o),
(959,698,cs),
(970,699,l),
(970,712,l),
(879,710,l),
(846,710,l),
(697,405,l),
(719,427,l),
(592,710,l),
(550,710,l),
(471,712,l),
(471,699,l),
(482,698,ls),
(516,695,o),
(525,693,o),
(525,642,cs),
(525,416,ls),
(525,375,o),
(516,373,o),
(482,370,cs),
(471,369,l),
(471,346,l)
);
},
{
closed = 1;
nodes = (
(254,348,l),
(351,346,l),
(351,369,l),
(339,370,ls),
(295,374,o),
(284,375,o),
(284,416,cs),
(284,689,l),
(221,689,l),
(221,416,ls),
(221,375,o),
(210,374,o),
(165,370,cs),
(153,369,l),
(153,346,l)
);
},
{
closed = 1;
nodes = (
(456,608,l),
(442,671,l),
(436,712,l),
(278,710,l),
(226,710,l),
(69,712,l),
(63,671,l),
(50,608,l),
(61,606,l),
(93,665,o),
(101,687,o),
(151,687,cs),
(357,687,ls),
(404,687,o),
(418,658,o),
(443,605,c)
);
}
);
width = 1020;
}
);
unicode = 8482;
},
{
color = 6;
glyphname = degree;
layers = (
{
layerId = "9372F035-DA38-4B54-966C-CEBA9B53DD02";
shapes = (
{
closed = 1;
nodes = (
(224,442,o),
(283,501,o),
(283,574,cs),
(283,646,o),
(224,705,o),
(152,705,cs),
(79,705,o),
(20,646,o),
(20,574,cs),
(20,501,o),
(79,442,o),
(152,442,cs)
);
},
{
closed = 1;
nodes = (
(99,479,o),
(57,521,o),
(57,574,cs),
(57,626,o),
(99,668,o),
(152,668,cs),
(204,668,o),
(246,626,o),
(246,574,cs),
(246,521,o),
(204,479,o),
(152,479,cs)
);
}
);
width = 303;
}
);
unicode = 176;
},
{
color = 6;
glyphname = bar;
layers = (
{
layerId = "9372F035-DA38-4B54-966C-CEBA9B53DD02";
shapes = (
{
closed = 1;
nodes = (
(109,-135,l),
(109,834,l),
(74,834,l),
(74,-135,l)
);
}
);
width = 184;
}
);
unicode = 124;
},
{
color = 6;
glyphname = brokenbar;
layers = (
{
layerId = "9372F035-DA38-4B54-966C-CEBA9B53DD02";
shapes = (
{
closed = 1;
nodes = (
(109,400,l),
(109,834,l),
(74,834,l),
(74,400,l)
);
},
{
closed = 1;
nodes = (
(109,-135,l),
(109,299,l),
(74,299,l),
(74,-135,l)
);
}
);
width = 554;
}
);
unicode = 166;
},
{
color = 6;
glyphname = dagger;
layers = (
{
layerId = "9372F035-DA38-4B54-966C-CEBA9B53DD02";
shapes = (
{
closed = 1;
nodes = (
(264,-280,l),
(264,10,o),
(278,188,o),
(278,286,cs),
(278,357,o),
(265,432,o),
(263,470,c),
(322,469,o),
(366,441,o),
(402,441,cs),
(432,441,o),
(452,455,o),
(452,480,cs),
(452,511,o),
(431,520,o),
(402,520,cs),
(366,520,o),
(322,490,o),
(262,489,c),
(264,565,o),
(297,599,o),
(297,646,cs),
(297,685,o),
(284,710,o),
(249,710,cs),
(214,710,o),
(201,685,o),
(201,646,cs),
(201,599,o),
(237,566,o),
(239,489,c),
(179,490,o),
(135,520,o),
(99,520,cs),
(70,520,o),
(49,511,o),
(49,480,cs),
(49,455,o),
(69,441,o),
(99,441,cs),
(135,441,o),
(179,469,o),
(238,470,c),
(236,433,o),
(223,361,o),
(223,292,cs),
(223,198,o),
(241,18,o),
(241,-280,c)
);
}
);
width = 498;
}
);
unicode = 8224;
},
{
color = 6;
glyphname = daggerdbl;
layers = (
{
layerId = "9372F035-DA38-4B54-966C-CEBA9B53DD02";
shapes = (
{
closed = 1;
nodes = (
(314,254,l),
(314,309,o),
(325,375,o),
(325,403,cs),
(325,430,o),
(314,459,o),
(312,493,c),
(372,492,o),
(416,465,o),
(450,465,cs),
(481,465,o),
(501,479,o),
(501,503,cs),
(501,533,o),
(480,542,o),
(450,542,cs),
(416,542,o),
(372,513,o),
(312,512,c),
(315,567,o),
(344,599,o),
(344,649,cs),
(344,676,o),
(339,710,o),
(299,710,cs),
(259,710,o),
(254,676,o),
(254,649,cs),
(254,599,o),
(285,568,o),
(289,512,c),
(229,513,o),
(185,542,o),
(151,542,cs),
(121,542,o),
(100,533,o),
(100,503,cs),
(100,479,o),
(120,465,o),
(151,465,cs),
(185,465,o),
(229,492,o),
(289,493,c),
(287,458,o),
(276,430,o),
(276,402,cs),
(276,376,o),
(291,309,o),
(291,254,c)
);
},
{
closed = 1;
nodes = (
(339,-294,o),
(344,-260,o),
(344,-233,cs),
(344,-183,o),
(315,-151,o),
(312,-96,c),
(372,-97,o),
(416,-126,o),
(450,-126,cs),
(480,-126,o),
(501,-117,o),
(501,-87,cs),
(501,-63,o),
(481,-49,o),
(450,-49,cs),
(416,-49,o),
(372,-76,o),
(312,-77,c),
(314,-43,o),
(325,-14,o),
(325,13,cs),
(325,41,o),
(314,107,o),
(314,162,c),
(291,162,l),
(291,107,o),
(276,40,o),
(276,14,cs),
(276,-14,o),
(287,-42,o),
(289,-77,c),
(229,-76,o),
(185,-49,o),
(151,-49,cs),
(120,-49,o),
(100,-63,o),
(100,-87,cs),
(100,-117,o),
(121,-126,o),
(151,-126,cs),
(185,-126,o),
(229,-97,o),
(289,-96,c),
(285,-152,o),
(254,-183,o),
(254,-233,cs),
(254,-260,o),
(259,-294,o),
(299,-294,cs)
);
}
);
width = 600;
}
);
unicode = 8225;
},
{
color = 3;
glyphname = cent;
layers = (
{
layerId = "9372F035-DA38-4B54-966C-CEBA9B53DD02";
shapes = (
{
closed = 1;
nodes = (
(274,-115,l),
(274,558,l),
(249,558,l),
(249,-115,l)
);
},
{
locked = 1;
ref = c;
}
);
width = 470;
}
);
metricLeft = c;
metricRight = c;
unicode = 162;
},
{
color = 6;
glyphname = currency;
layers = (
{
layerId = "9372F035-DA38-4B54-966C-CEBA9B53DD02";
shapes = (
{
closed = 1;
nodes = (
(318,197,o),
(392,271,o),
(392,366,cs),
(392,461,o),
(318,535,o),
(223,535,cs),
(127,535,o),
(53,461,o),
(53,366,cs),
(53,271,o),
(127,197,o),
(223,197,cs)
);
},
{
closed = 1;
nodes = (
(143,260,l),
(117,286,l),
(40,209,l),
(66,183,l)
);
},
{
closed = 1;
nodes = (
(150,237,o),
(93,293,o),
(93,366,cs),
(93,439,o),
(150,495,o),
(223,495,cs),
(296,495,o),
(352,439,o),
(352,366,cs),
(352,293,o),
(296,237,o),
(223,237,cs)
);
},
{
closed = 1;
nodes = (
(405,209,l),
(329,285,l),
(304,259,l),
(380,183,l)
);
},
{
closed = 1;
nodes = (
(141,473,l),
(65,549,l),
(40,523,l),
(115,448,l)
);
},
{
closed = 1;
nodes = (
(405,523,l),
(380,548,l),
(304,473,l),
(329,447,l)
);
}
);
width = 445;
}
);
unicode = 164;
},
{
color = 3;
glyphname = dollar;
layers = (
{
layerId = "9372F035-DA38-4B54-966C-CEBA9B53DD02";
shapes = (
{
closed = 1;
nodes = (
(314,-115,l),
(314,830,l),
(289,830,l),
(289,-115,l)
);
},
{
ref = S;
}
);
width = 561;
}
);
metricLeft = S;
metricRight = S;
unicode = 36;
},
{
color = 6;
glyphname = euro;
layers = (
{
anchors = (
{
name = bottom;
pos = (470,0);
},
{
name = top;
pos = (483,710);
}
);
guides = (
{
angle = 90;
pos = (506,128);
}
);
layerId = "9372F035-DA38-4B54-966C-CEBA9B53DD02";
shapes = (
{
closed = 1;
nodes = (
(675,-11,o),
(721,131,o),
(743,216,c),
(712,222,l),
(693,152,o),
(644,19,o),
(499,19,cs),
(333,19,o),
(273,167,o),
(273,355,c),
(284,583,o),
(347,694,o),
(495,694,cs),
(598,694,o),
(687,610,o),
(705,476,c),
(730,476,l),
(727,593,l),
(729,710,l),
(704,710,l),
(701,682,o),
(688,672,o),
(674,672,cs),
(655,672,o),
(595,724,o),
(489,724,cs),
(303,724,o),
(171,556,o),
(171,355,cs),
(171,150,o),
(279,-11,o),
(483,-11,cs)
);
},
{
closed = 1;
nodes = (
(187,259,l),
(183,291,l),
(102,291,l),
(82,259,l)
);
},
{
closed = 1;
nodes = (
(180,377,l),
(182,409,l),
(82,409,l),
(62,377,l)
);
},
{
closed = 1;
nodes = (
(575,259,l),
(589,291,l),
(267,291,l),
(271,259,l)
);
},
{
closed = 1;
nodes = (
(615,377,l),
(629,409,l),
(267,409,l),
(265,377,l)
);
}
);
width = 813;
}
);
metricLeft = C;
metricRight = C;
unicode = 8364;
},
{
color = 6;
glyphname = sterling;
layers = (
{
layerId = "9372F035-DA38-4B54-966C-CEBA9B53DD02";
shapes = (
{
closed = 1;
nodes = (
(113,-11,o),
(150,16,o),
(180,75,c),
(262,59,o),
(322,-11,o),
(411,-11,cs),
(512,-11,o),
(550,64,o),
(550,153,c),
(528,153,l),
(523,91,o),
(486,60,o),
(429,60,cs),
(352,60,o),
(290,98,o),
(191,99,c),
(207,137,o),
(221,185,o),
(235,246,c),
(237,257,l),
(246,299,ls),
(279,451,o),
(287,699,o),
(413,699,cs),
(430,699,o),
(448,692,o),
(448,675,cs),
(448,664,o),
(439,656,o),
(439,636,cs),
(439,611,o),
(458,590,o),
(483,590,cs),
(510,590,o),
(532,608,o),
(532,645,cs),
(532,702,o),
(476,724,o),
(413,724,cs),
(252,724,o),
(204,516,o),
(177,358,cs),
(172,326,o),
(169,292,o),
(168,256,c),
(166,245,l),
(164,191,o),
(162,137,o),
(153,97,c),
(95,91,o),
(31,70,o),
(31,23,cs),
(31,10,o),
(36,-11,o),
(65,-11,cs)
);
},
{
closed = 1;
nodes = (
(172,308,l),
(174,333,l),
(81,333,l),
(77,308,l)
);
},
{
closed = 1;
nodes = (
(417,308,l),
(421,333,l),
(232,333,l),
(227,308,l)
);
}
);
width = 560;
}
);
unicode = 163;
},
{
color = 6;
glyphname = plus;
layers = (
{
layerId = "9372F035-DA38-4B54-966C-CEBA9B53DD02";
shapes = (
{
closed = 1;
nodes = (
(321,90,l),
(321,288,l),
(518,288,l),
(518,328,l),
(321,328,l),
(321,526,l),
(279,526,l),
(279,328,l),
(82,328,l),
(82,288,l),
(279,288,l),
(279,90,l)
);
}
);
width = 600;
}
);
metricWidth = "=600";
unicode = 43;
},
{
color = 6;
glyphname = minus;
layers = (
{
layerId = "9372F035-DA38-4B54-966C-CEBA9B53DD02";
shapes = (
{
closed = 1;
nodes = (
(518,298,l),
(518,338,l),
(82,338,l),
(82,298,l)
);
}
);
width = 600;
}
);
metricWidth = "=600";
unicode = 8722;
},
{
color = 6;
glyphname = multiply;
layers = (
{
layerId = "9372F035-DA38-4B54-966C-CEBA9B53DD02";
shapes = (
{
closed = 1;
nodes = (
(300,279,l),
(475,104,l),
(504,133,l),
(329,308,l),
(504,483,l),
(475,512,l),
(300,337,l),
(125,512,l),
(96,483,l),
(271,308,l),
(96,133,l),
(125,104,l)
);
}
);
width = 600;
}
);
metricWidth = "=600";
unicode = 215;
},
{
color = 6;
glyphname = divide;
layers = (
{
layerId = "9372F035-DA38-4B54-966C-CEBA9B53DD02";
shapes = (
{
closed = 1;
nodes = (
(518,294,l),
(518,334,l),
(82,334,l),
(82,294,l)
);
},
{
closed = 1;
nodes = (
(323,81,o),
(347,104,o),
(348,132,c),
(350,159,o),
(329,182,o),
(303,182,cs),
(277,182,o),
(253,157,o),
(253,128,cs),
(253,102,o),
(273,81,o),
(298,81,cs)
);
},
{
closed = 1;
nodes = (
(323,425,o),
(347,448,o),
(348,476,c),
(350,503,o),
(329,526,o),
(303,526,cs),
(277,526,o),
(253,501,o),
(253,472,cs),
(253,446,o),
(273,425,o),
(298,425,cs)
);
}
);
width = 600;
}
);
metricWidth = "=600";
unicode = 247;
},
{
color = 6;
glyphname = equal;
layers = (
{
layerId = "9372F035-DA38-4B54-966C-CEBA9B53DD02";
shapes = (
{
closed = 1;
nodes = (
(522,352,l),
(522,392,l),
(78,392,l),
(78,352,l)
);
},
{
closed = 1;
nodes = (
(522,221,l),
(522,261,l),
(78,261,l),
(78,221,l)
);
}
);
width = 600;
}
);
metricWidth = "=600";
unicode = 61;
},
{
color = 3;
glyphname = notequal;
layers = (
{
layerId = "9372F035-DA38-4B54-966C-CEBA9B53DD02";
shapes = (
{
closed = 1;
nodes = (
(204,122,l),
(468,485,l),
(419,485,l),
(154,122,l)
);
},
{
ref = equal;
}
);
width = 600;
}
);
metricWidth = "=600";
unicode = 8800;
},
{
color = 6;
glyphname = greater;
layers = (
{
layerId = "9372F035-DA38-4B54-966C-CEBA9B53DD02";
shapes = (
{
closed = 1;
nodes = (
(471,306,l),
(471,333,l),
(129,496,l),
(129,454,l),
(401,320,l),
(129,187,l),
(129,143,l)
);
}
);
width = 600;
}
);
metricWidth = "=600";
unicode = 62;
},
{
color = 6;
glyphname = plusminus;
layers = (
{
layerId = "9372F035-DA38-4B54-966C-CEBA9B53DD02";
shapes = (
{
closed = 1;
nodes = (
(323,223,l),
(323,328,l),
(465,328,l),
(465,372,l),
(323,372,l),
(323,476,l),
(275,476,l),
(275,372,l),
(133,372,l),
(133,328,l),
(275,328,l),
(275,223,l)
);
},
{
closed = 1;
nodes = (
(466,101,l),
(466,141,l),
(133,141,l),
(133,101,l)
);
}
);
width = 600;
}
);
metricWidth = "=600";
unicode = 177;
},
{
color = 6;
glyphname = asciitilde;
layers = (
{
layerId = "9372F035-DA38-4B54-966C-CEBA9B53DD02";
shapes = (
{
closed = 1;
nodes = (
(83,248,l),
(97,309,o),
(133,338,o),
(185,338,cs),
(263,338,o),
(335,248,o),
(423,248,cs),
(484,248,o),
(526,312,o),
(536,373,c),
(519,373,l),
(508,334,o),
(481,294,o),
(431,294,cs),
(366,294,o),
(267,386,o),
(187,386,cs),
(92,386,o),
(65,278,o),
(65,248,c)
);
}
);
width = 600;
}
);
metricWidth = "=600";
unicode = 126;
},
{
color = 6;
glyphname = logicalnot;
layers = (
{
layerId = "9372F035-DA38-4B54-966C-CEBA9B53DD02";
shapes = (
{
closed = 1;
nodes = (
(527,397,l),
(527,436,l),
(73,436,l),
(73,397,l)
);
},
{
closed = 1;
nodes = (
(527,242,l),
(527,436,l),
(488,436,l),
(488,242,l)
);
}
);
width = 600;
}
);
metricWidth = "=600";
unicode = 172;
},
{
color = 6;
glyphname = asciicircum;
layers = (
{
layerId = "9372F035-DA38-4B54-966C-CEBA9B53DD02";
shapes = (
{
closed = 1;
nodes = (
(145,348,l),
(311,682,l),
(283,682,l),
(455,348,l),
(505,348,l),
(317,710,l),
(277,710,l),
(95,348,l)
);
}
);
width = 600;
}
);
metricWidth = "=600";
unicode = 94;
},
{
color = 6;
glyphname = infinity;
layers = (
{
layerId = "9372F035-DA38-4B54-966C-CEBA9B53DD02";
shapes = (
{
closed = 1;
nodes = (
(287,166,o),
(349,198,o),
(396,278,cs),
(404,291,l),
(440,218,o),
(483,168,o),
(580,168,cs),
(663,168,o),
(742,247,o),
(742,358,cs),
(742,458,o),
(686,547,o),
(572,547,cs),
(499,547,o),
(444,510,o),
(404,446,cs),
(382,411,l),
(357,477,o),
(300,547,o),
(210,547,cs),
(123,547,o),
(45,475,o),
(45,358,cs),
(45,253,o),
(111,166,o),
(216,166,cs)
);
},
{
closed = 1;
nodes = (
(140,225,o),
(71,268,o),
(71,356,cs),
(71,442,o),
(140,487,o),
(206,487,cs),
(273,487,o),
(328,450,o),
(361,378,c),
(331,329,ls),
(302,283,o),
(261,225,o),
(198,225,cs)
);
},
{
closed = 1;
nodes = (
(506,225,o),
(465,254,o),
(424,324,c),
(445,358,ls),
(475,408,o),
(516,487,o),
(596,487,cs),
(668,487,o),
(716,433,o),
(716,358,cs),
(716,276,o),
(651,225,o),
(585,225,cs)
);
}
);
width = 787;
}
);
metricLeft = o;
metricRight = o;
unicode = 8734;
},
{
color = 6;
glyphname = emptyset;
layers = (
{
layerId = "9372F035-DA38-4B54-966C-CEBA9B53DD02";
shapes = (
{
closed = 1;
nodes = (
(190,35,l),
(236,6,o),
(290,-10,o),
(348,-10,cs),
(514,-10,o),
(650,126,o),
(650,294,cs),
(650,389,o),
(605,474,o),
(535,530,c),
(586,603,l),
(556,622,l),
(506,550,l),
(460,579,o),
(406,595,o),
(348,595,cs),
(181,595,o),
(45,459,o),
(45,294,cs),
(45,197,o),
(90,112,o),
(160,56,c),
(106,-21,l),
(136,-42,l)
);
},
{
closed = 1;
nodes = (
(122,135,o),
(85,210,o),
(85,294,cs),
(85,440,o),
(202,558,o),
(348,558,cs),
(398,558,o),
(445,544,o),
(484,520,c),
(181,87,l)
);
},
{
closed = 1;
nodes = (
(298,27,o),
(251,41,o),
(211,65,c),
(513,499,l),
(572,451,o),
(610,377,o),
(610,294,cs),
(610,145,o),
(493,27,o),
(348,27,cs)
);
}
);
width = 695;
}
);
metricLeft = o;
metricRight = o;
unicode = 8709;
},
{
color = 3;
glyphname = micro;
layers = (
{
layerId = "9372F035-DA38-4B54-966C-CEBA9B53DD02";
shapes = (
{
closed = 1;
nodes = (
(98,89,l),
(108,-300,l),
(139,-293,o),
(166,-288,o),
(191,-285,c),
(140,35,l),
(146,223,l),
(98,223,l)
);
},
{
ref = u;
}
);
width = 571;
}
);
unicode = 181;
},
{
color = 6;
glyphname = percent;
layers = (
{
anchors = (
{
name = _center;
pos = (467,356);
}
);
layerId = "9372F035-DA38-4B54-966C-CEBA9B53DD02";
shapes = (
{
closed = 1;
nodes = (
(198,0,l),
(671,575,l),
(613,575,l),
(140,0,l)
);
},
{
closed = 1;
nodes = (
(273,309,o),
(329,363,o),
(329,448,cs),
(329,532,o),
(273,586,o),
(186,586,cs),
(101,586,o),
(45,532,o),
(45,448,cs),
(45,363,o),
(101,309,o),
(186,309,cs)
);
},
{
closed = 1;
nodes = (
(131,332,o),
(106,367,o),
(106,448,cs),
(106,528,o),
(131,563,o),
(186,563,cs),
(242,563,o),
(267,528,o),
(267,448,cs),
(267,367,o),
(242,332,o),
(186,332,cs)
);
},
{
closed = 1;
nodes = (
(717,-10,o),
(773,44,o),
(773,129,cs),
(773,213,o),
(717,267,o),
(630,267,cs),
(545,267,o),
(489,213,o),
(489,129,cs),
(489,44,o),
(545,-10,o),
(630,-10,cs)
);
},
{
closed = 1;
nodes = (
(575,13,o),
(550,48,o),
(550,129,cs),
(550,209,o),
(575,244,o),
(630,244,cs),
(686,244,o),
(711,211,o),
(711,129,cs),
(711,48,o),
(686,13,o),
(630,13,cs)
);
}
);
width = 818;
}
);
metricLeft = o;
metricRight = o;
unicode = 37;
},
{
color = 3;
glyphname = perthousand;
layers = (
{
anchors = (
{
name = _center;
pos = (422,356);
}
);
layerId = "9372F035-DA38-4B54-966C-CEBA9B53DD02";
shapes = (
{
closed = 1;
nodes = (
(940,-10,o),
(996,44,o),
(996,129,cs),
(996,213,o),
(940,267,o),
(853,267,cs),
(768,267,o),
(712,213,o),
(712,129,cs),
(712,44,o),
(768,-10,o),
(853,-10,cs)
);
},
{
closed = 1;
nodes = (
(798,13,o),
(773,48,o),
(773,129,cs),
(773,209,o),
(798,244,o),
(853,244,cs),
(909,244,o),
(934,211,o),
(934,129,cs),
(934,48,o),
(909,13,o),
(853,13,cs)
);
},
{
ref = percent;
}
);
width = 1041;
}
);
metricLeft = o;
metricRight = o;
unicode = 8240;
},
{
color = 6;
glyphname = percent.lf;
layers = (
{
layerId = "9372F035-DA38-4B54-966C-CEBA9B53DD02";
shapes = (
{
closed = 1;
nodes = (
(161,0,l),
(690,710,l),
(629,710,l),
(100,0,l)
);
},
{
closed = 1;
nodes = (
(687,-10,o),
(743,44,o),
(743,129,cs),
(743,213,o),
(688,267,o),
(600,267,cs),
(515,267,o),
(459,213,o),
(459,129,cs),
(459,44,o),
(515,-10,o),
(600,-10,cs)
);
},
{
closed = 1;
nodes = (
(548,13,o),
(524,48,o),
(524,129,cs),
(524,209,o),
(548,244,o),
(600,244,cs),
(654,244,o),
(678,211,o),
(678,129,cs),
(678,48,o),
(654,13,o),
(600,13,cs)
);
},
{
closed = 1;
nodes = (
(273,447,o),
(329,501,o),
(329,586,cs),
(329,670,o),
(273,724,o),
(186,724,cs),
(101,724,o),
(45,670,o),
(45,586,cs),
(45,501,o),
(101,447,o),
(186,447,cs)
);
},
{
closed = 1;
nodes = (
(134,470,o),
(110,505,o),
(110,586,cs),
(110,666,o),
(134,701,o),
(186,701,cs),
(240,701,o),
(264,666,o),
(264,586,cs),
(264,505,o),
(240,470,o),
(186,470,cs)
);
}
);
width = 788;
}
);
metricLeft = o;
metricRight = o;
},
{
color = 3;
glyphname = perthousand.lf;
layers = (
{
layerId = "9372F035-DA38-4B54-966C-CEBA9B53DD02";
shapes = (
{
closed = 1;
nodes = (
(906,-10,o),
(962,44,o),
(962,129,cs),
(962,213,o),
(907,267,o),
(819,267,cs),
(734,267,o),
(678,213,o),
(678,129,cs),
(678,44,o),
(734,-10,o),
(819,-10,cs)
);
},
{
closed = 1;
nodes = (
(767,13,o),
(743,48,o),
(743,129,cs),
(743,209,o),
(767,244,o),
(819,244,cs),
(873,244,o),
(897,212,o),
(897,129,cs),
(897,48,o),
(873,13,o),
(819,13,cs)
);
},
{
ref = percent.lf;
}
);
width = 1007;
}
);
metricLeft = o;
metricRight = o;
},
{
color = 6;
glyphname = whiteDiamond;
layers = (
{
layerId = "9372F035-DA38-4B54-966C-CEBA9B53DD02";
shapes = (
{
closed = 1;
nodes = (
(459,352,l),
(267,559,l),
(80,352,l),
(267,145,l)
);
},
{
closed = 1;
nodes = (
(290,178,l),
(111,378,l),
(113,322,l),
(291,526,l),
(243,526,l),
(429,326,l),
(430,378,l),
(243,178,l)
);
}
);
width = 539;
}
);
unicode = 9671;
},
{
color = 6;
glyphname = lozenge;
layers = (
{
layerId = "9372F035-DA38-4B54-966C-CEBA9B53DD02";
shapes = (
{
closed = 1;
nodes = (
(321,-11,l),
(559,373,l),
(323,746,l),
(274,746,l),
(35,373,l),
(271,-11,l)
);
},
{
closed = 1;
nodes = (
(91,373,l),
(298,697,l),
(504,374,l),
(297,37,l)
);
}
);
width = 600;
}
);
unicode = 9674;
},
{
color = 6;
glyphname = dieresiscomb;
layers = (
{
anchors = (
{
name = _top;
pos = (216,436);
},
{
name = top;
pos = (210,651);
}
);
layerId = "9372F035-DA38-4B54-966C-CEBA9B53DD02";
shapes = (
{
closed = 1;
nodes = (
(153,567,o),
(169,592,o),
(169,624,cs),
(169,655,o),
(153,680,o),
(119,680,cs),
(87,680,o),
(68,655,o),
(68,624,cs),
(68,592,o),
(87,567,o),
(119,567,cs)
);
},
{
closed = 1;
nodes = (
(343,567,o),
(359,592,o),
(359,624,cs),
(359,655,o),
(343,680,o),
(309,680,cs),
(277,680,o),
(258,655,o),
(258,624,cs),
(258,592,o),
(277,567,o),
(309,567,cs)
);
}
);
width = 442;
}
);
unicode = 776;
},
{
color = 6;
glyphname = dotaccentcomb;
layers = (
{
anchors = (
{
name = _top;
pos = (137,436);
},
{
name = top;
pos = (134,651);
}
);
layerId = "9372F035-DA38-4B54-966C-CEBA9B53DD02";
shapes = (
{
closed = 1;
nodes = (
(172,565,o),
(190,592,o),
(190,626,cs),
(190,660,o),
(172,687,o),
(134,687,cs),
(99,687,o),
(78,660,o),
(78,626,cs),
(78,592,o),
(99,565,o),
(134,565,cs)
);
}
);
width = 281;
}
);
unicode = 775;
},
{
color = 6;
glyphname = gravecomb;
layers = (
{
anchors = (
{
name = _top;
pos = (128,436);
},
{
name = top;
pos = (149,651);
}
);
layerId = "9372F035-DA38-4B54-966C-CEBA9B53DD02";
shapes = (
{
closed = 1;
nodes = (
(122,668,ls),
(111,710,o),
(95,724,o),
(79,724,cs),
(63,724,o),
(48,712,o),
(48,688,cs),
(48,672,o),
(55,655,o),
(65,639,cs),
(139,520,l),
(161,520,l)
);
}
);
width = 211;
}
);
unicode = 768;
},
{
color = 6;
glyphname = acutecomb;
layers = (
{
anchors = (
{
name = _top;
pos = (85,436);
},
{
name = _topright;
pos = (75,436);
},
{
name = top;
pos = (66,651);
}
);
layerId = "9372F035-DA38-4B54-966C-CEBA9B53DD02";
shapes = (
{
closed = 1;
nodes = (
(72,520,l),
(146,639,ls),
(156,655,o),
(163,672,o),
(163,688,cs),
(163,712,o),
(148,724,o),
(132,724,cs),
(116,724,o),
(100,710,o),
(89,668,cs),
(50,520,l)
);
}
);
width = 211;
}
);
unicode = 769;
},
{
color = 6;
glyphname = hungarumlautcomb;
layers = (
{
anchors = (
{
name = _top;
pos = (170,436);
},
{
name = top;
pos = (204,651);
}
);
layerId = "9372F035-DA38-4B54-966C-CEBA9B53DD02";
shapes = (
{
closed = 1;
nodes = (
(101,520,l),
(175,639,ls),
(185,655,o),
(192,672,o),
(192,688,cs),
(192,712,o),
(177,724,o),
(161,724,cs),
(145,724,o),
(129,710,o),
(118,668,cs),
(79,520,l)
);
},
{
closed = 1;
nodes = (
(231,520,l),
(305,639,ls),
(315,655,o),
(322,672,o),
(322,688,cs),
(322,712,o),
(307,724,o),
(291,724,cs),
(275,724,o),
(259,710,o),
(248,668,cs),
(209,520,l)
);
}
);
width = 360;
}
);
unicode = 779;
},
{
color = 6;
glyphname = caroncomb.alt;
layers = (
{
anchors = (
{
name = _topright;
pos = (12,710);
}
);
layerId = "9372F035-DA38-4B54-966C-CEBA9B53DD02";
shapes = (
{
closed = 1;
nodes = (
(65,533,l),
(127,710,l),
(51,710,l),
(31,533,l)
);
}
);
width = 182;
}
);
},
{
color = 6;
glyphname = circumflexcomb;
layers = (
{
anchors = (
{
name = _top;
pos = (156,436);
},
{
name = top;
pos = (155,651);
}
);
layerId = "9372F035-DA38-4B54-966C-CEBA9B53DD02";
shapes = (
{
closed = 1;
nodes = (
(75,520,l),
(153,618,l),
(159,618,l),
(237,520,l),
(261,520,l),
(167,710,l),
(145,710,l),
(51,520,l)
);
}
);
width = 310;
}
);
unicode = 770;
},
{
color = 6;
glyphname = caroncomb;
layers = (
{
anchors = (
{
name = _top;
pos = (154,436);
},
{
name = top;
pos = (154,651);
}
);
layerId = "9372F035-DA38-4B54-966C-CEBA9B53DD02";
shapes = (
{
closed = 1;
nodes = (
(144,521,l),
(166,521,l),
(260,711,l),
(236,711,l),
(158,613,l),
(152,613,l),
(74,711,l),
(50,711,l)
);
}
);
width = 310;
}
);
unicode = 780;
},
{
color = 6;
glyphname = brevecomb;
layers = (
{
anchors = (
{
name = _top;
pos = (150,436);
},
{
name = top;
pos = (150,651);
}
);
layerId = "9372F035-DA38-4B54-966C-CEBA9B53DD02";
shapes = (
{
closed = 1;
nodes = (
(218,547,o),
(252,598,o),
(252,663,cs),
(252,696,l),
(227,696,l),
(227,691,ls),
(227,625,o),
(199,607,o),
(151,607,cs),
(103,607,o),
(75,625,o),
(75,691,cs),
(75,696,l),
(50,696,l),
(50,663,ls),
(50,598,o),
(84,547,o),
(151,547,cs)
);
}
);
width = 299;
}
);
unicode = 774;
},
{
color = 6;
glyphname = ringcomb;
layers = (
{
anchors = (
{
name = _top;
pos = (137,436);
},
{
name = top;
pos = (135,651);
}
);
layerId = "9372F035-DA38-4B54-966C-CEBA9B53DD02";
shapes = (
{
closed = 1;
nodes = (
(176,530,o),
(219,556,o),
(219,615,cs),
(219,652,o),
(194,700,o),
(135,700,cs),
(80,700,o),
(50,657,o),
(50,615,cs),
(50,568,o),
(84,530,o),
(136,530,cs)
);
},
{
closed = 1;
nodes = (
(108,561,o),
(83,581,o),
(83,615,cs),
(83,653,o),
(112,669,o),
(135,669,cs),
(161,669,o),
(186,650,o),
(186,615,cs),
(186,579,o),
(161,561,o),
(136,561,cs)
);
}
);
width = 269;
}
);
unicode = 778;
},
{
color = 6;
glyphname = tildecomb;
layers = (
{
anchors = (
{
name = _top;
pos = (207,436);
},
{
name = top;
pos = (207,651);
}
);
layerId = "9372F035-DA38-4B54-966C-CEBA9B53DD02";
shapes = (
{
closed = 1;
nodes = (
(323,553,o),
(357,592,o),
(364,652,c),
(345,652,l),
(336,624,o),
(318,601,o),
(291,601,cs),
(273,601,o),
(250,614,o),
(240,620,cs),
(203,642,ls),
(190,650,o),
(161,668,o),
(136,668,cs),
(75,668,o),
(50,593,o),
(50,564,c),
(69,564,l),
(75,588,o),
(99,620,o),
(128,620,cs),
(146,620,o),
(165,609,o),
(189,594,cs),
(215,578,ls),
(232,568,o),
(258,553,o),
(283,553,cs)
);
}
);
width = 397;
}
);
unicode = 771;
},
{
color = 6;
glyphname = macroncomb;
layers = (
{
anchors = (
{
name = _top;
pos = (164,436);
},
{
name = top;
pos = (164,651);
}
);
layerId = "9372F035-DA38-4B54-966C-CEBA9B53DD02";
shapes = (
{
closed = 1;
nodes = (
(277,601,l),
(277,641,l),
(50,641,l),
(50,601,l)
);
}
);
width = 327;
}
);
unicode = 772;
},
{
color = 6;
glyphname = commaturnedabovecomb;
layers = (
{
anchors = (
{
name = _top;
pos = (105,436);
},
{
name = top;
pos = (105,651);
}
);
layerId = "9372F035-DA38-4B54-966C-CEBA9B53DD02";
shapes = (
{
closed = 1;
nodes = (
(68,683,o),
(36,653,o),
(36,592,cs),
(36,542,o),
(60,510,o),
(96,510,cs),
(125,510,o),
(145,530,o),
(145,559,cs),
(145,586,o),
(127,604,o),
(100,604,cs),
(82,604,o),
(65,590,o),
(65,576,cs),
(65,569,o),
(68,564,o),
(68,561,cs),
(68,561,o),
(68,560,o),
(67,559,cs),
(57,555,o),
(52,576,o),
(52,594,cs),
(52,641,o),
(85,671,o),
(121,696,c),
(111,711,l)
);
}
);
width = 232;
}
);
unicode = 786;
},
{
color = 6;
glyphname = commaaccentcomb;
layers = (
{
anchors = (
{
name = _bottom;
pos = (106,0);
}
);
layerId = "9372F035-DA38-4B54-966C-CEBA9B53DD02";
shapes = (
{
closed = 1;
nodes = (
(143,-260,o),
(175,-230,o),
(175,-169,cs),
(175,-119,o),
(151,-87,o),
(115,-87,cs),
(86,-87,o),
(66,-107,o),
(66,-136,cs),
(66,-163,o),
(84,-181,o),
(111,-181,cs),
(129,-181,o),
(146,-167,o),
(146,-153,cs),
(146,-146,o),
(143,-141,o),
(143,-138,cs),
(143,-138,o),
(143,-137,o),
(144,-136,cs),
(154,-132,o),
(159,-153,o),
(159,-171,cs),
(159,-218,o),
(126,-248,o),
(90,-273,c),
(100,-288,l)
);
}
);
width = 232;
}
);
unicode = 806;
},
{
color = 6;
glyphname = cedillacomb;
layers = (
{
anchors = (
{
name = _bottom;
pos = (193,0);
},
{
name = bottom;
pos = (153,-294);
}
);
layerId = "9372F035-DA38-4B54-966C-CEBA9B53DD02";
shapes = (
{
closed = 1;
nodes = (
(219,-292,o),
(273,-243,o),
(273,-169,cs),
(273,-115,o),
(238,-72,o),
(189,-60,c),
(210,0,l),
(180,0,l),
(161,-57,l),
(125,-57,o),
(91,-75,o),
(72,-109,c),
(92,-122,l),
(107,-99,o),
(131,-82,o),
(154,-82,cs),
(198,-82,o),
(222,-120,o),
(222,-166,cs),
(222,-214,o),
(198,-264,o),
(151,-264,cs),
(110,-264,o),
(82,-234,o),
(76,-203,c),
(54,-210,l),
(63,-249,o),
(97,-292,o),
(157,-292,cs)
);
}
);
width = 306;
}
);
unicode = 807;
},
{
color = 6;
glyphname = ogonekcomb;
layers = (
{
anchors = (
{
name = _ogonek;
pos = (218,0);
}
);
layerId = "9372F035-DA38-4B54-966C-CEBA9B53DD02";
shapes = (
{
closed = 1;
nodes = (
(261,-294,o),
(313,-229,o),
(320,-178,c),
(300,-170,l),
(281,-206,o),
(251,-229,o),
(208,-229,cs),
(164,-229,o),
(129,-206,o),
(129,-157,cs),
(129,-92,o),
(177,-45,o),
(245,40,c),
(229,40,l),
(136,-40,o),
(69,-117,o),
(69,-187,cs),
(69,-251,o),
(115,-294,o),
(172,-294,cs)
);
}
);
width = 298;
}
);
unicode = 808;
},
{
color = 6;
glyphname = strokeshortcomb;
layers = (
{
anchors = (
{
name = _center;
pos = (138,569);
}
);
layerId = "9372F035-DA38-4B54-966C-CEBA9B53DD02";
shapes = (
{
closed = 1;
nodes = (
(265,556,l),
(265,581,l),
(10,581,l),
(10,556,l)
);
}
);
width = 275;
}
);
unicode = 821;
},
{
color = 6;
glyphname = strokelongcomb;
layers = (
{
anchors = (
{
name = _center;
pos = (410,537);
}
);
layerId = "9372F035-DA38-4B54-966C-CEBA9B53DD02";
shapes = (
{
closed = 1;
nodes = (
(786,522,l),
(786,551,l),
(34,551,l),
(34,522,l)
);
}
);
width = 824;
}
);
unicode = 822;
},
{
color = 6;
glyphname = slashshortcomb;
layers = (
{
anchors = (
{
name = _center;
pos = (283,220);
}
);
layerId = "9372F035-DA38-4B54-966C-CEBA9B53DD02";
shapes = (
{
closed = 1;
nodes = (
(99,-12,l),
(523,453,l),
(467,453,l),
(42,-12,l)
);
}
);
width = 471;
}
);
unicode = 823;
},
{
color = 6;
glyphname = slashlongcomb;
layers = (
{
anchors = (
{
name = _center;
pos = (397,356);
}
);
guides = (
{
angle = 180;
pos = (53,710);
}
);
layerId = "9372F035-DA38-4B54-966C-CEBA9B53DD02";
shapes = (
{
closed = 1;
nodes = (
(106,-14,l),
(750,726,l),
(694,726,l),
(50,-14,l)
);
}
);
width = 794;
}
);
unicode = 824;
},
{
color = 6;
glyphname = dieresiscomb.case;
layers = (
{
anchors = (
{
name = _top;
pos = (210,710);
},
{
name = top;
pos = (213,908);
}
);
layerId = "9372F035-DA38-4B54-966C-CEBA9B53DD02";
shapes = (
{
closed = 1;
nodes = (
(153,822,o),
(169,847,o),
(169,879,cs),
(169,910,o),
(153,935,o),
(119,935,cs),
(87,935,o),
(68,910,o),
(68,879,cs),
(68,847,o),
(87,822,o),
(119,822,cs)
);
},
{
closed = 1;
nodes = (
(343,822,o),
(359,847,o),
(359,879,cs),
(359,910,o),
(343,935,o),
(309,935,cs),
(277,935,o),
(258,910,o),
(258,879,cs),
(258,847,o),
(277,822,o),
(309,822,cs)
);
}
);
width = 376;
}
);
},
{
color = 6;
glyphname = dotaccentcomb.case;
layers = (
{
anchors = (
{
name = _top;
pos = (134,710);
},
{
name = top;
pos = (135,908);
}
);
layerId = "9372F035-DA38-4B54-966C-CEBA9B53DD02";
shapes = (
{
closed = 1;
nodes = (
(172,794,o),
(190,821,o),
(190,855,cs),
(190,889,o),
(172,916,o),
(134,916,cs),
(99,916,o),
(78,889,o),
(78,855,cs),
(78,821,o),
(99,794,o),
(134,794,cs)
);
}
);
width = 281;
}
);
},
{
color = 6;
glyphname = gravecomb.case;
layers = (
{
anchors = (
{
name = _top;
pos = (151,710);
},
{
name = top;
pos = (91,908);
}
);
layerId = "9372F035-DA38-4B54-966C-CEBA9B53DD02";
shapes = (
{
closed = 1;
nodes = (
(131,940,l),
(50,940,l),
(145,760,l),
(157,760,l)
);
}
);
width = 207;
}
);
},
{
color = 6;
glyphname = acutecomb.case;
layers = (
{
anchors = (
{
name = _top;
pos = (55,710);
},
{
name = top;
pos = (114,908);
}
);
layerId = "9372F035-DA38-4B54-966C-CEBA9B53DD02";
shapes = (
{
closed = 1;
nodes = (
(62,760,l),
(157,940,l),
(76,940,l),
(50,760,l)
);
}
);
width = 207;
}
);
},
{
color = 6;
glyphname = hungarumlautcomb.case;
layers = (
{
anchors = (
{
name = _top;
pos = (133,710);
},
{
name = top;
pos = (133,1138);
}
);
layerId = "9372F035-DA38-4B54-966C-CEBA9B53DD02";
shapes = (
{
closed = 1;
nodes = (
(62,760,l),
(157,940,l),
(76,940,l),
(50,760,l)
);
},
{
closed = 1;
nodes = (
(195,761,l),
(290,941,l),
(209,941,l),
(183,761,l)
);
}
);
width = 340;
}
);
},
{
color = 6;
glyphname = circumflexcomb.case;
layers = (
{
anchors = (
{
name = _top;
pos = (156,710);
},
{
name = top;
pos = (155,908);
}
);
layerId = "9372F035-DA38-4B54-966C-CEBA9B53DD02";
shapes = (
{
closed = 1;
nodes = (
(74,761,l),
(152,853,l),
(158,853,l),
(236,761,l),
(260,761,l),
(166,940,l),
(144,940,l),
(50,761,l)
);
}
);
width = 310;
}
);
},
{
color = 6;
glyphname = caroncomb.case;
layers = (
{
anchors = (
{
name = _top;
pos = (154,710);
},
{
name = top;
pos = (154,908);
}
);
layerId = "9372F035-DA38-4B54-966C-CEBA9B53DD02";
shapes = (
{
closed = 1;
nodes = (
(144,760,l),
(166,760,l),
(260,940,l),
(236,940,l),
(158,847,l),
(152,847,l),
(74,940,l),
(50,940,l)
);
}
);
width = 310;
}
);
},
{
color = 6;
glyphname = brevecomb.case;
layers = (
{
anchors = (
{
name = _top;
pos = (150,710);
},
{
name = top;
pos = (152,908);
}
);
layerId = "9372F035-DA38-4B54-966C-CEBA9B53DD02";
shapes = (
{
closed = 1;
nodes = (
(218,788,o),
(252,839,o),
(252,904,cs),
(252,937,l),
(227,937,l),
(227,932,ls),
(227,866,o),
(199,848,o),
(151,848,cs),
(103,848,o),
(75,866,o),
(75,932,cs),
(75,937,l),
(50,937,l),
(50,904,ls),
(50,839,o),
(84,788,o),
(151,788,cs)
);
}
);
width = 299;
}
);
},
{
color = 6;
glyphname = ringcomb.case;
layers = (
{
anchors = (
{
name = _top;
pos = (135,710);
},
{
name = top;
pos = (137,908);
}
);
layerId = "9372F035-DA38-4B54-966C-CEBA9B53DD02";
shapes = (
{
closed = 1;
nodes = (
(177,766,o),
(220,792,o),
(220,851,cs),
(220,888,o),
(195,936,o),
(136,936,cs),
(81,936,o),
(51,893,o),
(51,851,cs),
(51,804,o),
(85,766,o),
(137,766,cs)
);
},
{
closed = 1;
nodes = (
(109,797,o),
(84,817,o),
(84,851,cs),
(84,889,o),
(113,905,o),
(136,905,cs),
(162,905,o),
(187,886,o),
(187,851,cs),
(187,815,o),
(162,797,o),
(137,797,cs)
);
}
);
width = 269;
}
);
},
{
color = 6;
glyphname = tildecomb.case;
layers = (
{
anchors = (
{
name = _top;
pos = (208,710);
},
{
name = top;
pos = (207,910);
}
);
layerId = "9372F035-DA38-4B54-966C-CEBA9B53DD02";
shapes = (
{
closed = 1;
nodes = (
(323,801,o),
(357,840,o),
(364,900,c),
(345,900,l),
(336,872,o),
(318,849,o),
(291,849,cs),
(273,849,o),
(250,862,o),
(240,868,cs),
(203,890,ls),
(190,898,o),
(161,916,o),
(136,916,cs),
(75,916,o),
(50,841,o),
(50,812,c),
(69,812,l),
(75,836,o),
(99,868,o),
(128,868,cs),
(146,868,o),
(165,857,o),
(189,842,cs),
(215,826,ls),
(232,816,o),
(258,801,o),
(283,801,cs)
);
}
);
width = 414;
}
);
},
{
color = 6;
glyphname = macroncomb.case;
layers = (
{
anchors = (
{
name = _top;
pos = (167,710);
},
{
name = top;
pos = (164,908);
}
);
layerId = "9372F035-DA38-4B54-966C-CEBA9B53DD02";
shapes = (
{
closed = 1;
nodes = (
(277,834,l),
(277,874,l),
(50,874,l),
(50,834,l)
);
}
);
width = 327;
}
);
},
{
color = 6;
glyphname = ogonekcomb.case;
layers = (
{
anchors = (
{
name = _ogonek;
pos = (186,0);
}
);
layerId = "9372F035-DA38-4B54-966C-CEBA9B53DD02";
shapes = (
{
closed = 1;
nodes = (
(234,-294,o),
(271,-234,o),
(278,-183,c),
(261,-170,l),
(242,-212,o),
(206,-239,o),
(169,-239,cs),
(121,-239,o),
(90,-210,o),
(90,-154,cs),
(90,-94,o),
(138,-44,o),
(195,19,c),
(169,19,l),
(117,-42,o),
(40,-117,o),
(40,-192,cs),
(40,-250,o),
(87,-294,o),
(148,-294,cs)
);
}
);
width = 298;
}
);
},
{
color = 6;
glyphname = strokeshortcomb.case;
layers = (
{
anchors = (
{
name = _center;
pos = (273,368);
}
);
layerId = "9372F035-DA38-4B54-966C-CEBA9B53DD02";
shapes = (
{
closed = 1;
nodes = (
(460,352,l),
(460,384,l),
(82,384,l),
(82,352,l)
);
}
);
width = 511;
}
);
},
{
color = 6;
glyphname = slashshortcomb.case;
layers = (
{
anchors = (
{
name = _center;
pos = (215,433);
}
);
layerId = "9372F035-DA38-4B54-966C-CEBA9B53DD02";
shapes = (
{
closed = 1;
nodes = (
(347,484,l),
(347,533,l),
(82,377,l),
(82,348,l)
);
}
);
width = 424;
}
);
},
{
color = 6;
glyphname = dieresiscomb.narrow;
layers = (
{
anchors = (
{
name = _top;
pos = (198,436);
},
{
name = top;
pos = (192,651);
}
);
layerId = "9372F035-DA38-4B54-966C-CEBA9B53DD02";
shapes = (
{
closed = 1;
nodes = (
(155,565,o),
(171,590,o),
(171,622,cs),
(171,653,o),
(155,678,o),
(121,678,cs),
(89,678,o),
(70,653,o),
(70,622,cs),
(70,590,o),
(89,565,o),
(121,565,cs)
);
},
{
closed = 1;
nodes = (
(305,565,o),
(321,590,o),
(321,622,cs),
(321,653,o),
(305,678,o),
(271,678,cs),
(239,678,o),
(220,653,o),
(220,622,cs),
(220,590,o),
(239,565,o),
(271,565,cs)
);
}
);
width = 391;
}
);
},
{
color = 6;
glyphname = dieresiscomb.sc;
layers = (
{
anchors = (
{
name = _top;
pos = (210,710);
},
{
name = top;
pos = (213,908);
}
);
layerId = "9372F035-DA38-4B54-966C-CEBA9B53DD02";
shapes = (
{
closed = 1;
nodes = (
(153,831,o),
(169,856,o),
(169,888,cs),
(169,919,o),
(153,944,o),
(119,944,cs),
(87,944,o),
(68,919,o),
(68,888,cs),
(68,856,o),
(87,831,o),
(119,831,cs)
);
},
{
closed = 1;
nodes = (
(343,831,o),
(359,856,o),
(359,888,cs),
(359,919,o),
(343,944,o),
(309,944,cs),
(277,944,o),
(258,919,o),
(258,888,cs),
(258,856,o),
(277,831,o),
(309,831,cs)
);
}
);
width = 376;
}
);
},
{
color = 6;
glyphname = dotaccentcomb.sc;
layers = (
{
anchors = (
{
name = _top;
pos = (134,710);
},
{
name = top;
pos = (135,908);
}
);
layerId = "9372F035-DA38-4B54-966C-CEBA9B53DD02";
shapes = (
{
closed = 1;
nodes = (
(172,798,o),
(190,825,o),
(190,859,cs),
(190,893,o),
(172,920,o),
(134,920,cs),
(99,920,o),
(78,893,o),
(78,859,cs),
(78,825,o),
(99,798,o),
(134,798,cs)
);
}
);
width = 281;
}
);
},
{
color = 6;
glyphname = gravecomb.sc;
layers = (
{
anchors = (
{
name = _top;
pos = (151,710);
},
{
name = top;
pos = (91,908);
}
);
layerId = "9372F035-DA38-4B54-966C-CEBA9B53DD02";
shapes = (
{
closed = 1;
nodes = (
(131,940,l),
(50,940,l),
(145,760,l),
(157,760,l)
);
}
);
width = 207;
}
);
},
{
color = 6;
glyphname = acutecomb.sc;
layers = (
{
anchors = (
{
name = _top;
pos = (63,710);
},
{
name = top;
pos = (114,908);
}
);
layerId = "9372F035-DA38-4B54-966C-CEBA9B53DD02";
shapes = (
{
closed = 1;
nodes = (
(62,760,l),
(157,940,l),
(76,940,l),
(50,760,l)
);
}
);
width = 207;
}
);
},
{
color = 6;
glyphname = hungarumlautcomb.sc;
layers = (
{
anchors = (
{
name = _top;
pos = (133,710);
},
{
name = top;
pos = (133,1138);
}
);
layerId = "9372F035-DA38-4B54-966C-CEBA9B53DD02";
shapes = (
{
closed = 1;
nodes = (
(62,760,l),
(157,940,l),
(76,940,l),
(50,760,l)
);
},
{
closed = 1;
nodes = (
(195,761,l),
(290,941,l),
(209,941,l),
(183,761,l)
);
}
);
width = 340;
}
);
},
{
color = 6;
glyphname = caroncomb.alt.sc;
layers = (
{
anchors = (
{
name = _top;
pos = (78,436);
},
{
name = _topright;
pos = (58,436);
},
{
name = top;
pos = (80,651);
}
);
layerId = "9372F035-DA38-4B54-966C-CEBA9B53DD02";
shapes = (
{
closed = 1;
nodes = (
(52,561,l),
(97,678,ls),
(106,704,o),
(107,733,o),
(79,733,cs),
(64,733,o),
(52,724,o),
(48,687,cs),
(32,561,l)
);
}
);
width = 182;
}
);
},
{
color = 6;
glyphname = circumflexcomb.sc;
layers = (
{
anchors = (
{
name = _top;
pos = (156,710);
},
{
name = top;
pos = (155,908);
}
);
layerId = "9372F035-DA38-4B54-966C-CEBA9B53DD02";
shapes = (
{
closed = 1;
nodes = (
(74,760,l),
(152,858,l),
(158,858,l),
(236,760,l),
(260,760,l),
(166,950,l),
(144,950,l),
(50,760,l)
);
}
);
width = 310;
}
);
},
{
color = 6;
glyphname = caroncomb.sc;
layers = (
{
anchors = (
{
name = _top;
pos = (154,710);
},
{
name = top;
pos = (154,908);
}
);
layerId = "9372F035-DA38-4B54-966C-CEBA9B53DD02";
shapes = (
{
closed = 1;
nodes = (
(144,760,l),
(166,760,l),
(260,940,l),
(236,940,l),
(158,847,l),
(152,847,l),
(74,940,l),
(50,940,l)
);
}
);
width = 310;
}
);
},
{
color = 6;
glyphname = brevecomb.sc;
layers = (
{
anchors = (
{
name = _top;
pos = (150,710);
},
{
name = top;
pos = (152,908);
}
);
layerId = "9372F035-DA38-4B54-966C-CEBA9B53DD02";
shapes = (
{
closed = 1;
nodes = (
(218,788,o),
(252,839,o),
(252,904,cs),
(252,937,l),
(227,937,l),
(227,932,ls),
(227,866,o),
(199,848,o),
(151,848,cs),
(103,848,o),
(75,866,o),
(75,932,cs),
(75,937,l),
(50,937,l),
(50,904,ls),
(50,839,o),
(84,788,o),
(151,788,cs)
);
}
);
width = 299;
}
);
},
{
color = 6;
glyphname = ringcomb.sc;
layers = (
{
anchors = (
{
name = _top;
pos = (135,710);
},
{
name = top;
pos = (137,908);
}
);
layerId = "9372F035-DA38-4B54-966C-CEBA9B53DD02";
shapes = (
{
closed = 1;
nodes = (
(177,766,o),
(220,792,o),
(220,851,cs),
(220,888,o),
(195,936,o),
(136,936,cs),
(81,936,o),
(51,893,o),
(51,851,cs),
(51,804,o),
(85,766,o),
(137,766,cs)
);
},
{
closed = 1;
nodes = (
(109,797,o),
(84,817,o),
(84,851,cs),
(84,889,o),
(113,905,o),
(136,905,cs),
(162,905,o),
(187,886,o),
(187,851,cs),
(187,815,o),
(162,797,o),
(137,797,cs)
);
}
);
width = 269;
}
);
},
{
color = 6;
glyphname = tildecomb.sc;
layers = (
{
anchors = (
{
name = _top;
pos = (208,710);
},
{
name = top;
pos = (207,910);
}
);
layerId = "9372F035-DA38-4B54-966C-CEBA9B53DD02";
shapes = (
{
closed = 1;
nodes = (
(323,801,o),
(357,840,o),
(364,900,c),
(345,900,l),
(336,872,o),
(318,849,o),
(291,849,cs),
(273,849,o),
(250,862,o),
(240,868,cs),
(203,890,ls),
(190,898,o),
(161,916,o),
(136,916,cs),
(75,916,o),
(50,841,o),
(50,812,c),
(69,812,l),
(75,836,o),
(99,868,o),
(128,868,cs),
(146,868,o),
(165,857,o),
(189,842,cs),
(215,826,ls),
(232,816,o),
(258,801,o),
(283,801,cs)
);
}
);
width = 414;
}
);
},
{
color = 6;
glyphname = macroncomb.sc;
layers = (
{
anchors = (
{
name = _top;
pos = (167,710);
},
{
name = top;
pos = (164,908);
}
);
layerId = "9372F035-DA38-4B54-966C-CEBA9B53DD02";
shapes = (
{
closed = 1;
nodes = (
(277,847,l),
(277,887,l),
(50,887,l),
(50,847,l)
);
}
);
width = 327;
}
);
},
{
color = 6;
glyphname = ogonekcomb.sc;
layers = (
{
anchors = (
{
name = _ogonek;
pos = (186,0);
}
);
layerId = "9372F035-DA38-4B54-966C-CEBA9B53DD02";
shapes = (
{
closed = 1;
nodes = (
(234,-294,o),
(271,-234,o),
(278,-183,c),
(261,-170,l),
(242,-212,o),
(206,-239,o),
(169,-239,cs),
(121,-239,o),
(90,-210,o),
(90,-154,cs),
(90,-94,o),
(138,-44,o),
(195,19,c),
(169,19,l),
(117,-42,o),
(40,-117,o),
(40,-192,cs),
(40,-250,o),
(87,-294,o),
(148,-294,cs)
);
}
);
width = 298;
}
);
},
{
color = 6;
glyphname = strokelongcomb.sc;
layers = (
{
anchors = (
{
name = _center;
pos = (410,537);
}
);
layerId = "9372F035-DA38-4B54-966C-CEBA9B53DD02";
shapes = (
{
closed = 1;
nodes = (
(691,522,l),
(691,548,l),
(126,548,l),
(126,522,l)
);
}
);
width = 824;
}
);
},
{
color = 6;
glyphname = slashshortcomb.sc;
layers = (
{
anchors = (
{
name = _center;
pos = (230,433);
}
);
layerId = "9372F035-DA38-4B54-966C-CEBA9B53DD02";
shapes = (
{
closed = 1;
nodes = (
(137,344,l),
(349,510,l),
(304,511,l),
(90,344,l)
);
}
);
width = 424;
}
);
},
{
color = 6;
glyphname = slashlongcomb.sc;
layers = (
{
anchors = (
{
name = _center;
pos = (288,228);
}
);
guides = (
{
angle = 180;
pos = (53,710);
}
);
layerId = "9372F035-DA38-4B54-966C-CEBA9B53DD02";
shapes = (
{
closed = 1;
nodes = (
(101,-14,l),
(521,469,l),
(475,469,l),
(55,-14,l)
);
}
);
width = 576;
}
);
},
{
color = 6;
glyphname = strokeshortcomb.case.sc;
layers = (
{
anchors = (
{
name = _center;
pos = (254,355);
}
);
layerId = "9372F035-DA38-4B54-966C-CEBA9B53DD02";
shapes = (
{
closed = 1;
nodes = (
(367,342,l),
(367,367,l),
(139,367,l),
(139,342,l)
);
}
);
width = 511;
}
);
},
